G04 MADE WITH FRITZING*
G04 WWW.FRITZING.ORG*
G04 DOUBLE SIDED*
G04 HOLES PLATED*
G04 CONTOUR ON CENTER OF CONTOUR VECTOR*
%ASAXBY*%
%FSLAX23Y23*%
%MOIN*%
%OFA0B0*%
%SFA1.0B1.0*%
%ADD10C,0.075000*%
%ADD11C,0.062992*%
%ADD12R,0.075000X0.075000*%
%ADD13C,0.024000*%
%LNCOPPER0*%
G90*
G70*
G54D10*
X914Y719D03*
X471Y820D03*
X1011Y96D03*
X755Y96D03*
X1011Y273D03*
X755Y273D03*
G54D11*
X1288Y108D03*
X1288Y206D03*
X1288Y408D03*
X1288Y506D03*
X1588Y108D03*
X1588Y206D03*
X1588Y408D03*
X1588Y506D03*
G54D10*
X1055Y473D03*
X755Y473D03*
X1055Y573D03*
X755Y573D03*
X1055Y673D03*
X755Y673D03*
X1055Y773D03*
X755Y773D03*
G54D11*
X1588Y708D03*
X1588Y806D03*
G54D10*
X355Y373D03*
X355Y773D03*
G54D12*
X1055Y473D03*
X355Y373D03*
G54D13*
X796Y96D02*
X819Y96D01*
D02*
X819Y96D02*
X819Y373D01*
D02*
X819Y373D02*
X1055Y373D01*
D02*
X1055Y373D02*
X1055Y432D01*
D02*
X1096Y573D02*
X1346Y573D01*
D02*
X1346Y573D02*
X1346Y108D01*
D02*
X1346Y108D02*
X1324Y108D01*
D02*
X796Y573D02*
X819Y573D01*
D02*
X819Y573D02*
X819Y838D01*
D02*
X819Y838D02*
X1529Y838D01*
D02*
X1529Y838D02*
X1529Y708D01*
D02*
X1529Y708D02*
X1551Y708D01*
G36*
X865Y794D02*
X865Y564D01*
X860Y564D01*
X860Y549D01*
X855Y549D01*
X855Y544D01*
X850Y544D01*
X850Y539D01*
X845Y539D01*
X845Y534D01*
X835Y534D01*
X835Y529D01*
X805Y529D01*
X805Y514D01*
X810Y514D01*
X810Y509D01*
X815Y509D01*
X815Y499D01*
X820Y499D01*
X820Y489D01*
X825Y489D01*
X825Y459D01*
X820Y459D01*
X820Y444D01*
X815Y444D01*
X815Y439D01*
X810Y439D01*
X810Y429D01*
X805Y429D01*
X805Y424D01*
X800Y424D01*
X800Y419D01*
X985Y419D01*
X985Y539D01*
X990Y539D01*
X990Y554D01*
X985Y554D01*
X985Y589D01*
X990Y589D01*
X990Y604D01*
X995Y604D01*
X995Y609D01*
X1000Y609D01*
X1000Y619D01*
X1005Y619D01*
X1005Y629D01*
X1000Y629D01*
X1000Y634D01*
X995Y634D01*
X995Y644D01*
X990Y644D01*
X990Y654D01*
X985Y654D01*
X985Y689D01*
X990Y689D01*
X990Y704D01*
X995Y704D01*
X995Y709D01*
X1000Y709D01*
X1000Y719D01*
X1005Y719D01*
X1005Y729D01*
X1000Y729D01*
X1000Y734D01*
X995Y734D01*
X995Y744D01*
X990Y744D01*
X990Y754D01*
X985Y754D01*
X985Y789D01*
X990Y789D01*
X990Y794D01*
X865Y794D01*
G37*
D02*
G36*
X0Y889D02*
X0Y884D01*
X1540Y884D01*
X1540Y879D01*
X1555Y879D01*
X1555Y874D01*
X1560Y874D01*
X1560Y869D01*
X1605Y869D01*
X1605Y864D01*
X1615Y864D01*
X1615Y859D01*
X1625Y859D01*
X1625Y854D01*
X1630Y854D01*
X1630Y849D01*
X1635Y849D01*
X1635Y844D01*
X1640Y844D01*
X1640Y839D01*
X1645Y839D01*
X1645Y824D01*
X1650Y824D01*
X1650Y784D01*
X1645Y784D01*
X1645Y774D01*
X1640Y774D01*
X1640Y769D01*
X1635Y769D01*
X1635Y764D01*
X1630Y764D01*
X1630Y759D01*
X1625Y759D01*
X1625Y754D01*
X1630Y754D01*
X1630Y749D01*
X1635Y749D01*
X1635Y744D01*
X1640Y744D01*
X1640Y739D01*
X1645Y739D01*
X1645Y729D01*
X1650Y729D01*
X1650Y689D01*
X1645Y689D01*
X1645Y679D01*
X1640Y679D01*
X1640Y669D01*
X1635Y669D01*
X1635Y664D01*
X1630Y664D01*
X1630Y659D01*
X1625Y659D01*
X1625Y654D01*
X1615Y654D01*
X1615Y649D01*
X1605Y649D01*
X1605Y644D01*
X1755Y644D01*
X1755Y889D01*
X0Y889D01*
G37*
D02*
G36*
X0Y884D02*
X0Y844D01*
X365Y844D01*
X365Y839D01*
X380Y839D01*
X380Y834D01*
X390Y834D01*
X390Y829D01*
X395Y829D01*
X395Y824D01*
X405Y824D01*
X405Y814D01*
X410Y814D01*
X410Y809D01*
X415Y809D01*
X415Y799D01*
X420Y799D01*
X420Y789D01*
X425Y789D01*
X425Y759D01*
X420Y759D01*
X420Y744D01*
X415Y744D01*
X415Y739D01*
X410Y739D01*
X410Y729D01*
X405Y729D01*
X405Y724D01*
X400Y724D01*
X400Y719D01*
X390Y719D01*
X390Y714D01*
X385Y714D01*
X385Y709D01*
X370Y709D01*
X370Y704D01*
X695Y704D01*
X695Y709D01*
X700Y709D01*
X700Y719D01*
X705Y719D01*
X705Y729D01*
X700Y729D01*
X700Y734D01*
X695Y734D01*
X695Y744D01*
X690Y744D01*
X690Y754D01*
X685Y754D01*
X685Y789D01*
X690Y789D01*
X690Y804D01*
X695Y804D01*
X695Y809D01*
X700Y809D01*
X700Y819D01*
X705Y819D01*
X705Y824D01*
X710Y824D01*
X710Y829D01*
X720Y829D01*
X720Y834D01*
X725Y834D01*
X725Y839D01*
X740Y839D01*
X740Y844D01*
X775Y844D01*
X775Y854D01*
X780Y854D01*
X780Y864D01*
X785Y864D01*
X785Y869D01*
X790Y869D01*
X790Y874D01*
X795Y874D01*
X795Y879D01*
X810Y879D01*
X810Y884D01*
X0Y884D01*
G37*
D02*
G36*
X0Y844D02*
X0Y704D01*
X335Y704D01*
X335Y709D01*
X325Y709D01*
X325Y714D01*
X315Y714D01*
X315Y719D01*
X310Y719D01*
X310Y724D01*
X305Y724D01*
X305Y729D01*
X300Y729D01*
X300Y734D01*
X295Y734D01*
X295Y744D01*
X290Y744D01*
X290Y754D01*
X285Y754D01*
X285Y789D01*
X290Y789D01*
X290Y804D01*
X295Y804D01*
X295Y809D01*
X300Y809D01*
X300Y819D01*
X305Y819D01*
X305Y824D01*
X310Y824D01*
X310Y829D01*
X320Y829D01*
X320Y834D01*
X325Y834D01*
X325Y839D01*
X340Y839D01*
X340Y844D01*
X0Y844D01*
G37*
D02*
G36*
X1120Y794D02*
X1120Y789D01*
X1125Y789D01*
X1125Y759D01*
X1120Y759D01*
X1120Y744D01*
X1115Y744D01*
X1115Y739D01*
X1110Y739D01*
X1110Y729D01*
X1105Y729D01*
X1105Y714D01*
X1110Y714D01*
X1110Y709D01*
X1115Y709D01*
X1115Y699D01*
X1120Y699D01*
X1120Y689D01*
X1125Y689D01*
X1125Y659D01*
X1120Y659D01*
X1120Y644D01*
X1570Y644D01*
X1570Y649D01*
X1560Y649D01*
X1560Y654D01*
X1550Y654D01*
X1550Y659D01*
X1545Y659D01*
X1545Y664D01*
X1510Y664D01*
X1510Y669D01*
X1500Y669D01*
X1500Y674D01*
X1495Y674D01*
X1495Y679D01*
X1490Y679D01*
X1490Y689D01*
X1485Y689D01*
X1485Y794D01*
X1120Y794D01*
G37*
D02*
G36*
X0Y704D02*
X0Y699D01*
X690Y699D01*
X690Y704D01*
X0Y704D01*
G37*
D02*
G36*
X0Y704D02*
X0Y699D01*
X690Y699D01*
X690Y704D01*
X0Y704D01*
G37*
D02*
G36*
X0Y699D02*
X0Y444D01*
X420Y444D01*
X420Y439D01*
X425Y439D01*
X425Y304D01*
X695Y304D01*
X695Y309D01*
X700Y309D01*
X700Y319D01*
X705Y319D01*
X705Y324D01*
X710Y324D01*
X710Y329D01*
X720Y329D01*
X720Y334D01*
X725Y334D01*
X725Y339D01*
X740Y339D01*
X740Y344D01*
X775Y344D01*
X775Y389D01*
X780Y389D01*
X780Y399D01*
X785Y399D01*
X785Y404D01*
X735Y404D01*
X735Y409D01*
X725Y409D01*
X725Y414D01*
X715Y414D01*
X715Y419D01*
X710Y419D01*
X710Y424D01*
X705Y424D01*
X705Y429D01*
X700Y429D01*
X700Y434D01*
X695Y434D01*
X695Y444D01*
X690Y444D01*
X690Y454D01*
X685Y454D01*
X685Y489D01*
X690Y489D01*
X690Y504D01*
X695Y504D01*
X695Y509D01*
X700Y509D01*
X700Y519D01*
X705Y519D01*
X705Y529D01*
X700Y529D01*
X700Y534D01*
X695Y534D01*
X695Y544D01*
X690Y544D01*
X690Y554D01*
X685Y554D01*
X685Y589D01*
X690Y589D01*
X690Y604D01*
X695Y604D01*
X695Y609D01*
X700Y609D01*
X700Y619D01*
X705Y619D01*
X705Y629D01*
X700Y629D01*
X700Y634D01*
X695Y634D01*
X695Y644D01*
X690Y644D01*
X690Y654D01*
X685Y654D01*
X685Y689D01*
X690Y689D01*
X690Y699D01*
X0Y699D01*
G37*
D02*
G36*
X1115Y644D02*
X1115Y639D01*
X1755Y639D01*
X1755Y644D01*
X1115Y644D01*
G37*
D02*
G36*
X1115Y644D02*
X1115Y639D01*
X1755Y639D01*
X1755Y644D01*
X1115Y644D01*
G37*
D02*
G36*
X1110Y639D02*
X1110Y629D01*
X1105Y629D01*
X1105Y619D01*
X1360Y619D01*
X1360Y614D01*
X1370Y614D01*
X1370Y609D01*
X1380Y609D01*
X1380Y599D01*
X1385Y599D01*
X1385Y594D01*
X1390Y594D01*
X1390Y569D01*
X1605Y569D01*
X1605Y564D01*
X1615Y564D01*
X1615Y559D01*
X1625Y559D01*
X1625Y554D01*
X1630Y554D01*
X1630Y549D01*
X1635Y549D01*
X1635Y544D01*
X1640Y544D01*
X1640Y539D01*
X1645Y539D01*
X1645Y524D01*
X1650Y524D01*
X1650Y484D01*
X1645Y484D01*
X1645Y474D01*
X1640Y474D01*
X1640Y469D01*
X1635Y469D01*
X1635Y464D01*
X1630Y464D01*
X1630Y459D01*
X1625Y459D01*
X1625Y454D01*
X1630Y454D01*
X1630Y449D01*
X1635Y449D01*
X1635Y444D01*
X1640Y444D01*
X1640Y439D01*
X1645Y439D01*
X1645Y429D01*
X1650Y429D01*
X1650Y389D01*
X1645Y389D01*
X1645Y379D01*
X1640Y379D01*
X1640Y369D01*
X1635Y369D01*
X1635Y364D01*
X1630Y364D01*
X1630Y359D01*
X1625Y359D01*
X1625Y354D01*
X1615Y354D01*
X1615Y349D01*
X1605Y349D01*
X1605Y344D01*
X1755Y344D01*
X1755Y639D01*
X1110Y639D01*
G37*
D02*
G36*
X1390Y569D02*
X1390Y344D01*
X1570Y344D01*
X1570Y349D01*
X1560Y349D01*
X1560Y354D01*
X1550Y354D01*
X1550Y359D01*
X1545Y359D01*
X1545Y364D01*
X1540Y364D01*
X1540Y369D01*
X1535Y369D01*
X1535Y379D01*
X1530Y379D01*
X1530Y389D01*
X1525Y389D01*
X1525Y429D01*
X1530Y429D01*
X1530Y439D01*
X1535Y439D01*
X1535Y444D01*
X1540Y444D01*
X1540Y449D01*
X1545Y449D01*
X1545Y454D01*
X1550Y454D01*
X1550Y459D01*
X1545Y459D01*
X1545Y464D01*
X1540Y464D01*
X1540Y469D01*
X1535Y469D01*
X1535Y474D01*
X1530Y474D01*
X1530Y489D01*
X1525Y489D01*
X1525Y524D01*
X1530Y524D01*
X1530Y534D01*
X1535Y534D01*
X1535Y544D01*
X1540Y544D01*
X1540Y549D01*
X1545Y549D01*
X1545Y554D01*
X1550Y554D01*
X1550Y559D01*
X1560Y559D01*
X1560Y564D01*
X1570Y564D01*
X1570Y569D01*
X1390Y569D01*
G37*
D02*
G36*
X1125Y529D02*
X1125Y404D01*
X1100Y404D01*
X1100Y359D01*
X1095Y359D01*
X1095Y349D01*
X1090Y349D01*
X1090Y344D01*
X1085Y344D01*
X1085Y339D01*
X1080Y339D01*
X1080Y334D01*
X1070Y334D01*
X1070Y329D01*
X1055Y329D01*
X1055Y324D01*
X1060Y324D01*
X1060Y319D01*
X1065Y319D01*
X1065Y309D01*
X1070Y309D01*
X1070Y304D01*
X1075Y304D01*
X1075Y289D01*
X1080Y289D01*
X1080Y254D01*
X1075Y254D01*
X1075Y244D01*
X1070Y244D01*
X1070Y234D01*
X1065Y234D01*
X1065Y229D01*
X1060Y229D01*
X1060Y224D01*
X1055Y224D01*
X1055Y219D01*
X1050Y219D01*
X1050Y214D01*
X1040Y214D01*
X1040Y209D01*
X1030Y209D01*
X1030Y204D01*
X1225Y204D01*
X1225Y224D01*
X1230Y224D01*
X1230Y234D01*
X1235Y234D01*
X1235Y244D01*
X1240Y244D01*
X1240Y249D01*
X1245Y249D01*
X1245Y254D01*
X1250Y254D01*
X1250Y259D01*
X1260Y259D01*
X1260Y264D01*
X1270Y264D01*
X1270Y269D01*
X1300Y269D01*
X1300Y344D01*
X1270Y344D01*
X1270Y349D01*
X1260Y349D01*
X1260Y354D01*
X1250Y354D01*
X1250Y359D01*
X1245Y359D01*
X1245Y364D01*
X1240Y364D01*
X1240Y369D01*
X1235Y369D01*
X1235Y379D01*
X1230Y379D01*
X1230Y389D01*
X1225Y389D01*
X1225Y429D01*
X1230Y429D01*
X1230Y439D01*
X1235Y439D01*
X1235Y444D01*
X1240Y444D01*
X1240Y449D01*
X1245Y449D01*
X1245Y454D01*
X1250Y454D01*
X1250Y459D01*
X1245Y459D01*
X1245Y464D01*
X1240Y464D01*
X1240Y469D01*
X1235Y469D01*
X1235Y474D01*
X1230Y474D01*
X1230Y489D01*
X1225Y489D01*
X1225Y524D01*
X1230Y524D01*
X1230Y529D01*
X1125Y529D01*
G37*
D02*
G36*
X0Y444D02*
X0Y304D01*
X285Y304D01*
X285Y439D01*
X290Y439D01*
X290Y444D01*
X0Y444D01*
G37*
D02*
G36*
X1390Y344D02*
X1390Y339D01*
X1755Y339D01*
X1755Y344D01*
X1390Y344D01*
G37*
D02*
G36*
X1390Y344D02*
X1390Y339D01*
X1755Y339D01*
X1755Y344D01*
X1390Y344D01*
G37*
D02*
G36*
X1390Y339D02*
X1390Y269D01*
X1605Y269D01*
X1605Y264D01*
X1615Y264D01*
X1615Y259D01*
X1625Y259D01*
X1625Y254D01*
X1630Y254D01*
X1630Y249D01*
X1635Y249D01*
X1635Y244D01*
X1640Y244D01*
X1640Y239D01*
X1645Y239D01*
X1645Y224D01*
X1650Y224D01*
X1650Y184D01*
X1645Y184D01*
X1645Y174D01*
X1640Y174D01*
X1640Y169D01*
X1635Y169D01*
X1635Y164D01*
X1630Y164D01*
X1630Y159D01*
X1625Y159D01*
X1625Y154D01*
X1630Y154D01*
X1630Y149D01*
X1635Y149D01*
X1635Y144D01*
X1640Y144D01*
X1640Y139D01*
X1645Y139D01*
X1645Y129D01*
X1650Y129D01*
X1650Y89D01*
X1645Y89D01*
X1645Y79D01*
X1640Y79D01*
X1640Y69D01*
X1635Y69D01*
X1635Y64D01*
X1630Y64D01*
X1630Y59D01*
X1625Y59D01*
X1625Y54D01*
X1615Y54D01*
X1615Y49D01*
X1605Y49D01*
X1605Y44D01*
X1755Y44D01*
X1755Y339D01*
X1390Y339D01*
G37*
D02*
G36*
X865Y329D02*
X865Y204D01*
X995Y204D01*
X995Y209D01*
X980Y209D01*
X980Y214D01*
X975Y214D01*
X975Y219D01*
X965Y219D01*
X965Y224D01*
X960Y224D01*
X960Y229D01*
X955Y229D01*
X955Y239D01*
X950Y239D01*
X950Y244D01*
X945Y244D01*
X945Y259D01*
X940Y259D01*
X940Y289D01*
X945Y289D01*
X945Y299D01*
X950Y299D01*
X950Y309D01*
X955Y309D01*
X955Y314D01*
X960Y314D01*
X960Y324D01*
X970Y324D01*
X970Y329D01*
X865Y329D01*
G37*
D02*
G36*
X0Y304D02*
X0Y299D01*
X690Y299D01*
X690Y304D01*
X0Y304D01*
G37*
D02*
G36*
X0Y304D02*
X0Y299D01*
X690Y299D01*
X690Y304D01*
X0Y304D01*
G37*
D02*
G36*
X0Y299D02*
X0Y29D01*
X730Y29D01*
X730Y34D01*
X720Y34D01*
X720Y39D01*
X715Y39D01*
X715Y44D01*
X710Y44D01*
X710Y49D01*
X705Y49D01*
X705Y54D01*
X700Y54D01*
X700Y59D01*
X695Y59D01*
X695Y69D01*
X690Y69D01*
X690Y79D01*
X685Y79D01*
X685Y114D01*
X690Y114D01*
X690Y124D01*
X695Y124D01*
X695Y134D01*
X700Y134D01*
X700Y139D01*
X705Y139D01*
X705Y144D01*
X710Y144D01*
X710Y149D01*
X715Y149D01*
X715Y154D01*
X720Y154D01*
X720Y159D01*
X730Y159D01*
X730Y164D01*
X775Y164D01*
X775Y204D01*
X735Y204D01*
X735Y209D01*
X725Y209D01*
X725Y214D01*
X715Y214D01*
X715Y219D01*
X710Y219D01*
X710Y224D01*
X705Y224D01*
X705Y229D01*
X700Y229D01*
X700Y234D01*
X695Y234D01*
X695Y244D01*
X690Y244D01*
X690Y254D01*
X685Y254D01*
X685Y289D01*
X690Y289D01*
X690Y299D01*
X0Y299D01*
G37*
D02*
G36*
X1390Y269D02*
X1390Y89D01*
X1385Y89D01*
X1385Y79D01*
X1380Y79D01*
X1380Y74D01*
X1375Y74D01*
X1375Y69D01*
X1365Y69D01*
X1365Y64D01*
X1330Y64D01*
X1330Y59D01*
X1325Y59D01*
X1325Y54D01*
X1315Y54D01*
X1315Y49D01*
X1305Y49D01*
X1305Y44D01*
X1570Y44D01*
X1570Y49D01*
X1560Y49D01*
X1560Y54D01*
X1550Y54D01*
X1550Y59D01*
X1545Y59D01*
X1545Y64D01*
X1540Y64D01*
X1540Y69D01*
X1535Y69D01*
X1535Y79D01*
X1530Y79D01*
X1530Y89D01*
X1525Y89D01*
X1525Y129D01*
X1530Y129D01*
X1530Y139D01*
X1535Y139D01*
X1535Y144D01*
X1540Y144D01*
X1540Y149D01*
X1545Y149D01*
X1545Y154D01*
X1550Y154D01*
X1550Y159D01*
X1545Y159D01*
X1545Y164D01*
X1540Y164D01*
X1540Y169D01*
X1535Y169D01*
X1535Y174D01*
X1530Y174D01*
X1530Y189D01*
X1525Y189D01*
X1525Y224D01*
X1530Y224D01*
X1530Y234D01*
X1535Y234D01*
X1535Y244D01*
X1540Y244D01*
X1540Y249D01*
X1545Y249D01*
X1545Y254D01*
X1550Y254D01*
X1550Y259D01*
X1560Y259D01*
X1560Y264D01*
X1570Y264D01*
X1570Y269D01*
X1390Y269D01*
G37*
D02*
G36*
X865Y204D02*
X865Y199D01*
X1225Y199D01*
X1225Y204D01*
X865Y204D01*
G37*
D02*
G36*
X865Y204D02*
X865Y199D01*
X1225Y199D01*
X1225Y204D01*
X865Y204D01*
G37*
D02*
G36*
X865Y199D02*
X865Y164D01*
X1035Y164D01*
X1035Y159D01*
X1045Y159D01*
X1045Y154D01*
X1050Y154D01*
X1050Y149D01*
X1055Y149D01*
X1055Y144D01*
X1060Y144D01*
X1060Y139D01*
X1065Y139D01*
X1065Y134D01*
X1070Y134D01*
X1070Y124D01*
X1075Y124D01*
X1075Y114D01*
X1080Y114D01*
X1080Y79D01*
X1075Y79D01*
X1075Y69D01*
X1070Y69D01*
X1070Y59D01*
X1065Y59D01*
X1065Y54D01*
X1060Y54D01*
X1060Y49D01*
X1055Y49D01*
X1055Y44D01*
X1270Y44D01*
X1270Y49D01*
X1260Y49D01*
X1260Y54D01*
X1250Y54D01*
X1250Y59D01*
X1245Y59D01*
X1245Y64D01*
X1240Y64D01*
X1240Y69D01*
X1235Y69D01*
X1235Y79D01*
X1230Y79D01*
X1230Y89D01*
X1225Y89D01*
X1225Y129D01*
X1230Y129D01*
X1230Y139D01*
X1235Y139D01*
X1235Y144D01*
X1240Y144D01*
X1240Y149D01*
X1245Y149D01*
X1245Y154D01*
X1250Y154D01*
X1250Y159D01*
X1245Y159D01*
X1245Y164D01*
X1240Y164D01*
X1240Y169D01*
X1235Y169D01*
X1235Y174D01*
X1230Y174D01*
X1230Y189D01*
X1225Y189D01*
X1225Y199D01*
X865Y199D01*
G37*
D02*
G36*
X865Y164D02*
X865Y84D01*
X860Y84D01*
X860Y74D01*
X855Y74D01*
X855Y64D01*
X850Y64D01*
X850Y59D01*
X840Y59D01*
X840Y54D01*
X805Y54D01*
X805Y49D01*
X800Y49D01*
X800Y44D01*
X795Y44D01*
X795Y39D01*
X790Y39D01*
X790Y34D01*
X780Y34D01*
X780Y29D01*
X985Y29D01*
X985Y34D01*
X975Y34D01*
X975Y39D01*
X970Y39D01*
X970Y44D01*
X965Y44D01*
X965Y49D01*
X960Y49D01*
X960Y54D01*
X955Y54D01*
X955Y59D01*
X950Y59D01*
X950Y69D01*
X945Y69D01*
X945Y84D01*
X940Y84D01*
X940Y109D01*
X945Y109D01*
X945Y124D01*
X950Y124D01*
X950Y134D01*
X955Y134D01*
X955Y139D01*
X960Y139D01*
X960Y144D01*
X965Y144D01*
X965Y149D01*
X970Y149D01*
X970Y154D01*
X980Y154D01*
X980Y159D01*
X990Y159D01*
X990Y164D01*
X865Y164D01*
G37*
D02*
G36*
X1050Y44D02*
X1050Y39D01*
X1755Y39D01*
X1755Y44D01*
X1050Y44D01*
G37*
D02*
G36*
X1050Y44D02*
X1050Y39D01*
X1755Y39D01*
X1755Y44D01*
X1050Y44D01*
G37*
D02*
G36*
X1050Y44D02*
X1050Y39D01*
X1755Y39D01*
X1755Y44D01*
X1050Y44D01*
G37*
D02*
G36*
X1045Y39D02*
X1045Y34D01*
X1035Y34D01*
X1035Y29D01*
X1755Y29D01*
X1755Y39D01*
X1045Y39D01*
G37*
D02*
G36*
X0Y29D02*
X0Y24D01*
X1755Y24D01*
X1755Y29D01*
X0Y29D01*
G37*
D02*
G36*
X0Y29D02*
X0Y24D01*
X1755Y24D01*
X1755Y29D01*
X0Y29D01*
G37*
D02*
G36*
X0Y29D02*
X0Y24D01*
X1755Y24D01*
X1755Y29D01*
X0Y29D01*
G37*
D02*
G36*
X0Y24D02*
X0Y4D01*
X1755Y4D01*
X1755Y24D01*
X0Y24D01*
G37*
D02*
G04 End of Copper0*
M02*