G04 MADE WITH FRITZING*
G04 WWW.FRITZING.ORG*
G04 DOUBLE SIDED*
G04 HOLES PLATED*
G04 CONTOUR ON CENTER OF CONTOUR VECTOR*
%ASAXBY*%
%FSLAX23Y23*%
%MOIN*%
%OFA0B0*%
%SFA1.0B1.0*%
%ADD10C,0.075000*%
%ADD11C,0.062992*%
%ADD12R,0.075000X0.075000*%
%ADD13C,0.024000*%
%LNCOPPER1*%
G90*
G70*
G54D10*
X80Y809D03*
X1384Y749D03*
X473Y725D03*
X1454Y408D03*
X935Y743D03*
X1011Y96D03*
X755Y96D03*
X1011Y273D03*
X755Y273D03*
G54D11*
X1288Y108D03*
X1288Y206D03*
X1288Y408D03*
X1288Y506D03*
X1588Y108D03*
X1588Y206D03*
X1588Y408D03*
X1588Y506D03*
G54D10*
X1055Y473D03*
X755Y473D03*
X1055Y573D03*
X755Y573D03*
X1055Y673D03*
X755Y673D03*
X1055Y773D03*
X755Y773D03*
G54D11*
X1588Y708D03*
X1588Y806D03*
G54D10*
X355Y373D03*
X355Y773D03*
G54D12*
X1055Y473D03*
X355Y373D03*
G54D13*
X1052Y273D02*
X1288Y273D01*
D02*
X1288Y273D02*
X1288Y242D01*
D02*
X1324Y206D02*
X1551Y206D01*
D02*
X1324Y506D02*
X1346Y506D01*
D02*
X1346Y506D02*
X1346Y349D01*
D02*
X1346Y349D02*
X1011Y349D01*
D02*
X1011Y349D02*
X1011Y314D01*
D02*
X1346Y506D02*
X1551Y506D01*
D02*
X1551Y806D02*
X1529Y806D01*
D02*
X1529Y806D02*
X1529Y520D01*
D02*
X1529Y520D02*
X1346Y520D01*
D02*
X1346Y520D02*
X1346Y506D01*
D02*
X1346Y506D02*
X1346Y506D01*
D02*
X1251Y408D02*
X1119Y408D01*
D02*
X1119Y408D02*
X1119Y673D01*
D02*
X1119Y673D02*
X1096Y673D01*
D02*
X1096Y773D02*
X1288Y773D01*
D02*
X1288Y773D02*
X1288Y542D01*
D02*
X1251Y206D02*
X1229Y206D01*
D02*
X1229Y206D02*
X819Y209D01*
D02*
X819Y209D02*
X819Y338D01*
D02*
X819Y338D02*
X690Y338D01*
D02*
X690Y338D02*
X690Y309D01*
D02*
X690Y309D02*
X355Y309D01*
D02*
X355Y309D02*
X355Y332D01*
D02*
X355Y732D02*
X355Y473D01*
D02*
X355Y473D02*
X714Y473D01*
D02*
X796Y673D02*
X819Y673D01*
D02*
X819Y673D02*
X819Y865D01*
D02*
X819Y865D02*
X1646Y865D01*
D02*
X1646Y865D02*
X1646Y408D01*
D02*
X1646Y408D02*
X1624Y408D01*
D02*
X714Y773D02*
X690Y773D01*
D02*
X690Y773D02*
X690Y844D01*
D02*
X690Y844D02*
X290Y844D01*
D02*
X290Y844D02*
X290Y168D01*
D02*
X290Y168D02*
X1229Y166D01*
D02*
X1229Y166D02*
X1075Y166D01*
D02*
X1075Y166D02*
X1075Y49D01*
D02*
X1075Y49D02*
X1529Y49D01*
D02*
X1529Y49D02*
X1529Y108D01*
D02*
X1529Y108D02*
X1551Y108D01*
G36*
X0Y889D02*
X0Y29D01*
X730Y29D01*
X730Y34D01*
X720Y34D01*
X720Y39D01*
X715Y39D01*
X715Y44D01*
X710Y44D01*
X710Y49D01*
X705Y49D01*
X705Y54D01*
X700Y54D01*
X700Y59D01*
X695Y59D01*
X695Y69D01*
X690Y69D01*
X690Y79D01*
X685Y79D01*
X685Y114D01*
X690Y114D01*
X690Y124D01*
X275Y124D01*
X275Y129D01*
X265Y129D01*
X265Y134D01*
X255Y134D01*
X255Y144D01*
X250Y144D01*
X250Y154D01*
X245Y154D01*
X245Y859D01*
X250Y859D01*
X250Y869D01*
X255Y869D01*
X255Y879D01*
X265Y879D01*
X265Y884D01*
X275Y884D01*
X275Y889D01*
X0Y889D01*
G37*
D02*
G36*
X820Y124D02*
X820Y109D01*
X825Y109D01*
X825Y84D01*
X820Y84D01*
X820Y69D01*
X815Y69D01*
X815Y59D01*
X810Y59D01*
X810Y54D01*
X805Y54D01*
X805Y49D01*
X800Y49D01*
X800Y44D01*
X795Y44D01*
X795Y39D01*
X790Y39D01*
X790Y34D01*
X780Y34D01*
X780Y29D01*
X985Y29D01*
X985Y34D01*
X975Y34D01*
X975Y39D01*
X970Y39D01*
X970Y44D01*
X965Y44D01*
X965Y49D01*
X960Y49D01*
X960Y54D01*
X955Y54D01*
X955Y59D01*
X950Y59D01*
X950Y69D01*
X945Y69D01*
X945Y84D01*
X940Y84D01*
X940Y109D01*
X945Y109D01*
X945Y124D01*
X820Y124D01*
G37*
D02*
G36*
X0Y29D02*
X0Y24D01*
X1035Y24D01*
X1035Y29D01*
X0Y29D01*
G37*
D02*
G36*
X0Y29D02*
X0Y24D01*
X1035Y24D01*
X1035Y29D01*
X0Y29D01*
G37*
D02*
G36*
X0Y24D02*
X0Y4D01*
X1060Y4D01*
X1060Y9D01*
X1050Y9D01*
X1050Y14D01*
X1045Y14D01*
X1045Y19D01*
X1040Y19D01*
X1040Y24D01*
X0Y24D01*
G37*
D02*
G36*
X705Y889D02*
X705Y884D01*
X715Y884D01*
X715Y879D01*
X725Y879D01*
X725Y869D01*
X730Y869D01*
X730Y859D01*
X735Y859D01*
X735Y844D01*
X775Y844D01*
X775Y884D01*
X780Y884D01*
X780Y889D01*
X705Y889D01*
G37*
D02*
G36*
X1300Y819D02*
X1300Y814D01*
X1315Y814D01*
X1315Y809D01*
X1320Y809D01*
X1320Y804D01*
X1325Y804D01*
X1325Y794D01*
X1330Y794D01*
X1330Y564D01*
X1485Y564D01*
X1485Y819D01*
X1300Y819D01*
G37*
D02*
G36*
X420Y799D02*
X420Y789D01*
X425Y789D01*
X425Y759D01*
X420Y759D01*
X420Y744D01*
X415Y744D01*
X415Y739D01*
X410Y739D01*
X410Y729D01*
X405Y729D01*
X405Y724D01*
X400Y724D01*
X400Y519D01*
X705Y519D01*
X705Y529D01*
X700Y529D01*
X700Y534D01*
X695Y534D01*
X695Y544D01*
X690Y544D01*
X690Y554D01*
X685Y554D01*
X685Y589D01*
X690Y589D01*
X690Y604D01*
X695Y604D01*
X695Y609D01*
X700Y609D01*
X700Y619D01*
X705Y619D01*
X705Y629D01*
X700Y629D01*
X700Y634D01*
X695Y634D01*
X695Y644D01*
X690Y644D01*
X690Y654D01*
X685Y654D01*
X685Y689D01*
X690Y689D01*
X690Y704D01*
X695Y704D01*
X695Y709D01*
X700Y709D01*
X700Y719D01*
X705Y719D01*
X705Y729D01*
X675Y729D01*
X675Y734D01*
X665Y734D01*
X665Y739D01*
X655Y739D01*
X655Y749D01*
X650Y749D01*
X650Y759D01*
X645Y759D01*
X645Y799D01*
X420Y799D01*
G37*
D02*
G36*
X1105Y729D02*
X1105Y719D01*
X1130Y719D01*
X1130Y714D01*
X1145Y714D01*
X1145Y709D01*
X1150Y709D01*
X1150Y704D01*
X1155Y704D01*
X1155Y699D01*
X1160Y699D01*
X1160Y684D01*
X1165Y684D01*
X1165Y454D01*
X1250Y454D01*
X1250Y459D01*
X1245Y459D01*
X1245Y464D01*
X1240Y464D01*
X1240Y469D01*
X1235Y469D01*
X1235Y474D01*
X1230Y474D01*
X1230Y489D01*
X1225Y489D01*
X1225Y524D01*
X1230Y524D01*
X1230Y534D01*
X1235Y534D01*
X1235Y544D01*
X1240Y544D01*
X1240Y549D01*
X1245Y549D01*
X1245Y729D01*
X1105Y729D01*
G37*
D02*
G36*
X1685Y889D02*
X1685Y884D01*
X1690Y884D01*
X1690Y389D01*
X1685Y389D01*
X1685Y379D01*
X1680Y379D01*
X1680Y374D01*
X1675Y374D01*
X1675Y369D01*
X1665Y369D01*
X1665Y364D01*
X1630Y364D01*
X1630Y359D01*
X1625Y359D01*
X1625Y354D01*
X1615Y354D01*
X1615Y349D01*
X1605Y349D01*
X1605Y344D01*
X1755Y344D01*
X1755Y889D01*
X1685Y889D01*
G37*
D02*
G36*
X1390Y464D02*
X1390Y344D01*
X1570Y344D01*
X1570Y349D01*
X1560Y349D01*
X1560Y354D01*
X1550Y354D01*
X1550Y359D01*
X1545Y359D01*
X1545Y364D01*
X1540Y364D01*
X1540Y369D01*
X1535Y369D01*
X1535Y379D01*
X1530Y379D01*
X1530Y389D01*
X1525Y389D01*
X1525Y429D01*
X1530Y429D01*
X1530Y439D01*
X1535Y439D01*
X1535Y444D01*
X1540Y444D01*
X1540Y449D01*
X1545Y449D01*
X1545Y454D01*
X1550Y454D01*
X1550Y459D01*
X1545Y459D01*
X1545Y464D01*
X1390Y464D01*
G37*
D02*
G36*
X1390Y344D02*
X1390Y339D01*
X1755Y339D01*
X1755Y344D01*
X1390Y344D01*
G37*
D02*
G36*
X1390Y344D02*
X1390Y339D01*
X1755Y339D01*
X1755Y344D01*
X1390Y344D01*
G37*
D02*
G36*
X1390Y339D02*
X1390Y329D01*
X1385Y329D01*
X1385Y324D01*
X1380Y324D01*
X1380Y314D01*
X1370Y314D01*
X1370Y309D01*
X1360Y309D01*
X1360Y304D01*
X1325Y304D01*
X1325Y294D01*
X1330Y294D01*
X1330Y269D01*
X1605Y269D01*
X1605Y264D01*
X1615Y264D01*
X1615Y259D01*
X1625Y259D01*
X1625Y254D01*
X1630Y254D01*
X1630Y249D01*
X1635Y249D01*
X1635Y244D01*
X1640Y244D01*
X1640Y239D01*
X1645Y239D01*
X1645Y224D01*
X1650Y224D01*
X1650Y184D01*
X1645Y184D01*
X1645Y174D01*
X1640Y174D01*
X1640Y169D01*
X1635Y169D01*
X1635Y164D01*
X1630Y164D01*
X1630Y159D01*
X1625Y159D01*
X1625Y154D01*
X1630Y154D01*
X1630Y149D01*
X1635Y149D01*
X1635Y144D01*
X1640Y144D01*
X1640Y139D01*
X1645Y139D01*
X1645Y129D01*
X1650Y129D01*
X1650Y89D01*
X1645Y89D01*
X1645Y79D01*
X1640Y79D01*
X1640Y69D01*
X1635Y69D01*
X1635Y64D01*
X1630Y64D01*
X1630Y59D01*
X1625Y59D01*
X1625Y54D01*
X1615Y54D01*
X1615Y49D01*
X1605Y49D01*
X1605Y44D01*
X1575Y44D01*
X1575Y39D01*
X1570Y39D01*
X1570Y24D01*
X1565Y24D01*
X1565Y19D01*
X1560Y19D01*
X1560Y14D01*
X1555Y14D01*
X1555Y9D01*
X1540Y9D01*
X1540Y4D01*
X1755Y4D01*
X1755Y339D01*
X1390Y339D01*
G37*
D02*
G36*
X1330Y269D02*
X1330Y249D01*
X1545Y249D01*
X1545Y254D01*
X1550Y254D01*
X1550Y259D01*
X1560Y259D01*
X1560Y264D01*
X1570Y264D01*
X1570Y269D01*
X1330Y269D01*
G37*
D02*
G36*
X865Y819D02*
X865Y664D01*
X860Y664D01*
X860Y649D01*
X855Y649D01*
X855Y644D01*
X850Y644D01*
X850Y639D01*
X845Y639D01*
X845Y634D01*
X835Y634D01*
X835Y629D01*
X805Y629D01*
X805Y614D01*
X810Y614D01*
X810Y609D01*
X815Y609D01*
X815Y599D01*
X820Y599D01*
X820Y589D01*
X825Y589D01*
X825Y559D01*
X820Y559D01*
X820Y544D01*
X815Y544D01*
X815Y539D01*
X810Y539D01*
X810Y529D01*
X805Y529D01*
X805Y514D01*
X810Y514D01*
X810Y509D01*
X815Y509D01*
X815Y499D01*
X820Y499D01*
X820Y489D01*
X825Y489D01*
X825Y459D01*
X820Y459D01*
X820Y444D01*
X815Y444D01*
X815Y439D01*
X810Y439D01*
X810Y429D01*
X805Y429D01*
X805Y424D01*
X800Y424D01*
X800Y419D01*
X790Y419D01*
X790Y414D01*
X785Y414D01*
X785Y409D01*
X770Y409D01*
X770Y404D01*
X985Y404D01*
X985Y539D01*
X990Y539D01*
X990Y554D01*
X985Y554D01*
X985Y589D01*
X990Y589D01*
X990Y604D01*
X995Y604D01*
X995Y609D01*
X1000Y609D01*
X1000Y619D01*
X1005Y619D01*
X1005Y629D01*
X1000Y629D01*
X1000Y634D01*
X995Y634D01*
X995Y644D01*
X990Y644D01*
X990Y654D01*
X985Y654D01*
X985Y689D01*
X990Y689D01*
X990Y704D01*
X995Y704D01*
X995Y709D01*
X1000Y709D01*
X1000Y719D01*
X1005Y719D01*
X1005Y729D01*
X1000Y729D01*
X1000Y734D01*
X995Y734D01*
X995Y744D01*
X990Y744D01*
X990Y754D01*
X985Y754D01*
X985Y789D01*
X990Y789D01*
X990Y804D01*
X995Y804D01*
X995Y809D01*
X1000Y809D01*
X1000Y819D01*
X865Y819D01*
G37*
D02*
G36*
X425Y429D02*
X425Y404D01*
X735Y404D01*
X735Y409D01*
X725Y409D01*
X725Y414D01*
X715Y414D01*
X715Y419D01*
X710Y419D01*
X710Y424D01*
X705Y424D01*
X705Y429D01*
X425Y429D01*
G37*
D02*
G36*
X425Y404D02*
X425Y399D01*
X1075Y399D01*
X1075Y404D01*
X425Y404D01*
G37*
D02*
G36*
X425Y404D02*
X425Y399D01*
X1075Y399D01*
X1075Y404D01*
X425Y404D01*
G37*
D02*
G36*
X425Y399D02*
X425Y384D01*
X830Y384D01*
X830Y379D01*
X845Y379D01*
X845Y374D01*
X850Y374D01*
X850Y369D01*
X855Y369D01*
X855Y364D01*
X860Y364D01*
X860Y349D01*
X865Y349D01*
X865Y254D01*
X945Y254D01*
X945Y259D01*
X940Y259D01*
X940Y289D01*
X945Y289D01*
X945Y299D01*
X950Y299D01*
X950Y309D01*
X955Y309D01*
X955Y314D01*
X960Y314D01*
X960Y324D01*
X965Y324D01*
X965Y364D01*
X970Y364D01*
X970Y374D01*
X975Y374D01*
X975Y379D01*
X980Y379D01*
X980Y384D01*
X985Y384D01*
X985Y389D01*
X995Y389D01*
X995Y394D01*
X1075Y394D01*
X1075Y399D01*
X425Y399D01*
G37*
D02*
G36*
X425Y384D02*
X425Y354D01*
X650Y354D01*
X650Y364D01*
X655Y364D01*
X655Y369D01*
X660Y369D01*
X660Y374D01*
X665Y374D01*
X665Y379D01*
X680Y379D01*
X680Y384D01*
X425Y384D01*
G37*
D02*
G36*
X335Y264D02*
X335Y214D01*
X715Y214D01*
X715Y219D01*
X710Y219D01*
X710Y224D01*
X705Y224D01*
X705Y229D01*
X700Y229D01*
X700Y234D01*
X695Y234D01*
X695Y244D01*
X690Y244D01*
X690Y254D01*
X685Y254D01*
X685Y264D01*
X335Y264D01*
G37*
D02*
G36*
X1330Y164D02*
X1330Y159D01*
X1325Y159D01*
X1325Y154D01*
X1330Y154D01*
X1330Y149D01*
X1335Y149D01*
X1335Y144D01*
X1340Y144D01*
X1340Y139D01*
X1345Y139D01*
X1345Y129D01*
X1350Y129D01*
X1350Y94D01*
X1485Y94D01*
X1485Y124D01*
X1490Y124D01*
X1490Y134D01*
X1495Y134D01*
X1495Y139D01*
X1500Y139D01*
X1500Y144D01*
X1505Y144D01*
X1505Y149D01*
X1520Y149D01*
X1520Y154D01*
X1550Y154D01*
X1550Y159D01*
X1545Y159D01*
X1545Y164D01*
X1330Y164D01*
G37*
D02*
G36*
X1120Y124D02*
X1120Y94D01*
X1225Y94D01*
X1225Y124D01*
X1120Y124D01*
G37*
D02*
G04 End of Copper1*
M02*