G04 MADE WITH FRITZING*
G04 WWW.FRITZING.ORG*
G04 DOUBLE SIDED*
G04 HOLES PLATED*
G04 CONTOUR ON CENTER OF CONTOUR VECTOR*
%ASAXBY*%
%FSLAX23Y23*%
%MOIN*%
%OFA0B0*%
%SFA1.0B1.0*%
%ADD10C,0.610000*%
%ADD11C,0.010000*%
%ADD12C,0.005000*%
%ADD13C,0.007874*%
%LNSILK1*%
G90*
G70*
G54D10*
X355Y373D03*
G54D11*
X1001Y224D02*
X1001Y145D01*
D02*
X804Y303D02*
X971Y303D01*
D02*
X804Y67D02*
X971Y67D01*
D02*
X764Y224D02*
X764Y145D01*
D02*
X883Y204D02*
X883Y165D01*
D02*
X902Y185D02*
X863Y185D01*
D02*
X1105Y423D02*
X1105Y823D01*
D02*
X1105Y823D02*
X705Y823D01*
D02*
X705Y823D02*
X705Y423D01*
D02*
X1105Y423D02*
X955Y423D01*
D02*
X855Y423D02*
X705Y423D01*
D02*
X405Y323D02*
X405Y823D01*
D02*
X405Y823D02*
X305Y823D01*
D02*
X305Y823D02*
X305Y323D01*
D02*
X305Y323D02*
X405Y323D01*
G54D12*
D02*
X405Y823D02*
X305Y823D01*
G36*
X4Y889D02*
X4Y885D01*
X0Y885D01*
X0Y881D01*
X1744Y881D01*
X1744Y12D01*
X1752Y12D01*
X1752Y885D01*
X1748Y885D01*
X1748Y889D01*
X4Y889D01*
G37*
D02*
G36*
X0Y881D02*
X0Y12D01*
X8Y12D01*
X8Y881D01*
X0Y881D01*
G37*
D02*
G36*
X0Y12D02*
X0Y11D01*
X1752Y11D01*
X1752Y12D01*
X0Y12D01*
G37*
D02*
G36*
X0Y12D02*
X0Y11D01*
X1752Y11D01*
X1752Y12D01*
X0Y12D01*
G37*
D02*
G36*
X0Y11D02*
X0Y8D01*
X4Y8D01*
X4Y4D01*
X1748Y4D01*
X1748Y8D01*
X1752Y8D01*
X1752Y11D01*
X0Y11D01*
G37*
D02*
G36*
X1514Y855D02*
X1514Y854D01*
X1513Y854D01*
X1513Y853D01*
X1511Y853D01*
X1511Y852D01*
X1510Y852D01*
X1510Y851D01*
X1509Y851D01*
X1509Y850D01*
X1508Y850D01*
X1508Y849D01*
X1507Y849D01*
X1507Y848D01*
X1505Y848D01*
X1505Y847D01*
X1504Y847D01*
X1504Y846D01*
X1503Y846D01*
X1503Y845D01*
X1502Y845D01*
X1502Y844D01*
X1501Y844D01*
X1501Y843D01*
X1500Y843D01*
X1500Y842D01*
X1499Y842D01*
X1499Y841D01*
X1498Y841D01*
X1498Y840D01*
X1497Y840D01*
X1497Y839D01*
X1496Y839D01*
X1496Y837D01*
X1495Y837D01*
X1495Y836D01*
X1494Y836D01*
X1494Y835D01*
X1493Y835D01*
X1493Y834D01*
X1492Y834D01*
X1492Y833D01*
X1491Y833D01*
X1491Y831D01*
X1490Y831D01*
X1490Y830D01*
X1489Y830D01*
X1489Y829D01*
X1488Y829D01*
X1488Y827D01*
X1487Y827D01*
X1487Y826D01*
X1486Y826D01*
X1486Y824D01*
X1485Y824D01*
X1485Y823D01*
X1484Y823D01*
X1484Y821D01*
X1483Y821D01*
X1483Y819D01*
X1482Y819D01*
X1482Y818D01*
X1481Y818D01*
X1481Y816D01*
X1480Y816D01*
X1480Y814D01*
X1479Y814D01*
X1479Y812D01*
X1478Y812D01*
X1478Y810D01*
X1477Y810D01*
X1477Y808D01*
X1476Y808D01*
X1476Y806D01*
X1475Y806D01*
X1475Y803D01*
X1474Y803D01*
X1474Y801D01*
X1473Y801D01*
X1473Y798D01*
X1472Y798D01*
X1472Y795D01*
X1471Y795D01*
X1471Y792D01*
X1470Y792D01*
X1470Y788D01*
X1469Y788D01*
X1469Y784D01*
X1468Y784D01*
X1468Y779D01*
X1467Y779D01*
X1467Y772D01*
X1466Y772D01*
X1466Y743D01*
X1467Y743D01*
X1467Y736D01*
X1468Y736D01*
X1468Y731D01*
X1469Y731D01*
X1469Y727D01*
X1470Y727D01*
X1470Y723D01*
X1471Y723D01*
X1471Y720D01*
X1472Y720D01*
X1472Y717D01*
X1473Y717D01*
X1473Y714D01*
X1474Y714D01*
X1474Y711D01*
X1475Y711D01*
X1475Y709D01*
X1476Y709D01*
X1476Y707D01*
X1477Y707D01*
X1477Y705D01*
X1478Y705D01*
X1478Y703D01*
X1479Y703D01*
X1479Y701D01*
X1480Y701D01*
X1480Y699D01*
X1481Y699D01*
X1481Y697D01*
X1482Y697D01*
X1482Y695D01*
X1483Y695D01*
X1483Y694D01*
X1484Y694D01*
X1484Y692D01*
X1485Y692D01*
X1485Y690D01*
X1486Y690D01*
X1486Y689D01*
X1487Y689D01*
X1487Y687D01*
X1488Y687D01*
X1488Y686D01*
X1489Y686D01*
X1489Y685D01*
X1490Y685D01*
X1490Y683D01*
X1491Y683D01*
X1491Y682D01*
X1492Y682D01*
X1492Y681D01*
X1493Y681D01*
X1493Y679D01*
X1494Y679D01*
X1494Y678D01*
X1495Y678D01*
X1495Y677D01*
X1496Y677D01*
X1496Y676D01*
X1497Y676D01*
X1497Y675D01*
X1498Y675D01*
X1498Y674D01*
X1499Y674D01*
X1499Y673D01*
X1500Y673D01*
X1500Y672D01*
X1501Y672D01*
X1501Y671D01*
X1502Y671D01*
X1502Y670D01*
X1503Y670D01*
X1503Y669D01*
X1504Y669D01*
X1504Y668D01*
X1505Y668D01*
X1505Y667D01*
X1506Y667D01*
X1506Y666D01*
X1507Y666D01*
X1507Y665D01*
X1508Y665D01*
X1508Y664D01*
X1509Y664D01*
X1509Y663D01*
X1511Y663D01*
X1511Y662D01*
X1512Y662D01*
X1512Y661D01*
X1513Y661D01*
X1513Y660D01*
X1515Y660D01*
X1515Y659D01*
X1516Y659D01*
X1516Y658D01*
X1517Y658D01*
X1517Y657D01*
X1519Y657D01*
X1519Y656D01*
X1520Y656D01*
X1520Y655D01*
X1522Y655D01*
X1522Y654D01*
X1523Y654D01*
X1523Y653D01*
X1525Y653D01*
X1525Y652D01*
X1527Y652D01*
X1527Y651D01*
X1529Y651D01*
X1529Y650D01*
X1531Y650D01*
X1531Y649D01*
X1532Y649D01*
X1532Y648D01*
X1534Y648D01*
X1534Y647D01*
X1537Y647D01*
X1537Y646D01*
X1539Y646D01*
X1539Y645D01*
X1541Y645D01*
X1541Y644D01*
X1544Y644D01*
X1544Y643D01*
X1573Y643D01*
X1573Y644D01*
X1567Y644D01*
X1567Y645D01*
X1562Y645D01*
X1562Y646D01*
X1558Y646D01*
X1558Y647D01*
X1554Y647D01*
X1554Y648D01*
X1551Y648D01*
X1551Y649D01*
X1548Y649D01*
X1548Y650D01*
X1546Y650D01*
X1546Y651D01*
X1543Y651D01*
X1543Y652D01*
X1541Y652D01*
X1541Y653D01*
X1539Y653D01*
X1539Y654D01*
X1537Y654D01*
X1537Y655D01*
X1535Y655D01*
X1535Y656D01*
X1533Y656D01*
X1533Y657D01*
X1531Y657D01*
X1531Y658D01*
X1529Y658D01*
X1529Y659D01*
X1528Y659D01*
X1528Y660D01*
X1526Y660D01*
X1526Y661D01*
X1525Y661D01*
X1525Y662D01*
X1523Y662D01*
X1523Y663D01*
X1522Y663D01*
X1522Y664D01*
X1520Y664D01*
X1520Y665D01*
X1519Y665D01*
X1519Y666D01*
X1518Y666D01*
X1518Y667D01*
X1516Y667D01*
X1516Y668D01*
X1515Y668D01*
X1515Y669D01*
X1514Y669D01*
X1514Y670D01*
X1513Y670D01*
X1513Y671D01*
X1512Y671D01*
X1512Y672D01*
X1510Y672D01*
X1510Y673D01*
X1509Y673D01*
X1509Y674D01*
X1508Y674D01*
X1508Y675D01*
X1507Y675D01*
X1507Y676D01*
X1506Y676D01*
X1506Y677D01*
X1505Y677D01*
X1505Y678D01*
X1504Y678D01*
X1504Y679D01*
X1503Y679D01*
X1503Y680D01*
X1502Y680D01*
X1502Y681D01*
X1501Y681D01*
X1501Y683D01*
X1500Y683D01*
X1500Y684D01*
X1499Y684D01*
X1499Y685D01*
X1498Y685D01*
X1498Y686D01*
X1497Y686D01*
X1497Y687D01*
X1496Y687D01*
X1496Y689D01*
X1495Y689D01*
X1495Y690D01*
X1494Y690D01*
X1494Y691D01*
X1493Y691D01*
X1493Y693D01*
X1492Y693D01*
X1492Y694D01*
X1491Y694D01*
X1491Y696D01*
X1490Y696D01*
X1490Y697D01*
X1489Y697D01*
X1489Y699D01*
X1488Y699D01*
X1488Y701D01*
X1487Y701D01*
X1487Y703D01*
X1486Y703D01*
X1486Y704D01*
X1485Y704D01*
X1485Y706D01*
X1484Y706D01*
X1484Y708D01*
X1483Y708D01*
X1483Y710D01*
X1482Y710D01*
X1482Y713D01*
X1481Y713D01*
X1481Y715D01*
X1480Y715D01*
X1480Y718D01*
X1479Y718D01*
X1479Y721D01*
X1478Y721D01*
X1478Y724D01*
X1477Y724D01*
X1477Y727D01*
X1476Y727D01*
X1476Y731D01*
X1475Y731D01*
X1475Y736D01*
X1474Y736D01*
X1474Y742D01*
X1473Y742D01*
X1473Y756D01*
X1472Y756D01*
X1472Y759D01*
X1473Y759D01*
X1473Y772D01*
X1474Y772D01*
X1474Y778D01*
X1475Y778D01*
X1475Y783D01*
X1476Y783D01*
X1476Y787D01*
X1477Y787D01*
X1477Y790D01*
X1478Y790D01*
X1478Y793D01*
X1479Y793D01*
X1479Y796D01*
X1480Y796D01*
X1480Y799D01*
X1481Y799D01*
X1481Y801D01*
X1482Y801D01*
X1482Y803D01*
X1483Y803D01*
X1483Y806D01*
X1484Y806D01*
X1484Y808D01*
X1485Y808D01*
X1485Y810D01*
X1486Y810D01*
X1486Y812D01*
X1487Y812D01*
X1487Y813D01*
X1488Y813D01*
X1488Y815D01*
X1489Y815D01*
X1489Y817D01*
X1490Y817D01*
X1490Y818D01*
X1491Y818D01*
X1491Y820D01*
X1492Y820D01*
X1492Y821D01*
X1493Y821D01*
X1493Y823D01*
X1494Y823D01*
X1494Y824D01*
X1495Y824D01*
X1495Y826D01*
X1496Y826D01*
X1496Y827D01*
X1497Y827D01*
X1497Y828D01*
X1498Y828D01*
X1498Y829D01*
X1499Y829D01*
X1499Y831D01*
X1500Y831D01*
X1500Y832D01*
X1501Y832D01*
X1501Y833D01*
X1502Y833D01*
X1502Y834D01*
X1503Y834D01*
X1503Y835D01*
X1504Y835D01*
X1504Y836D01*
X1505Y836D01*
X1505Y837D01*
X1506Y837D01*
X1506Y838D01*
X1507Y838D01*
X1507Y839D01*
X1508Y839D01*
X1508Y840D01*
X1509Y840D01*
X1509Y841D01*
X1510Y841D01*
X1510Y842D01*
X1511Y842D01*
X1511Y843D01*
X1512Y843D01*
X1512Y844D01*
X1513Y844D01*
X1513Y845D01*
X1515Y845D01*
X1515Y846D01*
X1516Y846D01*
X1516Y847D01*
X1517Y847D01*
X1517Y848D01*
X1518Y848D01*
X1518Y849D01*
X1519Y849D01*
X1519Y850D01*
X1520Y850D01*
X1520Y854D01*
X1519Y854D01*
X1519Y855D01*
X1514Y855D01*
G37*
D02*
G36*
X1656Y855D02*
X1656Y854D01*
X1655Y854D01*
X1655Y849D01*
X1656Y849D01*
X1656Y848D01*
X1657Y848D01*
X1657Y847D01*
X1658Y847D01*
X1658Y846D01*
X1660Y846D01*
X1660Y845D01*
X1661Y845D01*
X1661Y844D01*
X1662Y844D01*
X1662Y843D01*
X1663Y843D01*
X1663Y842D01*
X1664Y842D01*
X1664Y841D01*
X1665Y841D01*
X1665Y840D01*
X1666Y840D01*
X1666Y839D01*
X1667Y839D01*
X1667Y838D01*
X1669Y838D01*
X1669Y837D01*
X1670Y837D01*
X1670Y835D01*
X1671Y835D01*
X1671Y834D01*
X1672Y834D01*
X1672Y833D01*
X1673Y833D01*
X1673Y832D01*
X1674Y832D01*
X1674Y831D01*
X1675Y831D01*
X1675Y830D01*
X1676Y830D01*
X1676Y829D01*
X1677Y829D01*
X1677Y827D01*
X1678Y827D01*
X1678Y826D01*
X1679Y826D01*
X1679Y825D01*
X1680Y825D01*
X1680Y823D01*
X1681Y823D01*
X1681Y822D01*
X1682Y822D01*
X1682Y820D01*
X1683Y820D01*
X1683Y819D01*
X1684Y819D01*
X1684Y817D01*
X1685Y817D01*
X1685Y816D01*
X1686Y816D01*
X1686Y814D01*
X1687Y814D01*
X1687Y812D01*
X1688Y812D01*
X1688Y810D01*
X1689Y810D01*
X1689Y809D01*
X1690Y809D01*
X1690Y807D01*
X1691Y807D01*
X1691Y804D01*
X1692Y804D01*
X1692Y802D01*
X1693Y802D01*
X1693Y800D01*
X1694Y800D01*
X1694Y797D01*
X1695Y797D01*
X1695Y795D01*
X1696Y795D01*
X1696Y791D01*
X1697Y791D01*
X1697Y788D01*
X1698Y788D01*
X1698Y784D01*
X1699Y784D01*
X1699Y780D01*
X1700Y780D01*
X1700Y774D01*
X1701Y774D01*
X1701Y765D01*
X1702Y765D01*
X1702Y750D01*
X1701Y750D01*
X1701Y741D01*
X1700Y741D01*
X1700Y735D01*
X1699Y735D01*
X1699Y730D01*
X1698Y730D01*
X1698Y727D01*
X1697Y727D01*
X1697Y723D01*
X1696Y723D01*
X1696Y720D01*
X1695Y720D01*
X1695Y718D01*
X1694Y718D01*
X1694Y715D01*
X1693Y715D01*
X1693Y713D01*
X1692Y713D01*
X1692Y710D01*
X1691Y710D01*
X1691Y708D01*
X1690Y708D01*
X1690Y706D01*
X1689Y706D01*
X1689Y704D01*
X1688Y704D01*
X1688Y702D01*
X1687Y702D01*
X1687Y701D01*
X1686Y701D01*
X1686Y699D01*
X1685Y699D01*
X1685Y697D01*
X1684Y697D01*
X1684Y696D01*
X1683Y696D01*
X1683Y694D01*
X1682Y694D01*
X1682Y693D01*
X1681Y693D01*
X1681Y691D01*
X1680Y691D01*
X1680Y690D01*
X1679Y690D01*
X1679Y689D01*
X1678Y689D01*
X1678Y687D01*
X1677Y687D01*
X1677Y686D01*
X1676Y686D01*
X1676Y685D01*
X1675Y685D01*
X1675Y683D01*
X1674Y683D01*
X1674Y682D01*
X1673Y682D01*
X1673Y681D01*
X1672Y681D01*
X1672Y680D01*
X1671Y680D01*
X1671Y679D01*
X1670Y679D01*
X1670Y678D01*
X1669Y678D01*
X1669Y677D01*
X1668Y677D01*
X1668Y676D01*
X1667Y676D01*
X1667Y675D01*
X1666Y675D01*
X1666Y674D01*
X1665Y674D01*
X1665Y673D01*
X1664Y673D01*
X1664Y672D01*
X1663Y672D01*
X1663Y671D01*
X1662Y671D01*
X1662Y670D01*
X1661Y670D01*
X1661Y669D01*
X1659Y669D01*
X1659Y668D01*
X1658Y668D01*
X1658Y667D01*
X1657Y667D01*
X1657Y666D01*
X1655Y666D01*
X1655Y665D01*
X1654Y665D01*
X1654Y664D01*
X1653Y664D01*
X1653Y663D01*
X1651Y663D01*
X1651Y662D01*
X1650Y662D01*
X1650Y661D01*
X1648Y661D01*
X1648Y660D01*
X1647Y660D01*
X1647Y659D01*
X1645Y659D01*
X1645Y658D01*
X1643Y658D01*
X1643Y657D01*
X1642Y657D01*
X1642Y656D01*
X1640Y656D01*
X1640Y655D01*
X1638Y655D01*
X1638Y654D01*
X1636Y654D01*
X1636Y653D01*
X1634Y653D01*
X1634Y652D01*
X1631Y652D01*
X1631Y651D01*
X1629Y651D01*
X1629Y650D01*
X1626Y650D01*
X1626Y649D01*
X1623Y649D01*
X1623Y648D01*
X1620Y648D01*
X1620Y647D01*
X1617Y647D01*
X1617Y646D01*
X1613Y646D01*
X1613Y645D01*
X1608Y645D01*
X1608Y644D01*
X1601Y644D01*
X1601Y643D01*
X1630Y643D01*
X1630Y644D01*
X1632Y644D01*
X1632Y645D01*
X1635Y645D01*
X1635Y646D01*
X1637Y646D01*
X1637Y647D01*
X1639Y647D01*
X1639Y648D01*
X1641Y648D01*
X1641Y649D01*
X1643Y649D01*
X1643Y650D01*
X1645Y650D01*
X1645Y651D01*
X1647Y651D01*
X1647Y652D01*
X1649Y652D01*
X1649Y653D01*
X1651Y653D01*
X1651Y654D01*
X1652Y654D01*
X1652Y655D01*
X1654Y655D01*
X1654Y656D01*
X1655Y656D01*
X1655Y657D01*
X1657Y657D01*
X1657Y658D01*
X1658Y658D01*
X1658Y659D01*
X1660Y659D01*
X1660Y660D01*
X1661Y660D01*
X1661Y661D01*
X1662Y661D01*
X1662Y662D01*
X1664Y662D01*
X1664Y663D01*
X1665Y663D01*
X1665Y664D01*
X1666Y664D01*
X1666Y665D01*
X1667Y665D01*
X1667Y666D01*
X1668Y666D01*
X1668Y667D01*
X1669Y667D01*
X1669Y668D01*
X1670Y668D01*
X1670Y669D01*
X1672Y669D01*
X1672Y670D01*
X1673Y670D01*
X1673Y671D01*
X1674Y671D01*
X1674Y672D01*
X1675Y672D01*
X1675Y673D01*
X1676Y673D01*
X1676Y675D01*
X1677Y675D01*
X1677Y676D01*
X1678Y676D01*
X1678Y677D01*
X1679Y677D01*
X1679Y678D01*
X1680Y678D01*
X1680Y679D01*
X1681Y679D01*
X1681Y680D01*
X1682Y680D01*
X1682Y682D01*
X1683Y682D01*
X1683Y683D01*
X1684Y683D01*
X1684Y684D01*
X1685Y684D01*
X1685Y686D01*
X1686Y686D01*
X1686Y687D01*
X1687Y687D01*
X1687Y688D01*
X1688Y688D01*
X1688Y690D01*
X1689Y690D01*
X1689Y691D01*
X1690Y691D01*
X1690Y693D01*
X1691Y693D01*
X1691Y695D01*
X1692Y695D01*
X1692Y696D01*
X1693Y696D01*
X1693Y698D01*
X1694Y698D01*
X1694Y700D01*
X1695Y700D01*
X1695Y702D01*
X1696Y702D01*
X1696Y704D01*
X1697Y704D01*
X1697Y706D01*
X1698Y706D01*
X1698Y708D01*
X1699Y708D01*
X1699Y710D01*
X1700Y710D01*
X1700Y713D01*
X1701Y713D01*
X1701Y716D01*
X1702Y716D01*
X1702Y719D01*
X1703Y719D01*
X1703Y722D01*
X1704Y722D01*
X1704Y725D01*
X1705Y725D01*
X1705Y729D01*
X1706Y729D01*
X1706Y734D01*
X1707Y734D01*
X1707Y741D01*
X1708Y741D01*
X1708Y752D01*
X1709Y752D01*
X1709Y762D01*
X1708Y762D01*
X1708Y773D01*
X1707Y773D01*
X1707Y780D01*
X1706Y780D01*
X1706Y784D01*
X1705Y784D01*
X1705Y788D01*
X1704Y788D01*
X1704Y792D01*
X1703Y792D01*
X1703Y795D01*
X1702Y795D01*
X1702Y798D01*
X1701Y798D01*
X1701Y801D01*
X1700Y801D01*
X1700Y803D01*
X1699Y803D01*
X1699Y806D01*
X1698Y806D01*
X1698Y808D01*
X1697Y808D01*
X1697Y810D01*
X1696Y810D01*
X1696Y812D01*
X1695Y812D01*
X1695Y814D01*
X1694Y814D01*
X1694Y816D01*
X1693Y816D01*
X1693Y818D01*
X1692Y818D01*
X1692Y820D01*
X1691Y820D01*
X1691Y821D01*
X1690Y821D01*
X1690Y823D01*
X1689Y823D01*
X1689Y824D01*
X1688Y824D01*
X1688Y826D01*
X1687Y826D01*
X1687Y827D01*
X1686Y827D01*
X1686Y829D01*
X1685Y829D01*
X1685Y830D01*
X1684Y830D01*
X1684Y831D01*
X1683Y831D01*
X1683Y833D01*
X1682Y833D01*
X1682Y834D01*
X1681Y834D01*
X1681Y835D01*
X1680Y835D01*
X1680Y836D01*
X1679Y836D01*
X1679Y838D01*
X1678Y838D01*
X1678Y839D01*
X1677Y839D01*
X1677Y840D01*
X1676Y840D01*
X1676Y841D01*
X1675Y841D01*
X1675Y842D01*
X1674Y842D01*
X1674Y843D01*
X1673Y843D01*
X1673Y844D01*
X1672Y844D01*
X1672Y845D01*
X1671Y845D01*
X1671Y846D01*
X1670Y846D01*
X1670Y847D01*
X1669Y847D01*
X1669Y848D01*
X1668Y848D01*
X1668Y849D01*
X1666Y849D01*
X1666Y850D01*
X1665Y850D01*
X1665Y851D01*
X1664Y851D01*
X1664Y852D01*
X1663Y852D01*
X1663Y853D01*
X1662Y853D01*
X1662Y854D01*
X1660Y854D01*
X1660Y855D01*
X1656Y855D01*
G37*
D02*
G36*
X1547Y643D02*
X1547Y642D01*
X1627Y642D01*
X1627Y643D01*
X1547Y643D01*
G37*
D02*
G36*
X1547Y643D02*
X1547Y642D01*
X1627Y642D01*
X1627Y643D01*
X1547Y643D01*
G37*
D02*
G36*
X1550Y642D02*
X1550Y641D01*
X1553Y641D01*
X1553Y640D01*
X1557Y640D01*
X1557Y639D01*
X1561Y639D01*
X1561Y638D01*
X1566Y638D01*
X1566Y637D01*
X1574Y637D01*
X1574Y636D01*
X1600Y636D01*
X1600Y637D01*
X1607Y637D01*
X1607Y638D01*
X1612Y638D01*
X1612Y639D01*
X1617Y639D01*
X1617Y640D01*
X1621Y640D01*
X1621Y641D01*
X1624Y641D01*
X1624Y642D01*
X1550Y642D01*
G37*
D02*
G36*
X1215Y556D02*
X1215Y555D01*
X1217Y555D01*
X1217Y556D01*
X1215Y556D01*
G37*
D02*
G36*
X1214Y555D02*
X1214Y554D01*
X1212Y554D01*
X1212Y553D01*
X1211Y553D01*
X1211Y552D01*
X1210Y552D01*
X1210Y551D01*
X1209Y551D01*
X1209Y550D01*
X1207Y550D01*
X1207Y549D01*
X1206Y549D01*
X1206Y548D01*
X1205Y548D01*
X1205Y547D01*
X1204Y547D01*
X1204Y546D01*
X1203Y546D01*
X1203Y545D01*
X1202Y545D01*
X1202Y544D01*
X1201Y544D01*
X1201Y543D01*
X1200Y543D01*
X1200Y542D01*
X1199Y542D01*
X1199Y541D01*
X1198Y541D01*
X1198Y540D01*
X1197Y540D01*
X1197Y539D01*
X1196Y539D01*
X1196Y538D01*
X1195Y538D01*
X1195Y536D01*
X1194Y536D01*
X1194Y535D01*
X1193Y535D01*
X1193Y534D01*
X1192Y534D01*
X1192Y533D01*
X1191Y533D01*
X1191Y531D01*
X1190Y531D01*
X1190Y530D01*
X1189Y530D01*
X1189Y529D01*
X1188Y529D01*
X1188Y527D01*
X1187Y527D01*
X1187Y526D01*
X1186Y526D01*
X1186Y524D01*
X1185Y524D01*
X1185Y523D01*
X1184Y523D01*
X1184Y521D01*
X1183Y521D01*
X1183Y520D01*
X1182Y520D01*
X1182Y518D01*
X1181Y518D01*
X1181Y516D01*
X1180Y516D01*
X1180Y514D01*
X1179Y514D01*
X1179Y512D01*
X1178Y512D01*
X1178Y510D01*
X1177Y510D01*
X1177Y508D01*
X1176Y508D01*
X1176Y506D01*
X1175Y506D01*
X1175Y503D01*
X1174Y503D01*
X1174Y501D01*
X1173Y501D01*
X1173Y498D01*
X1172Y498D01*
X1172Y495D01*
X1171Y495D01*
X1171Y492D01*
X1170Y492D01*
X1170Y488D01*
X1169Y488D01*
X1169Y484D01*
X1168Y484D01*
X1168Y478D01*
X1167Y478D01*
X1167Y471D01*
X1166Y471D01*
X1166Y444D01*
X1167Y444D01*
X1167Y437D01*
X1168Y437D01*
X1168Y432D01*
X1169Y432D01*
X1169Y428D01*
X1170Y428D01*
X1170Y424D01*
X1171Y424D01*
X1171Y421D01*
X1172Y421D01*
X1172Y417D01*
X1173Y417D01*
X1173Y415D01*
X1174Y415D01*
X1174Y412D01*
X1175Y412D01*
X1175Y410D01*
X1176Y410D01*
X1176Y407D01*
X1177Y407D01*
X1177Y405D01*
X1178Y405D01*
X1178Y403D01*
X1179Y403D01*
X1179Y401D01*
X1180Y401D01*
X1180Y399D01*
X1181Y399D01*
X1181Y397D01*
X1182Y397D01*
X1182Y396D01*
X1183Y396D01*
X1183Y394D01*
X1184Y394D01*
X1184Y392D01*
X1185Y392D01*
X1185Y391D01*
X1186Y391D01*
X1186Y389D01*
X1187Y389D01*
X1187Y388D01*
X1188Y388D01*
X1188Y386D01*
X1189Y386D01*
X1189Y385D01*
X1190Y385D01*
X1190Y384D01*
X1191Y384D01*
X1191Y382D01*
X1192Y382D01*
X1192Y381D01*
X1193Y381D01*
X1193Y380D01*
X1194Y380D01*
X1194Y379D01*
X1195Y379D01*
X1195Y377D01*
X1196Y377D01*
X1196Y376D01*
X1197Y376D01*
X1197Y375D01*
X1198Y375D01*
X1198Y374D01*
X1199Y374D01*
X1199Y373D01*
X1200Y373D01*
X1200Y372D01*
X1201Y372D01*
X1201Y371D01*
X1202Y371D01*
X1202Y370D01*
X1203Y370D01*
X1203Y369D01*
X1204Y369D01*
X1204Y368D01*
X1205Y368D01*
X1205Y367D01*
X1206Y367D01*
X1206Y366D01*
X1208Y366D01*
X1208Y365D01*
X1209Y365D01*
X1209Y364D01*
X1210Y364D01*
X1210Y363D01*
X1211Y363D01*
X1211Y362D01*
X1212Y362D01*
X1212Y361D01*
X1214Y361D01*
X1214Y360D01*
X1215Y360D01*
X1215Y359D01*
X1216Y359D01*
X1216Y358D01*
X1218Y358D01*
X1218Y357D01*
X1219Y357D01*
X1219Y356D01*
X1221Y356D01*
X1221Y355D01*
X1222Y355D01*
X1222Y354D01*
X1224Y354D01*
X1224Y353D01*
X1226Y353D01*
X1226Y352D01*
X1227Y352D01*
X1227Y351D01*
X1229Y351D01*
X1229Y350D01*
X1231Y350D01*
X1231Y349D01*
X1233Y349D01*
X1233Y348D01*
X1235Y348D01*
X1235Y347D01*
X1237Y347D01*
X1237Y346D01*
X1240Y346D01*
X1240Y345D01*
X1242Y345D01*
X1242Y344D01*
X1245Y344D01*
X1245Y343D01*
X1276Y343D01*
X1276Y344D01*
X1269Y344D01*
X1269Y345D01*
X1263Y345D01*
X1263Y346D01*
X1259Y346D01*
X1259Y347D01*
X1256Y347D01*
X1256Y348D01*
X1252Y348D01*
X1252Y349D01*
X1249Y349D01*
X1249Y350D01*
X1247Y350D01*
X1247Y351D01*
X1244Y351D01*
X1244Y352D01*
X1242Y352D01*
X1242Y353D01*
X1240Y353D01*
X1240Y354D01*
X1238Y354D01*
X1238Y355D01*
X1236Y355D01*
X1236Y356D01*
X1234Y356D01*
X1234Y357D01*
X1232Y357D01*
X1232Y358D01*
X1230Y358D01*
X1230Y359D01*
X1228Y359D01*
X1228Y360D01*
X1227Y360D01*
X1227Y361D01*
X1225Y361D01*
X1225Y362D01*
X1224Y362D01*
X1224Y363D01*
X1222Y363D01*
X1222Y364D01*
X1221Y364D01*
X1221Y365D01*
X1219Y365D01*
X1219Y366D01*
X1218Y366D01*
X1218Y367D01*
X1217Y367D01*
X1217Y368D01*
X1216Y368D01*
X1216Y369D01*
X1214Y369D01*
X1214Y370D01*
X1213Y370D01*
X1213Y371D01*
X1212Y371D01*
X1212Y372D01*
X1211Y372D01*
X1211Y373D01*
X1210Y373D01*
X1210Y374D01*
X1209Y374D01*
X1209Y375D01*
X1208Y375D01*
X1208Y376D01*
X1207Y376D01*
X1207Y377D01*
X1206Y377D01*
X1206Y378D01*
X1205Y378D01*
X1205Y379D01*
X1204Y379D01*
X1204Y380D01*
X1203Y380D01*
X1203Y381D01*
X1202Y381D01*
X1202Y382D01*
X1201Y382D01*
X1201Y383D01*
X1200Y383D01*
X1200Y384D01*
X1199Y384D01*
X1199Y385D01*
X1198Y385D01*
X1198Y386D01*
X1197Y386D01*
X1197Y388D01*
X1196Y388D01*
X1196Y389D01*
X1195Y389D01*
X1195Y390D01*
X1194Y390D01*
X1194Y392D01*
X1193Y392D01*
X1193Y393D01*
X1192Y393D01*
X1192Y395D01*
X1191Y395D01*
X1191Y396D01*
X1190Y396D01*
X1190Y398D01*
X1189Y398D01*
X1189Y399D01*
X1188Y399D01*
X1188Y401D01*
X1187Y401D01*
X1187Y403D01*
X1186Y403D01*
X1186Y405D01*
X1185Y405D01*
X1185Y407D01*
X1184Y407D01*
X1184Y409D01*
X1183Y409D01*
X1183Y411D01*
X1182Y411D01*
X1182Y413D01*
X1181Y413D01*
X1181Y416D01*
X1180Y416D01*
X1180Y418D01*
X1179Y418D01*
X1179Y421D01*
X1178Y421D01*
X1178Y424D01*
X1177Y424D01*
X1177Y428D01*
X1176Y428D01*
X1176Y432D01*
X1175Y432D01*
X1175Y437D01*
X1174Y437D01*
X1174Y443D01*
X1173Y443D01*
X1173Y472D01*
X1174Y472D01*
X1174Y478D01*
X1175Y478D01*
X1175Y483D01*
X1176Y483D01*
X1176Y487D01*
X1177Y487D01*
X1177Y490D01*
X1178Y490D01*
X1178Y493D01*
X1179Y493D01*
X1179Y496D01*
X1180Y496D01*
X1180Y499D01*
X1181Y499D01*
X1181Y501D01*
X1182Y501D01*
X1182Y504D01*
X1183Y504D01*
X1183Y506D01*
X1184Y506D01*
X1184Y508D01*
X1185Y508D01*
X1185Y510D01*
X1186Y510D01*
X1186Y512D01*
X1187Y512D01*
X1187Y513D01*
X1188Y513D01*
X1188Y515D01*
X1189Y515D01*
X1189Y517D01*
X1190Y517D01*
X1190Y518D01*
X1191Y518D01*
X1191Y520D01*
X1192Y520D01*
X1192Y521D01*
X1193Y521D01*
X1193Y523D01*
X1194Y523D01*
X1194Y524D01*
X1195Y524D01*
X1195Y526D01*
X1196Y526D01*
X1196Y527D01*
X1197Y527D01*
X1197Y528D01*
X1198Y528D01*
X1198Y530D01*
X1199Y530D01*
X1199Y531D01*
X1200Y531D01*
X1200Y532D01*
X1201Y532D01*
X1201Y533D01*
X1202Y533D01*
X1202Y534D01*
X1203Y534D01*
X1203Y535D01*
X1204Y535D01*
X1204Y536D01*
X1205Y536D01*
X1205Y537D01*
X1206Y537D01*
X1206Y538D01*
X1207Y538D01*
X1207Y539D01*
X1208Y539D01*
X1208Y540D01*
X1209Y540D01*
X1209Y541D01*
X1210Y541D01*
X1210Y542D01*
X1211Y542D01*
X1211Y543D01*
X1212Y543D01*
X1212Y544D01*
X1213Y544D01*
X1213Y545D01*
X1214Y545D01*
X1214Y546D01*
X1216Y546D01*
X1216Y547D01*
X1217Y547D01*
X1217Y548D01*
X1218Y548D01*
X1218Y549D01*
X1219Y549D01*
X1219Y550D01*
X1220Y550D01*
X1220Y554D01*
X1219Y554D01*
X1219Y555D01*
X1214Y555D01*
G37*
D02*
G36*
X1356Y555D02*
X1356Y554D01*
X1355Y554D01*
X1355Y549D01*
X1356Y549D01*
X1356Y548D01*
X1358Y548D01*
X1358Y547D01*
X1359Y547D01*
X1359Y546D01*
X1360Y546D01*
X1360Y545D01*
X1361Y545D01*
X1361Y544D01*
X1362Y544D01*
X1362Y543D01*
X1364Y543D01*
X1364Y542D01*
X1365Y542D01*
X1365Y541D01*
X1366Y541D01*
X1366Y540D01*
X1367Y540D01*
X1367Y539D01*
X1368Y539D01*
X1368Y538D01*
X1369Y538D01*
X1369Y537D01*
X1370Y537D01*
X1370Y536D01*
X1371Y536D01*
X1371Y535D01*
X1372Y535D01*
X1372Y534D01*
X1373Y534D01*
X1373Y533D01*
X1374Y533D01*
X1374Y531D01*
X1375Y531D01*
X1375Y530D01*
X1376Y530D01*
X1376Y529D01*
X1377Y529D01*
X1377Y528D01*
X1378Y528D01*
X1378Y526D01*
X1379Y526D01*
X1379Y525D01*
X1380Y525D01*
X1380Y524D01*
X1381Y524D01*
X1381Y522D01*
X1382Y522D01*
X1382Y521D01*
X1383Y521D01*
X1383Y519D01*
X1384Y519D01*
X1384Y518D01*
X1385Y518D01*
X1385Y516D01*
X1386Y516D01*
X1386Y515D01*
X1387Y515D01*
X1387Y513D01*
X1388Y513D01*
X1388Y511D01*
X1389Y511D01*
X1389Y509D01*
X1390Y509D01*
X1390Y507D01*
X1391Y507D01*
X1391Y505D01*
X1392Y505D01*
X1392Y503D01*
X1393Y503D01*
X1393Y500D01*
X1394Y500D01*
X1394Y498D01*
X1395Y498D01*
X1395Y495D01*
X1396Y495D01*
X1396Y492D01*
X1397Y492D01*
X1397Y489D01*
X1398Y489D01*
X1398Y485D01*
X1399Y485D01*
X1399Y481D01*
X1400Y481D01*
X1400Y475D01*
X1401Y475D01*
X1401Y467D01*
X1402Y467D01*
X1402Y449D01*
X1401Y449D01*
X1401Y440D01*
X1400Y440D01*
X1400Y435D01*
X1399Y435D01*
X1399Y430D01*
X1398Y430D01*
X1398Y427D01*
X1397Y427D01*
X1397Y423D01*
X1396Y423D01*
X1396Y420D01*
X1395Y420D01*
X1395Y418D01*
X1394Y418D01*
X1394Y415D01*
X1393Y415D01*
X1393Y413D01*
X1392Y413D01*
X1392Y410D01*
X1391Y410D01*
X1391Y408D01*
X1390Y408D01*
X1390Y406D01*
X1389Y406D01*
X1389Y404D01*
X1388Y404D01*
X1388Y403D01*
X1387Y403D01*
X1387Y401D01*
X1386Y401D01*
X1386Y399D01*
X1385Y399D01*
X1385Y397D01*
X1384Y397D01*
X1384Y396D01*
X1383Y396D01*
X1383Y394D01*
X1382Y394D01*
X1382Y393D01*
X1381Y393D01*
X1381Y391D01*
X1380Y391D01*
X1380Y390D01*
X1379Y390D01*
X1379Y389D01*
X1378Y389D01*
X1378Y387D01*
X1377Y387D01*
X1377Y386D01*
X1376Y386D01*
X1376Y385D01*
X1375Y385D01*
X1375Y384D01*
X1374Y384D01*
X1374Y383D01*
X1373Y383D01*
X1373Y381D01*
X1372Y381D01*
X1372Y380D01*
X1371Y380D01*
X1371Y379D01*
X1370Y379D01*
X1370Y378D01*
X1369Y378D01*
X1369Y377D01*
X1368Y377D01*
X1368Y376D01*
X1367Y376D01*
X1367Y375D01*
X1366Y375D01*
X1366Y374D01*
X1365Y374D01*
X1365Y373D01*
X1364Y373D01*
X1364Y372D01*
X1363Y372D01*
X1363Y371D01*
X1361Y371D01*
X1361Y370D01*
X1360Y370D01*
X1360Y369D01*
X1359Y369D01*
X1359Y368D01*
X1358Y368D01*
X1358Y367D01*
X1357Y367D01*
X1357Y366D01*
X1355Y366D01*
X1355Y365D01*
X1354Y365D01*
X1354Y364D01*
X1352Y364D01*
X1352Y363D01*
X1351Y363D01*
X1351Y362D01*
X1350Y362D01*
X1350Y361D01*
X1348Y361D01*
X1348Y360D01*
X1346Y360D01*
X1346Y359D01*
X1345Y359D01*
X1345Y358D01*
X1343Y358D01*
X1343Y357D01*
X1341Y357D01*
X1341Y356D01*
X1339Y356D01*
X1339Y355D01*
X1337Y355D01*
X1337Y354D01*
X1335Y354D01*
X1335Y353D01*
X1333Y353D01*
X1333Y352D01*
X1331Y352D01*
X1331Y351D01*
X1328Y351D01*
X1328Y350D01*
X1325Y350D01*
X1325Y349D01*
X1322Y349D01*
X1322Y348D01*
X1319Y348D01*
X1319Y347D01*
X1316Y347D01*
X1316Y346D01*
X1311Y346D01*
X1311Y345D01*
X1306Y345D01*
X1306Y344D01*
X1299Y344D01*
X1299Y343D01*
X1329Y343D01*
X1329Y344D01*
X1332Y344D01*
X1332Y345D01*
X1334Y345D01*
X1334Y346D01*
X1337Y346D01*
X1337Y347D01*
X1339Y347D01*
X1339Y348D01*
X1341Y348D01*
X1341Y349D01*
X1343Y349D01*
X1343Y350D01*
X1345Y350D01*
X1345Y351D01*
X1347Y351D01*
X1347Y352D01*
X1349Y352D01*
X1349Y353D01*
X1350Y353D01*
X1350Y354D01*
X1352Y354D01*
X1352Y355D01*
X1353Y355D01*
X1353Y356D01*
X1355Y356D01*
X1355Y357D01*
X1356Y357D01*
X1356Y358D01*
X1358Y358D01*
X1358Y359D01*
X1359Y359D01*
X1359Y360D01*
X1361Y360D01*
X1361Y361D01*
X1362Y361D01*
X1362Y362D01*
X1363Y362D01*
X1363Y363D01*
X1364Y363D01*
X1364Y364D01*
X1366Y364D01*
X1366Y365D01*
X1367Y365D01*
X1367Y366D01*
X1368Y366D01*
X1368Y367D01*
X1369Y367D01*
X1369Y368D01*
X1370Y368D01*
X1370Y369D01*
X1371Y369D01*
X1371Y370D01*
X1372Y370D01*
X1372Y371D01*
X1373Y371D01*
X1373Y372D01*
X1374Y372D01*
X1374Y373D01*
X1375Y373D01*
X1375Y374D01*
X1376Y374D01*
X1376Y375D01*
X1377Y375D01*
X1377Y376D01*
X1378Y376D01*
X1378Y377D01*
X1379Y377D01*
X1379Y378D01*
X1380Y378D01*
X1380Y379D01*
X1381Y379D01*
X1381Y380D01*
X1382Y380D01*
X1382Y382D01*
X1383Y382D01*
X1383Y383D01*
X1384Y383D01*
X1384Y384D01*
X1385Y384D01*
X1385Y386D01*
X1386Y386D01*
X1386Y387D01*
X1387Y387D01*
X1387Y388D01*
X1388Y388D01*
X1388Y390D01*
X1389Y390D01*
X1389Y392D01*
X1390Y392D01*
X1390Y393D01*
X1391Y393D01*
X1391Y395D01*
X1392Y395D01*
X1392Y396D01*
X1393Y396D01*
X1393Y398D01*
X1394Y398D01*
X1394Y400D01*
X1395Y400D01*
X1395Y402D01*
X1396Y402D01*
X1396Y404D01*
X1397Y404D01*
X1397Y406D01*
X1398Y406D01*
X1398Y408D01*
X1399Y408D01*
X1399Y411D01*
X1400Y411D01*
X1400Y413D01*
X1401Y413D01*
X1401Y416D01*
X1402Y416D01*
X1402Y419D01*
X1403Y419D01*
X1403Y422D01*
X1404Y422D01*
X1404Y425D01*
X1405Y425D01*
X1405Y429D01*
X1406Y429D01*
X1406Y434D01*
X1407Y434D01*
X1407Y440D01*
X1408Y440D01*
X1408Y450D01*
X1409Y450D01*
X1409Y464D01*
X1408Y464D01*
X1408Y474D01*
X1407Y474D01*
X1407Y480D01*
X1406Y480D01*
X1406Y485D01*
X1405Y485D01*
X1405Y489D01*
X1404Y489D01*
X1404Y493D01*
X1403Y493D01*
X1403Y496D01*
X1402Y496D01*
X1402Y499D01*
X1401Y499D01*
X1401Y501D01*
X1400Y501D01*
X1400Y504D01*
X1399Y504D01*
X1399Y506D01*
X1398Y506D01*
X1398Y509D01*
X1397Y509D01*
X1397Y511D01*
X1396Y511D01*
X1396Y513D01*
X1395Y513D01*
X1395Y515D01*
X1394Y515D01*
X1394Y517D01*
X1393Y517D01*
X1393Y518D01*
X1392Y518D01*
X1392Y520D01*
X1391Y520D01*
X1391Y522D01*
X1390Y522D01*
X1390Y523D01*
X1389Y523D01*
X1389Y525D01*
X1388Y525D01*
X1388Y526D01*
X1387Y526D01*
X1387Y528D01*
X1386Y528D01*
X1386Y529D01*
X1385Y529D01*
X1385Y531D01*
X1384Y531D01*
X1384Y532D01*
X1383Y532D01*
X1383Y533D01*
X1382Y533D01*
X1382Y534D01*
X1381Y534D01*
X1381Y536D01*
X1380Y536D01*
X1380Y537D01*
X1379Y537D01*
X1379Y538D01*
X1378Y538D01*
X1378Y539D01*
X1377Y539D01*
X1377Y540D01*
X1376Y540D01*
X1376Y541D01*
X1375Y541D01*
X1375Y542D01*
X1374Y542D01*
X1374Y543D01*
X1373Y543D01*
X1373Y544D01*
X1372Y544D01*
X1372Y545D01*
X1371Y545D01*
X1371Y546D01*
X1370Y546D01*
X1370Y547D01*
X1369Y547D01*
X1369Y548D01*
X1368Y548D01*
X1368Y549D01*
X1367Y549D01*
X1367Y550D01*
X1366Y550D01*
X1366Y551D01*
X1365Y551D01*
X1365Y552D01*
X1363Y552D01*
X1363Y553D01*
X1362Y553D01*
X1362Y554D01*
X1361Y554D01*
X1361Y555D01*
X1356Y555D01*
G37*
D02*
G36*
X1248Y343D02*
X1248Y342D01*
X1326Y342D01*
X1326Y343D01*
X1248Y343D01*
G37*
D02*
G36*
X1248Y343D02*
X1248Y342D01*
X1326Y342D01*
X1326Y343D01*
X1248Y343D01*
G37*
D02*
G36*
X1251Y342D02*
X1251Y341D01*
X1254Y341D01*
X1254Y340D01*
X1258Y340D01*
X1258Y339D01*
X1263Y339D01*
X1263Y338D01*
X1268Y338D01*
X1268Y337D01*
X1277Y337D01*
X1277Y336D01*
X1297Y336D01*
X1297Y337D01*
X1305Y337D01*
X1305Y338D01*
X1311Y338D01*
X1311Y339D01*
X1316Y339D01*
X1316Y340D01*
X1320Y340D01*
X1320Y341D01*
X1323Y341D01*
X1323Y342D01*
X1251Y342D01*
G37*
D02*
G36*
X1515Y556D02*
X1515Y555D01*
X1517Y555D01*
X1517Y556D01*
X1515Y556D01*
G37*
D02*
G36*
X1514Y555D02*
X1514Y554D01*
X1512Y554D01*
X1512Y553D01*
X1511Y553D01*
X1511Y552D01*
X1510Y552D01*
X1510Y551D01*
X1509Y551D01*
X1509Y550D01*
X1507Y550D01*
X1507Y549D01*
X1506Y549D01*
X1506Y548D01*
X1505Y548D01*
X1505Y547D01*
X1504Y547D01*
X1504Y546D01*
X1503Y546D01*
X1503Y545D01*
X1502Y545D01*
X1502Y544D01*
X1501Y544D01*
X1501Y543D01*
X1500Y543D01*
X1500Y542D01*
X1499Y542D01*
X1499Y541D01*
X1498Y541D01*
X1498Y540D01*
X1497Y540D01*
X1497Y539D01*
X1496Y539D01*
X1496Y538D01*
X1495Y538D01*
X1495Y537D01*
X1494Y537D01*
X1494Y535D01*
X1493Y535D01*
X1493Y534D01*
X1492Y534D01*
X1492Y533D01*
X1491Y533D01*
X1491Y532D01*
X1490Y532D01*
X1490Y530D01*
X1489Y530D01*
X1489Y529D01*
X1488Y529D01*
X1488Y527D01*
X1487Y527D01*
X1487Y526D01*
X1486Y526D01*
X1486Y525D01*
X1485Y525D01*
X1485Y523D01*
X1484Y523D01*
X1484Y521D01*
X1483Y521D01*
X1483Y520D01*
X1482Y520D01*
X1482Y518D01*
X1481Y518D01*
X1481Y516D01*
X1480Y516D01*
X1480Y514D01*
X1479Y514D01*
X1479Y512D01*
X1478Y512D01*
X1478Y510D01*
X1477Y510D01*
X1477Y508D01*
X1476Y508D01*
X1476Y506D01*
X1475Y506D01*
X1475Y504D01*
X1474Y504D01*
X1474Y501D01*
X1473Y501D01*
X1473Y498D01*
X1472Y498D01*
X1472Y495D01*
X1471Y495D01*
X1471Y492D01*
X1470Y492D01*
X1470Y488D01*
X1469Y488D01*
X1469Y484D01*
X1468Y484D01*
X1468Y479D01*
X1467Y479D01*
X1467Y472D01*
X1466Y472D01*
X1466Y444D01*
X1467Y444D01*
X1467Y437D01*
X1468Y437D01*
X1468Y431D01*
X1469Y431D01*
X1469Y427D01*
X1470Y427D01*
X1470Y423D01*
X1471Y423D01*
X1471Y420D01*
X1472Y420D01*
X1472Y417D01*
X1473Y417D01*
X1473Y414D01*
X1474Y414D01*
X1474Y412D01*
X1475Y412D01*
X1475Y409D01*
X1476Y409D01*
X1476Y407D01*
X1477Y407D01*
X1477Y405D01*
X1478Y405D01*
X1478Y403D01*
X1479Y403D01*
X1479Y401D01*
X1480Y401D01*
X1480Y399D01*
X1481Y399D01*
X1481Y397D01*
X1482Y397D01*
X1482Y395D01*
X1483Y395D01*
X1483Y394D01*
X1484Y394D01*
X1484Y392D01*
X1485Y392D01*
X1485Y391D01*
X1486Y391D01*
X1486Y389D01*
X1487Y389D01*
X1487Y388D01*
X1488Y388D01*
X1488Y386D01*
X1489Y386D01*
X1489Y385D01*
X1490Y385D01*
X1490Y384D01*
X1491Y384D01*
X1491Y382D01*
X1492Y382D01*
X1492Y381D01*
X1493Y381D01*
X1493Y380D01*
X1494Y380D01*
X1494Y379D01*
X1495Y379D01*
X1495Y377D01*
X1496Y377D01*
X1496Y376D01*
X1497Y376D01*
X1497Y375D01*
X1498Y375D01*
X1498Y374D01*
X1499Y374D01*
X1499Y373D01*
X1500Y373D01*
X1500Y372D01*
X1501Y372D01*
X1501Y371D01*
X1502Y371D01*
X1502Y370D01*
X1503Y370D01*
X1503Y369D01*
X1504Y369D01*
X1504Y368D01*
X1505Y368D01*
X1505Y367D01*
X1506Y367D01*
X1506Y366D01*
X1507Y366D01*
X1507Y365D01*
X1509Y365D01*
X1509Y364D01*
X1510Y364D01*
X1510Y363D01*
X1511Y363D01*
X1511Y362D01*
X1512Y362D01*
X1512Y361D01*
X1514Y361D01*
X1514Y360D01*
X1515Y360D01*
X1515Y359D01*
X1516Y359D01*
X1516Y358D01*
X1518Y358D01*
X1518Y357D01*
X1519Y357D01*
X1519Y356D01*
X1521Y356D01*
X1521Y355D01*
X1522Y355D01*
X1522Y354D01*
X1524Y354D01*
X1524Y353D01*
X1526Y353D01*
X1526Y352D01*
X1527Y352D01*
X1527Y351D01*
X1529Y351D01*
X1529Y350D01*
X1531Y350D01*
X1531Y349D01*
X1533Y349D01*
X1533Y348D01*
X1535Y348D01*
X1535Y347D01*
X1537Y347D01*
X1537Y346D01*
X1540Y346D01*
X1540Y345D01*
X1542Y345D01*
X1542Y344D01*
X1545Y344D01*
X1545Y343D01*
X1576Y343D01*
X1576Y344D01*
X1569Y344D01*
X1569Y345D01*
X1563Y345D01*
X1563Y346D01*
X1559Y346D01*
X1559Y347D01*
X1556Y347D01*
X1556Y348D01*
X1552Y348D01*
X1552Y349D01*
X1549Y349D01*
X1549Y350D01*
X1547Y350D01*
X1547Y351D01*
X1544Y351D01*
X1544Y352D01*
X1542Y352D01*
X1542Y353D01*
X1540Y353D01*
X1540Y354D01*
X1537Y354D01*
X1537Y355D01*
X1536Y355D01*
X1536Y356D01*
X1534Y356D01*
X1534Y357D01*
X1532Y357D01*
X1532Y358D01*
X1530Y358D01*
X1530Y359D01*
X1528Y359D01*
X1528Y360D01*
X1527Y360D01*
X1527Y361D01*
X1525Y361D01*
X1525Y362D01*
X1524Y362D01*
X1524Y363D01*
X1522Y363D01*
X1522Y364D01*
X1521Y364D01*
X1521Y365D01*
X1519Y365D01*
X1519Y366D01*
X1518Y366D01*
X1518Y367D01*
X1517Y367D01*
X1517Y368D01*
X1515Y368D01*
X1515Y369D01*
X1514Y369D01*
X1514Y370D01*
X1513Y370D01*
X1513Y371D01*
X1512Y371D01*
X1512Y372D01*
X1511Y372D01*
X1511Y373D01*
X1510Y373D01*
X1510Y374D01*
X1509Y374D01*
X1509Y375D01*
X1507Y375D01*
X1507Y376D01*
X1506Y376D01*
X1506Y377D01*
X1505Y377D01*
X1505Y378D01*
X1504Y378D01*
X1504Y380D01*
X1503Y380D01*
X1503Y381D01*
X1502Y381D01*
X1502Y382D01*
X1501Y382D01*
X1501Y383D01*
X1500Y383D01*
X1500Y384D01*
X1499Y384D01*
X1499Y385D01*
X1498Y385D01*
X1498Y386D01*
X1497Y386D01*
X1497Y388D01*
X1496Y388D01*
X1496Y389D01*
X1495Y389D01*
X1495Y390D01*
X1494Y390D01*
X1494Y392D01*
X1493Y392D01*
X1493Y393D01*
X1492Y393D01*
X1492Y395D01*
X1491Y395D01*
X1491Y396D01*
X1490Y396D01*
X1490Y398D01*
X1489Y398D01*
X1489Y399D01*
X1488Y399D01*
X1488Y401D01*
X1487Y401D01*
X1487Y403D01*
X1486Y403D01*
X1486Y405D01*
X1485Y405D01*
X1485Y407D01*
X1484Y407D01*
X1484Y409D01*
X1483Y409D01*
X1483Y411D01*
X1482Y411D01*
X1482Y413D01*
X1481Y413D01*
X1481Y415D01*
X1480Y415D01*
X1480Y418D01*
X1479Y418D01*
X1479Y421D01*
X1478Y421D01*
X1478Y424D01*
X1477Y424D01*
X1477Y427D01*
X1476Y427D01*
X1476Y431D01*
X1475Y431D01*
X1475Y436D01*
X1474Y436D01*
X1474Y442D01*
X1473Y442D01*
X1473Y456D01*
X1472Y456D01*
X1472Y459D01*
X1473Y459D01*
X1473Y472D01*
X1474Y472D01*
X1474Y479D01*
X1475Y479D01*
X1475Y483D01*
X1476Y483D01*
X1476Y487D01*
X1477Y487D01*
X1477Y491D01*
X1478Y491D01*
X1478Y494D01*
X1479Y494D01*
X1479Y497D01*
X1480Y497D01*
X1480Y499D01*
X1481Y499D01*
X1481Y502D01*
X1482Y502D01*
X1482Y504D01*
X1483Y504D01*
X1483Y506D01*
X1484Y506D01*
X1484Y508D01*
X1485Y508D01*
X1485Y510D01*
X1486Y510D01*
X1486Y512D01*
X1487Y512D01*
X1487Y514D01*
X1488Y514D01*
X1488Y515D01*
X1489Y515D01*
X1489Y517D01*
X1490Y517D01*
X1490Y519D01*
X1491Y519D01*
X1491Y520D01*
X1492Y520D01*
X1492Y522D01*
X1493Y522D01*
X1493Y523D01*
X1494Y523D01*
X1494Y524D01*
X1495Y524D01*
X1495Y526D01*
X1496Y526D01*
X1496Y527D01*
X1497Y527D01*
X1497Y528D01*
X1498Y528D01*
X1498Y530D01*
X1499Y530D01*
X1499Y531D01*
X1500Y531D01*
X1500Y532D01*
X1501Y532D01*
X1501Y533D01*
X1502Y533D01*
X1502Y534D01*
X1503Y534D01*
X1503Y535D01*
X1504Y535D01*
X1504Y537D01*
X1505Y537D01*
X1505Y538D01*
X1506Y538D01*
X1506Y539D01*
X1507Y539D01*
X1507Y540D01*
X1509Y540D01*
X1509Y541D01*
X1510Y541D01*
X1510Y542D01*
X1511Y542D01*
X1511Y543D01*
X1512Y543D01*
X1512Y544D01*
X1513Y544D01*
X1513Y545D01*
X1514Y545D01*
X1514Y546D01*
X1515Y546D01*
X1515Y547D01*
X1517Y547D01*
X1517Y548D01*
X1518Y548D01*
X1518Y549D01*
X1519Y549D01*
X1519Y550D01*
X1520Y550D01*
X1520Y554D01*
X1519Y554D01*
X1519Y555D01*
X1514Y555D01*
G37*
D02*
G36*
X1656Y555D02*
X1656Y554D01*
X1655Y554D01*
X1655Y549D01*
X1656Y549D01*
X1656Y548D01*
X1658Y548D01*
X1658Y547D01*
X1659Y547D01*
X1659Y546D01*
X1660Y546D01*
X1660Y545D01*
X1661Y545D01*
X1661Y544D01*
X1662Y544D01*
X1662Y543D01*
X1664Y543D01*
X1664Y542D01*
X1665Y542D01*
X1665Y541D01*
X1666Y541D01*
X1666Y540D01*
X1667Y540D01*
X1667Y539D01*
X1668Y539D01*
X1668Y538D01*
X1669Y538D01*
X1669Y537D01*
X1670Y537D01*
X1670Y536D01*
X1671Y536D01*
X1671Y535D01*
X1672Y535D01*
X1672Y534D01*
X1673Y534D01*
X1673Y532D01*
X1674Y532D01*
X1674Y531D01*
X1675Y531D01*
X1675Y530D01*
X1676Y530D01*
X1676Y529D01*
X1677Y529D01*
X1677Y528D01*
X1678Y528D01*
X1678Y526D01*
X1679Y526D01*
X1679Y525D01*
X1680Y525D01*
X1680Y524D01*
X1681Y524D01*
X1681Y522D01*
X1682Y522D01*
X1682Y521D01*
X1683Y521D01*
X1683Y519D01*
X1684Y519D01*
X1684Y518D01*
X1685Y518D01*
X1685Y516D01*
X1686Y516D01*
X1686Y514D01*
X1687Y514D01*
X1687Y513D01*
X1688Y513D01*
X1688Y511D01*
X1689Y511D01*
X1689Y509D01*
X1690Y509D01*
X1690Y507D01*
X1691Y507D01*
X1691Y505D01*
X1692Y505D01*
X1692Y502D01*
X1693Y502D01*
X1693Y500D01*
X1694Y500D01*
X1694Y497D01*
X1695Y497D01*
X1695Y495D01*
X1696Y495D01*
X1696Y492D01*
X1697Y492D01*
X1697Y488D01*
X1698Y488D01*
X1698Y485D01*
X1699Y485D01*
X1699Y480D01*
X1700Y480D01*
X1700Y475D01*
X1701Y475D01*
X1701Y465D01*
X1702Y465D01*
X1702Y450D01*
X1701Y450D01*
X1701Y441D01*
X1700Y441D01*
X1700Y435D01*
X1699Y435D01*
X1699Y431D01*
X1698Y431D01*
X1698Y427D01*
X1697Y427D01*
X1697Y424D01*
X1696Y424D01*
X1696Y421D01*
X1695Y421D01*
X1695Y418D01*
X1694Y418D01*
X1694Y415D01*
X1693Y415D01*
X1693Y413D01*
X1692Y413D01*
X1692Y411D01*
X1691Y411D01*
X1691Y408D01*
X1690Y408D01*
X1690Y407D01*
X1689Y407D01*
X1689Y405D01*
X1688Y405D01*
X1688Y403D01*
X1687Y403D01*
X1687Y401D01*
X1686Y401D01*
X1686Y399D01*
X1685Y399D01*
X1685Y398D01*
X1684Y398D01*
X1684Y396D01*
X1683Y396D01*
X1683Y394D01*
X1682Y394D01*
X1682Y393D01*
X1681Y393D01*
X1681Y392D01*
X1680Y392D01*
X1680Y390D01*
X1679Y390D01*
X1679Y389D01*
X1678Y389D01*
X1678Y388D01*
X1677Y388D01*
X1677Y386D01*
X1676Y386D01*
X1676Y385D01*
X1675Y385D01*
X1675Y384D01*
X1674Y384D01*
X1674Y383D01*
X1673Y383D01*
X1673Y382D01*
X1672Y382D01*
X1672Y380D01*
X1671Y380D01*
X1671Y379D01*
X1670Y379D01*
X1670Y378D01*
X1669Y378D01*
X1669Y377D01*
X1668Y377D01*
X1668Y376D01*
X1667Y376D01*
X1667Y375D01*
X1666Y375D01*
X1666Y374D01*
X1665Y374D01*
X1665Y373D01*
X1664Y373D01*
X1664Y372D01*
X1663Y372D01*
X1663Y371D01*
X1661Y371D01*
X1661Y370D01*
X1660Y370D01*
X1660Y369D01*
X1659Y369D01*
X1659Y368D01*
X1658Y368D01*
X1658Y367D01*
X1656Y367D01*
X1656Y366D01*
X1655Y366D01*
X1655Y365D01*
X1654Y365D01*
X1654Y364D01*
X1652Y364D01*
X1652Y363D01*
X1651Y363D01*
X1651Y362D01*
X1649Y362D01*
X1649Y361D01*
X1648Y361D01*
X1648Y360D01*
X1646Y360D01*
X1646Y359D01*
X1645Y359D01*
X1645Y358D01*
X1643Y358D01*
X1643Y357D01*
X1641Y357D01*
X1641Y356D01*
X1639Y356D01*
X1639Y355D01*
X1637Y355D01*
X1637Y354D01*
X1635Y354D01*
X1635Y353D01*
X1633Y353D01*
X1633Y352D01*
X1630Y352D01*
X1630Y351D01*
X1628Y351D01*
X1628Y350D01*
X1625Y350D01*
X1625Y349D01*
X1622Y349D01*
X1622Y348D01*
X1619Y348D01*
X1619Y347D01*
X1615Y347D01*
X1615Y346D01*
X1611Y346D01*
X1611Y345D01*
X1606Y345D01*
X1606Y344D01*
X1599Y344D01*
X1599Y343D01*
X1629Y343D01*
X1629Y344D01*
X1632Y344D01*
X1632Y345D01*
X1634Y345D01*
X1634Y346D01*
X1637Y346D01*
X1637Y347D01*
X1639Y347D01*
X1639Y348D01*
X1641Y348D01*
X1641Y349D01*
X1643Y349D01*
X1643Y350D01*
X1645Y350D01*
X1645Y351D01*
X1647Y351D01*
X1647Y352D01*
X1648Y352D01*
X1648Y353D01*
X1650Y353D01*
X1650Y354D01*
X1652Y354D01*
X1652Y355D01*
X1653Y355D01*
X1653Y356D01*
X1655Y356D01*
X1655Y357D01*
X1656Y357D01*
X1656Y358D01*
X1658Y358D01*
X1658Y359D01*
X1659Y359D01*
X1659Y360D01*
X1661Y360D01*
X1661Y361D01*
X1662Y361D01*
X1662Y362D01*
X1663Y362D01*
X1663Y363D01*
X1664Y363D01*
X1664Y364D01*
X1666Y364D01*
X1666Y365D01*
X1667Y365D01*
X1667Y366D01*
X1668Y366D01*
X1668Y367D01*
X1669Y367D01*
X1669Y368D01*
X1670Y368D01*
X1670Y369D01*
X1671Y369D01*
X1671Y370D01*
X1672Y370D01*
X1672Y371D01*
X1673Y371D01*
X1673Y372D01*
X1674Y372D01*
X1674Y373D01*
X1675Y373D01*
X1675Y374D01*
X1676Y374D01*
X1676Y375D01*
X1677Y375D01*
X1677Y376D01*
X1678Y376D01*
X1678Y377D01*
X1679Y377D01*
X1679Y378D01*
X1680Y378D01*
X1680Y379D01*
X1681Y379D01*
X1681Y381D01*
X1682Y381D01*
X1682Y382D01*
X1683Y382D01*
X1683Y383D01*
X1684Y383D01*
X1684Y384D01*
X1685Y384D01*
X1685Y386D01*
X1686Y386D01*
X1686Y387D01*
X1687Y387D01*
X1687Y389D01*
X1688Y389D01*
X1688Y390D01*
X1689Y390D01*
X1689Y392D01*
X1690Y392D01*
X1690Y393D01*
X1691Y393D01*
X1691Y395D01*
X1692Y395D01*
X1692Y397D01*
X1693Y397D01*
X1693Y398D01*
X1694Y398D01*
X1694Y400D01*
X1695Y400D01*
X1695Y402D01*
X1696Y402D01*
X1696Y404D01*
X1697Y404D01*
X1697Y406D01*
X1698Y406D01*
X1698Y408D01*
X1699Y408D01*
X1699Y411D01*
X1700Y411D01*
X1700Y413D01*
X1701Y413D01*
X1701Y416D01*
X1702Y416D01*
X1702Y419D01*
X1703Y419D01*
X1703Y422D01*
X1704Y422D01*
X1704Y426D01*
X1705Y426D01*
X1705Y430D01*
X1706Y430D01*
X1706Y435D01*
X1707Y435D01*
X1707Y441D01*
X1708Y441D01*
X1708Y453D01*
X1709Y453D01*
X1709Y462D01*
X1708Y462D01*
X1708Y474D01*
X1707Y474D01*
X1707Y480D01*
X1706Y480D01*
X1706Y485D01*
X1705Y485D01*
X1705Y489D01*
X1704Y489D01*
X1704Y492D01*
X1703Y492D01*
X1703Y496D01*
X1702Y496D01*
X1702Y498D01*
X1701Y498D01*
X1701Y501D01*
X1700Y501D01*
X1700Y504D01*
X1699Y504D01*
X1699Y506D01*
X1698Y506D01*
X1698Y508D01*
X1697Y508D01*
X1697Y511D01*
X1696Y511D01*
X1696Y513D01*
X1695Y513D01*
X1695Y515D01*
X1694Y515D01*
X1694Y516D01*
X1693Y516D01*
X1693Y518D01*
X1692Y518D01*
X1692Y520D01*
X1691Y520D01*
X1691Y522D01*
X1690Y522D01*
X1690Y523D01*
X1689Y523D01*
X1689Y525D01*
X1688Y525D01*
X1688Y526D01*
X1687Y526D01*
X1687Y528D01*
X1686Y528D01*
X1686Y529D01*
X1685Y529D01*
X1685Y530D01*
X1684Y530D01*
X1684Y532D01*
X1683Y532D01*
X1683Y533D01*
X1682Y533D01*
X1682Y534D01*
X1681Y534D01*
X1681Y536D01*
X1680Y536D01*
X1680Y537D01*
X1679Y537D01*
X1679Y538D01*
X1678Y538D01*
X1678Y539D01*
X1677Y539D01*
X1677Y540D01*
X1676Y540D01*
X1676Y541D01*
X1675Y541D01*
X1675Y542D01*
X1674Y542D01*
X1674Y543D01*
X1673Y543D01*
X1673Y544D01*
X1672Y544D01*
X1672Y545D01*
X1671Y545D01*
X1671Y546D01*
X1670Y546D01*
X1670Y547D01*
X1669Y547D01*
X1669Y548D01*
X1668Y548D01*
X1668Y549D01*
X1667Y549D01*
X1667Y550D01*
X1666Y550D01*
X1666Y551D01*
X1664Y551D01*
X1664Y552D01*
X1663Y552D01*
X1663Y553D01*
X1662Y553D01*
X1662Y554D01*
X1661Y554D01*
X1661Y555D01*
X1656Y555D01*
G37*
D02*
G36*
X1548Y343D02*
X1548Y342D01*
X1626Y342D01*
X1626Y343D01*
X1548Y343D01*
G37*
D02*
G36*
X1548Y343D02*
X1548Y342D01*
X1626Y342D01*
X1626Y343D01*
X1548Y343D01*
G37*
D02*
G36*
X1551Y342D02*
X1551Y341D01*
X1554Y341D01*
X1554Y340D01*
X1558Y340D01*
X1558Y339D01*
X1563Y339D01*
X1563Y338D01*
X1568Y338D01*
X1568Y337D01*
X1577Y337D01*
X1577Y336D01*
X1597Y336D01*
X1597Y337D01*
X1605Y337D01*
X1605Y338D01*
X1611Y338D01*
X1611Y339D01*
X1616Y339D01*
X1616Y340D01*
X1619Y340D01*
X1619Y341D01*
X1623Y341D01*
X1623Y342D01*
X1551Y342D01*
G37*
D02*
G36*
X1215Y256D02*
X1215Y255D01*
X1213Y255D01*
X1213Y254D01*
X1212Y254D01*
X1212Y253D01*
X1211Y253D01*
X1211Y252D01*
X1209Y252D01*
X1209Y251D01*
X1208Y251D01*
X1208Y250D01*
X1207Y250D01*
X1207Y249D01*
X1206Y249D01*
X1206Y248D01*
X1205Y248D01*
X1205Y247D01*
X1204Y247D01*
X1204Y246D01*
X1203Y246D01*
X1203Y245D01*
X1202Y245D01*
X1202Y244D01*
X1201Y244D01*
X1201Y243D01*
X1200Y243D01*
X1200Y242D01*
X1199Y242D01*
X1199Y241D01*
X1198Y241D01*
X1198Y240D01*
X1197Y240D01*
X1197Y239D01*
X1196Y239D01*
X1196Y238D01*
X1195Y238D01*
X1195Y237D01*
X1194Y237D01*
X1194Y236D01*
X1193Y236D01*
X1193Y234D01*
X1192Y234D01*
X1192Y233D01*
X1191Y233D01*
X1191Y232D01*
X1190Y232D01*
X1190Y230D01*
X1189Y230D01*
X1189Y229D01*
X1188Y229D01*
X1188Y228D01*
X1187Y228D01*
X1187Y226D01*
X1186Y226D01*
X1186Y225D01*
X1185Y225D01*
X1185Y223D01*
X1184Y223D01*
X1184Y222D01*
X1183Y222D01*
X1183Y220D01*
X1182Y220D01*
X1182Y218D01*
X1181Y218D01*
X1181Y216D01*
X1180Y216D01*
X1180Y214D01*
X1179Y214D01*
X1179Y212D01*
X1178Y212D01*
X1178Y211D01*
X1177Y211D01*
X1177Y208D01*
X1176Y208D01*
X1176Y206D01*
X1175Y206D01*
X1175Y204D01*
X1174Y204D01*
X1174Y201D01*
X1173Y201D01*
X1173Y198D01*
X1172Y198D01*
X1172Y195D01*
X1171Y195D01*
X1171Y192D01*
X1170Y192D01*
X1170Y188D01*
X1169Y188D01*
X1169Y184D01*
X1168Y184D01*
X1168Y179D01*
X1167Y179D01*
X1167Y172D01*
X1166Y172D01*
X1166Y145D01*
X1167Y145D01*
X1167Y137D01*
X1168Y137D01*
X1168Y132D01*
X1169Y132D01*
X1169Y128D01*
X1170Y128D01*
X1170Y124D01*
X1171Y124D01*
X1171Y121D01*
X1172Y121D01*
X1172Y118D01*
X1173Y118D01*
X1173Y115D01*
X1174Y115D01*
X1174Y112D01*
X1175Y112D01*
X1175Y110D01*
X1176Y110D01*
X1176Y108D01*
X1177Y108D01*
X1177Y105D01*
X1178Y105D01*
X1178Y103D01*
X1179Y103D01*
X1179Y101D01*
X1180Y101D01*
X1180Y100D01*
X1181Y100D01*
X1181Y98D01*
X1182Y98D01*
X1182Y96D01*
X1183Y96D01*
X1183Y94D01*
X1184Y94D01*
X1184Y93D01*
X1185Y93D01*
X1185Y91D01*
X1186Y91D01*
X1186Y90D01*
X1187Y90D01*
X1187Y88D01*
X1188Y88D01*
X1188Y87D01*
X1189Y87D01*
X1189Y85D01*
X1190Y85D01*
X1190Y84D01*
X1191Y84D01*
X1191Y83D01*
X1192Y83D01*
X1192Y81D01*
X1193Y81D01*
X1193Y80D01*
X1194Y80D01*
X1194Y79D01*
X1195Y79D01*
X1195Y78D01*
X1196Y78D01*
X1196Y77D01*
X1197Y77D01*
X1197Y76D01*
X1198Y76D01*
X1198Y74D01*
X1199Y74D01*
X1199Y73D01*
X1200Y73D01*
X1200Y72D01*
X1201Y72D01*
X1201Y71D01*
X1202Y71D01*
X1202Y70D01*
X1203Y70D01*
X1203Y69D01*
X1204Y69D01*
X1204Y68D01*
X1206Y68D01*
X1206Y67D01*
X1207Y67D01*
X1207Y66D01*
X1208Y66D01*
X1208Y65D01*
X1209Y65D01*
X1209Y64D01*
X1210Y64D01*
X1210Y63D01*
X1212Y63D01*
X1212Y62D01*
X1213Y62D01*
X1213Y61D01*
X1214Y61D01*
X1214Y60D01*
X1215Y60D01*
X1215Y59D01*
X1217Y59D01*
X1217Y58D01*
X1218Y58D01*
X1218Y57D01*
X1220Y57D01*
X1220Y56D01*
X1221Y56D01*
X1221Y55D01*
X1223Y55D01*
X1223Y54D01*
X1224Y54D01*
X1224Y53D01*
X1226Y53D01*
X1226Y52D01*
X1228Y52D01*
X1228Y51D01*
X1230Y51D01*
X1230Y50D01*
X1232Y50D01*
X1232Y49D01*
X1234Y49D01*
X1234Y48D01*
X1236Y48D01*
X1236Y47D01*
X1238Y47D01*
X1238Y46D01*
X1240Y46D01*
X1240Y45D01*
X1243Y45D01*
X1243Y44D01*
X1246Y44D01*
X1246Y43D01*
X1280Y43D01*
X1280Y44D01*
X1270Y44D01*
X1270Y45D01*
X1265Y45D01*
X1265Y46D01*
X1260Y46D01*
X1260Y47D01*
X1257Y47D01*
X1257Y48D01*
X1253Y48D01*
X1253Y49D01*
X1250Y49D01*
X1250Y50D01*
X1248Y50D01*
X1248Y51D01*
X1245Y51D01*
X1245Y52D01*
X1243Y52D01*
X1243Y53D01*
X1240Y53D01*
X1240Y54D01*
X1238Y54D01*
X1238Y55D01*
X1236Y55D01*
X1236Y56D01*
X1234Y56D01*
X1234Y57D01*
X1232Y57D01*
X1232Y58D01*
X1231Y58D01*
X1231Y59D01*
X1229Y59D01*
X1229Y60D01*
X1227Y60D01*
X1227Y61D01*
X1226Y61D01*
X1226Y62D01*
X1224Y62D01*
X1224Y63D01*
X1223Y63D01*
X1223Y64D01*
X1221Y64D01*
X1221Y65D01*
X1220Y65D01*
X1220Y66D01*
X1218Y66D01*
X1218Y67D01*
X1217Y67D01*
X1217Y68D01*
X1216Y68D01*
X1216Y69D01*
X1215Y69D01*
X1215Y70D01*
X1213Y70D01*
X1213Y71D01*
X1212Y71D01*
X1212Y72D01*
X1211Y72D01*
X1211Y73D01*
X1210Y73D01*
X1210Y74D01*
X1209Y74D01*
X1209Y75D01*
X1208Y75D01*
X1208Y76D01*
X1207Y76D01*
X1207Y77D01*
X1206Y77D01*
X1206Y78D01*
X1205Y78D01*
X1205Y79D01*
X1204Y79D01*
X1204Y80D01*
X1203Y80D01*
X1203Y81D01*
X1202Y81D01*
X1202Y82D01*
X1201Y82D01*
X1201Y83D01*
X1200Y83D01*
X1200Y84D01*
X1199Y84D01*
X1199Y86D01*
X1198Y86D01*
X1198Y87D01*
X1197Y87D01*
X1197Y88D01*
X1196Y88D01*
X1196Y89D01*
X1195Y89D01*
X1195Y91D01*
X1194Y91D01*
X1194Y92D01*
X1193Y92D01*
X1193Y94D01*
X1192Y94D01*
X1192Y95D01*
X1191Y95D01*
X1191Y97D01*
X1190Y97D01*
X1190Y98D01*
X1189Y98D01*
X1189Y100D01*
X1188Y100D01*
X1188Y101D01*
X1187Y101D01*
X1187Y103D01*
X1186Y103D01*
X1186Y105D01*
X1185Y105D01*
X1185Y107D01*
X1184Y107D01*
X1184Y109D01*
X1183Y109D01*
X1183Y111D01*
X1182Y111D01*
X1182Y114D01*
X1181Y114D01*
X1181Y116D01*
X1180Y116D01*
X1180Y119D01*
X1179Y119D01*
X1179Y122D01*
X1178Y122D01*
X1178Y125D01*
X1177Y125D01*
X1177Y128D01*
X1176Y128D01*
X1176Y132D01*
X1175Y132D01*
X1175Y137D01*
X1174Y137D01*
X1174Y143D01*
X1173Y143D01*
X1173Y172D01*
X1174Y172D01*
X1174Y178D01*
X1175Y178D01*
X1175Y183D01*
X1176Y183D01*
X1176Y187D01*
X1177Y187D01*
X1177Y191D01*
X1178Y191D01*
X1178Y194D01*
X1179Y194D01*
X1179Y197D01*
X1180Y197D01*
X1180Y199D01*
X1181Y199D01*
X1181Y202D01*
X1182Y202D01*
X1182Y204D01*
X1183Y204D01*
X1183Y206D01*
X1184Y206D01*
X1184Y208D01*
X1185Y208D01*
X1185Y210D01*
X1186Y210D01*
X1186Y212D01*
X1187Y212D01*
X1187Y214D01*
X1188Y214D01*
X1188Y215D01*
X1189Y215D01*
X1189Y217D01*
X1190Y217D01*
X1190Y219D01*
X1191Y219D01*
X1191Y220D01*
X1192Y220D01*
X1192Y222D01*
X1193Y222D01*
X1193Y223D01*
X1194Y223D01*
X1194Y225D01*
X1195Y225D01*
X1195Y226D01*
X1196Y226D01*
X1196Y227D01*
X1197Y227D01*
X1197Y229D01*
X1198Y229D01*
X1198Y230D01*
X1199Y230D01*
X1199Y231D01*
X1200Y231D01*
X1200Y232D01*
X1201Y232D01*
X1201Y233D01*
X1202Y233D01*
X1202Y235D01*
X1203Y235D01*
X1203Y236D01*
X1204Y236D01*
X1204Y237D01*
X1205Y237D01*
X1205Y238D01*
X1206Y238D01*
X1206Y239D01*
X1207Y239D01*
X1207Y240D01*
X1208Y240D01*
X1208Y241D01*
X1209Y241D01*
X1209Y242D01*
X1210Y242D01*
X1210Y243D01*
X1212Y243D01*
X1212Y244D01*
X1213Y244D01*
X1213Y245D01*
X1214Y245D01*
X1214Y246D01*
X1215Y246D01*
X1215Y247D01*
X1216Y247D01*
X1216Y248D01*
X1218Y248D01*
X1218Y249D01*
X1219Y249D01*
X1219Y250D01*
X1220Y250D01*
X1220Y254D01*
X1219Y254D01*
X1219Y255D01*
X1218Y255D01*
X1218Y256D01*
X1215Y256D01*
G37*
D02*
G36*
X1357Y256D02*
X1357Y255D01*
X1356Y255D01*
X1356Y254D01*
X1355Y254D01*
X1355Y250D01*
X1356Y250D01*
X1356Y249D01*
X1357Y249D01*
X1357Y248D01*
X1358Y248D01*
X1358Y247D01*
X1359Y247D01*
X1359Y246D01*
X1361Y246D01*
X1361Y245D01*
X1362Y245D01*
X1362Y244D01*
X1363Y244D01*
X1363Y243D01*
X1364Y243D01*
X1364Y242D01*
X1365Y242D01*
X1365Y241D01*
X1366Y241D01*
X1366Y240D01*
X1367Y240D01*
X1367Y239D01*
X1368Y239D01*
X1368Y238D01*
X1369Y238D01*
X1369Y237D01*
X1370Y237D01*
X1370Y236D01*
X1371Y236D01*
X1371Y235D01*
X1372Y235D01*
X1372Y234D01*
X1373Y234D01*
X1373Y233D01*
X1374Y233D01*
X1374Y232D01*
X1375Y232D01*
X1375Y231D01*
X1376Y231D01*
X1376Y229D01*
X1377Y229D01*
X1377Y228D01*
X1378Y228D01*
X1378Y227D01*
X1379Y227D01*
X1379Y225D01*
X1380Y225D01*
X1380Y224D01*
X1381Y224D01*
X1381Y223D01*
X1382Y223D01*
X1382Y221D01*
X1383Y221D01*
X1383Y220D01*
X1384Y220D01*
X1384Y218D01*
X1385Y218D01*
X1385Y217D01*
X1386Y217D01*
X1386Y215D01*
X1387Y215D01*
X1387Y213D01*
X1388Y213D01*
X1388Y211D01*
X1389Y211D01*
X1389Y209D01*
X1390Y209D01*
X1390Y207D01*
X1391Y207D01*
X1391Y205D01*
X1392Y205D01*
X1392Y203D01*
X1393Y203D01*
X1393Y201D01*
X1394Y201D01*
X1394Y198D01*
X1395Y198D01*
X1395Y195D01*
X1396Y195D01*
X1396Y192D01*
X1397Y192D01*
X1397Y189D01*
X1398Y189D01*
X1398Y185D01*
X1399Y185D01*
X1399Y181D01*
X1400Y181D01*
X1400Y175D01*
X1401Y175D01*
X1401Y167D01*
X1402Y167D01*
X1402Y149D01*
X1401Y149D01*
X1401Y141D01*
X1400Y141D01*
X1400Y135D01*
X1399Y135D01*
X1399Y131D01*
X1398Y131D01*
X1398Y127D01*
X1397Y127D01*
X1397Y124D01*
X1396Y124D01*
X1396Y121D01*
X1395Y121D01*
X1395Y118D01*
X1394Y118D01*
X1394Y115D01*
X1393Y115D01*
X1393Y113D01*
X1392Y113D01*
X1392Y111D01*
X1391Y111D01*
X1391Y109D01*
X1390Y109D01*
X1390Y107D01*
X1389Y107D01*
X1389Y105D01*
X1388Y105D01*
X1388Y103D01*
X1387Y103D01*
X1387Y101D01*
X1386Y101D01*
X1386Y99D01*
X1385Y99D01*
X1385Y98D01*
X1384Y98D01*
X1384Y96D01*
X1383Y96D01*
X1383Y95D01*
X1382Y95D01*
X1382Y93D01*
X1381Y93D01*
X1381Y92D01*
X1380Y92D01*
X1380Y90D01*
X1379Y90D01*
X1379Y89D01*
X1378Y89D01*
X1378Y88D01*
X1377Y88D01*
X1377Y86D01*
X1376Y86D01*
X1376Y85D01*
X1375Y85D01*
X1375Y84D01*
X1374Y84D01*
X1374Y83D01*
X1373Y83D01*
X1373Y82D01*
X1372Y82D01*
X1372Y81D01*
X1371Y81D01*
X1371Y79D01*
X1370Y79D01*
X1370Y78D01*
X1369Y78D01*
X1369Y77D01*
X1368Y77D01*
X1368Y76D01*
X1367Y76D01*
X1367Y75D01*
X1366Y75D01*
X1366Y74D01*
X1364Y74D01*
X1364Y73D01*
X1363Y73D01*
X1363Y72D01*
X1362Y72D01*
X1362Y71D01*
X1361Y71D01*
X1361Y70D01*
X1360Y70D01*
X1360Y69D01*
X1359Y69D01*
X1359Y68D01*
X1357Y68D01*
X1357Y67D01*
X1356Y67D01*
X1356Y66D01*
X1355Y66D01*
X1355Y65D01*
X1353Y65D01*
X1353Y64D01*
X1352Y64D01*
X1352Y63D01*
X1351Y63D01*
X1351Y62D01*
X1349Y62D01*
X1349Y61D01*
X1347Y61D01*
X1347Y60D01*
X1346Y60D01*
X1346Y59D01*
X1344Y59D01*
X1344Y58D01*
X1342Y58D01*
X1342Y57D01*
X1341Y57D01*
X1341Y56D01*
X1339Y56D01*
X1339Y55D01*
X1337Y55D01*
X1337Y54D01*
X1334Y54D01*
X1334Y53D01*
X1332Y53D01*
X1332Y52D01*
X1330Y52D01*
X1330Y51D01*
X1327Y51D01*
X1327Y50D01*
X1325Y50D01*
X1325Y49D01*
X1321Y49D01*
X1321Y48D01*
X1318Y48D01*
X1318Y47D01*
X1314Y47D01*
X1314Y46D01*
X1310Y46D01*
X1310Y45D01*
X1304Y45D01*
X1304Y44D01*
X1295Y44D01*
X1295Y43D01*
X1328Y43D01*
X1328Y44D01*
X1331Y44D01*
X1331Y45D01*
X1334Y45D01*
X1334Y46D01*
X1336Y46D01*
X1336Y47D01*
X1338Y47D01*
X1338Y48D01*
X1340Y48D01*
X1340Y49D01*
X1342Y49D01*
X1342Y50D01*
X1344Y50D01*
X1344Y51D01*
X1346Y51D01*
X1346Y52D01*
X1348Y52D01*
X1348Y53D01*
X1350Y53D01*
X1350Y54D01*
X1351Y54D01*
X1351Y55D01*
X1353Y55D01*
X1353Y56D01*
X1355Y56D01*
X1355Y57D01*
X1356Y57D01*
X1356Y58D01*
X1357Y58D01*
X1357Y59D01*
X1359Y59D01*
X1359Y60D01*
X1360Y60D01*
X1360Y61D01*
X1362Y61D01*
X1362Y62D01*
X1363Y62D01*
X1363Y63D01*
X1364Y63D01*
X1364Y64D01*
X1365Y64D01*
X1365Y65D01*
X1367Y65D01*
X1367Y66D01*
X1368Y66D01*
X1368Y67D01*
X1369Y67D01*
X1369Y68D01*
X1370Y68D01*
X1370Y69D01*
X1371Y69D01*
X1371Y70D01*
X1372Y70D01*
X1372Y71D01*
X1373Y71D01*
X1373Y72D01*
X1374Y72D01*
X1374Y73D01*
X1375Y73D01*
X1375Y74D01*
X1376Y74D01*
X1376Y75D01*
X1377Y75D01*
X1377Y76D01*
X1378Y76D01*
X1378Y77D01*
X1379Y77D01*
X1379Y78D01*
X1380Y78D01*
X1380Y80D01*
X1381Y80D01*
X1381Y81D01*
X1382Y81D01*
X1382Y82D01*
X1383Y82D01*
X1383Y83D01*
X1384Y83D01*
X1384Y85D01*
X1385Y85D01*
X1385Y86D01*
X1386Y86D01*
X1386Y87D01*
X1387Y87D01*
X1387Y89D01*
X1388Y89D01*
X1388Y90D01*
X1389Y90D01*
X1389Y92D01*
X1390Y92D01*
X1390Y93D01*
X1391Y93D01*
X1391Y95D01*
X1392Y95D01*
X1392Y97D01*
X1393Y97D01*
X1393Y98D01*
X1394Y98D01*
X1394Y100D01*
X1395Y100D01*
X1395Y102D01*
X1396Y102D01*
X1396Y104D01*
X1397Y104D01*
X1397Y106D01*
X1398Y106D01*
X1398Y109D01*
X1399Y109D01*
X1399Y111D01*
X1400Y111D01*
X1400Y113D01*
X1401Y113D01*
X1401Y116D01*
X1402Y116D01*
X1402Y119D01*
X1403Y119D01*
X1403Y122D01*
X1404Y122D01*
X1404Y126D01*
X1405Y126D01*
X1405Y130D01*
X1406Y130D01*
X1406Y134D01*
X1407Y134D01*
X1407Y140D01*
X1408Y140D01*
X1408Y151D01*
X1409Y151D01*
X1409Y164D01*
X1408Y164D01*
X1408Y175D01*
X1407Y175D01*
X1407Y181D01*
X1406Y181D01*
X1406Y185D01*
X1405Y185D01*
X1405Y189D01*
X1404Y189D01*
X1404Y193D01*
X1403Y193D01*
X1403Y196D01*
X1402Y196D01*
X1402Y199D01*
X1401Y199D01*
X1401Y202D01*
X1400Y202D01*
X1400Y204D01*
X1399Y204D01*
X1399Y207D01*
X1398Y207D01*
X1398Y209D01*
X1397Y209D01*
X1397Y211D01*
X1396Y211D01*
X1396Y213D01*
X1395Y213D01*
X1395Y215D01*
X1394Y215D01*
X1394Y217D01*
X1393Y217D01*
X1393Y219D01*
X1392Y219D01*
X1392Y220D01*
X1391Y220D01*
X1391Y222D01*
X1390Y222D01*
X1390Y224D01*
X1389Y224D01*
X1389Y225D01*
X1388Y225D01*
X1388Y227D01*
X1387Y227D01*
X1387Y228D01*
X1386Y228D01*
X1386Y230D01*
X1385Y230D01*
X1385Y231D01*
X1384Y231D01*
X1384Y232D01*
X1383Y232D01*
X1383Y234D01*
X1382Y234D01*
X1382Y235D01*
X1381Y235D01*
X1381Y236D01*
X1380Y236D01*
X1380Y237D01*
X1379Y237D01*
X1379Y238D01*
X1378Y238D01*
X1378Y239D01*
X1377Y239D01*
X1377Y241D01*
X1376Y241D01*
X1376Y242D01*
X1375Y242D01*
X1375Y243D01*
X1374Y243D01*
X1374Y244D01*
X1373Y244D01*
X1373Y245D01*
X1372Y245D01*
X1372Y246D01*
X1371Y246D01*
X1371Y247D01*
X1370Y247D01*
X1370Y248D01*
X1368Y248D01*
X1368Y249D01*
X1367Y249D01*
X1367Y250D01*
X1366Y250D01*
X1366Y251D01*
X1365Y251D01*
X1365Y252D01*
X1364Y252D01*
X1364Y253D01*
X1362Y253D01*
X1362Y254D01*
X1361Y254D01*
X1361Y255D01*
X1359Y255D01*
X1359Y256D01*
X1357Y256D01*
G37*
D02*
G36*
X1249Y43D02*
X1249Y42D01*
X1325Y42D01*
X1325Y43D01*
X1249Y43D01*
G37*
D02*
G36*
X1249Y43D02*
X1249Y42D01*
X1325Y42D01*
X1325Y43D01*
X1249Y43D01*
G37*
D02*
G36*
X1252Y42D02*
X1252Y41D01*
X1255Y41D01*
X1255Y40D01*
X1259Y40D01*
X1259Y39D01*
X1264Y39D01*
X1264Y38D01*
X1271Y38D01*
X1271Y37D01*
X1283Y37D01*
X1283Y36D01*
X1292Y36D01*
X1292Y37D01*
X1303Y37D01*
X1303Y38D01*
X1310Y38D01*
X1310Y39D01*
X1314Y39D01*
X1314Y40D01*
X1318Y40D01*
X1318Y41D01*
X1322Y41D01*
X1322Y42D01*
X1252Y42D01*
G37*
D02*
G36*
X1515Y256D02*
X1515Y255D01*
X1513Y255D01*
X1513Y254D01*
X1512Y254D01*
X1512Y253D01*
X1511Y253D01*
X1511Y252D01*
X1509Y252D01*
X1509Y251D01*
X1508Y251D01*
X1508Y250D01*
X1507Y250D01*
X1507Y249D01*
X1506Y249D01*
X1506Y248D01*
X1505Y248D01*
X1505Y247D01*
X1504Y247D01*
X1504Y246D01*
X1503Y246D01*
X1503Y245D01*
X1502Y245D01*
X1502Y244D01*
X1501Y244D01*
X1501Y243D01*
X1500Y243D01*
X1500Y242D01*
X1499Y242D01*
X1499Y241D01*
X1498Y241D01*
X1498Y240D01*
X1497Y240D01*
X1497Y239D01*
X1496Y239D01*
X1496Y238D01*
X1495Y238D01*
X1495Y237D01*
X1494Y237D01*
X1494Y236D01*
X1493Y236D01*
X1493Y234D01*
X1492Y234D01*
X1492Y233D01*
X1491Y233D01*
X1491Y232D01*
X1490Y232D01*
X1490Y231D01*
X1489Y231D01*
X1489Y229D01*
X1488Y229D01*
X1488Y228D01*
X1487Y228D01*
X1487Y226D01*
X1486Y226D01*
X1486Y225D01*
X1485Y225D01*
X1485Y223D01*
X1484Y223D01*
X1484Y222D01*
X1483Y222D01*
X1483Y220D01*
X1482Y220D01*
X1482Y218D01*
X1481Y218D01*
X1481Y217D01*
X1480Y217D01*
X1480Y215D01*
X1479Y215D01*
X1479Y213D01*
X1478Y213D01*
X1478Y211D01*
X1477Y211D01*
X1477Y209D01*
X1476Y209D01*
X1476Y206D01*
X1475Y206D01*
X1475Y204D01*
X1474Y204D01*
X1474Y201D01*
X1473Y201D01*
X1473Y199D01*
X1472Y199D01*
X1472Y196D01*
X1471Y196D01*
X1471Y192D01*
X1470Y192D01*
X1470Y189D01*
X1469Y189D01*
X1469Y184D01*
X1468Y184D01*
X1468Y179D01*
X1467Y179D01*
X1467Y172D01*
X1466Y172D01*
X1466Y144D01*
X1467Y144D01*
X1467Y137D01*
X1468Y137D01*
X1468Y132D01*
X1469Y132D01*
X1469Y128D01*
X1470Y128D01*
X1470Y124D01*
X1471Y124D01*
X1471Y121D01*
X1472Y121D01*
X1472Y117D01*
X1473Y117D01*
X1473Y115D01*
X1474Y115D01*
X1474Y112D01*
X1475Y112D01*
X1475Y110D01*
X1476Y110D01*
X1476Y107D01*
X1477Y107D01*
X1477Y105D01*
X1478Y105D01*
X1478Y103D01*
X1479Y103D01*
X1479Y101D01*
X1480Y101D01*
X1480Y99D01*
X1481Y99D01*
X1481Y98D01*
X1482Y98D01*
X1482Y96D01*
X1483Y96D01*
X1483Y94D01*
X1484Y94D01*
X1484Y92D01*
X1485Y92D01*
X1485Y91D01*
X1486Y91D01*
X1486Y89D01*
X1487Y89D01*
X1487Y88D01*
X1488Y88D01*
X1488Y87D01*
X1489Y87D01*
X1489Y85D01*
X1490Y85D01*
X1490Y84D01*
X1491Y84D01*
X1491Y83D01*
X1492Y83D01*
X1492Y81D01*
X1493Y81D01*
X1493Y80D01*
X1494Y80D01*
X1494Y79D01*
X1495Y79D01*
X1495Y78D01*
X1496Y78D01*
X1496Y77D01*
X1497Y77D01*
X1497Y75D01*
X1498Y75D01*
X1498Y74D01*
X1499Y74D01*
X1499Y73D01*
X1500Y73D01*
X1500Y72D01*
X1501Y72D01*
X1501Y71D01*
X1502Y71D01*
X1502Y70D01*
X1503Y70D01*
X1503Y69D01*
X1504Y69D01*
X1504Y68D01*
X1505Y68D01*
X1505Y67D01*
X1507Y67D01*
X1507Y66D01*
X1508Y66D01*
X1508Y65D01*
X1509Y65D01*
X1509Y64D01*
X1510Y64D01*
X1510Y63D01*
X1511Y63D01*
X1511Y62D01*
X1513Y62D01*
X1513Y61D01*
X1514Y61D01*
X1514Y60D01*
X1515Y60D01*
X1515Y59D01*
X1517Y59D01*
X1517Y58D01*
X1518Y58D01*
X1518Y57D01*
X1520Y57D01*
X1520Y56D01*
X1521Y56D01*
X1521Y55D01*
X1523Y55D01*
X1523Y54D01*
X1524Y54D01*
X1524Y53D01*
X1526Y53D01*
X1526Y52D01*
X1528Y52D01*
X1528Y51D01*
X1530Y51D01*
X1530Y50D01*
X1532Y50D01*
X1532Y49D01*
X1534Y49D01*
X1534Y48D01*
X1536Y48D01*
X1536Y47D01*
X1538Y47D01*
X1538Y46D01*
X1540Y46D01*
X1540Y45D01*
X1543Y45D01*
X1543Y44D01*
X1546Y44D01*
X1546Y43D01*
X1580Y43D01*
X1580Y44D01*
X1570Y44D01*
X1570Y45D01*
X1565Y45D01*
X1565Y46D01*
X1560Y46D01*
X1560Y47D01*
X1557Y47D01*
X1557Y48D01*
X1553Y48D01*
X1553Y49D01*
X1550Y49D01*
X1550Y50D01*
X1547Y50D01*
X1547Y51D01*
X1545Y51D01*
X1545Y52D01*
X1542Y52D01*
X1542Y53D01*
X1540Y53D01*
X1540Y54D01*
X1538Y54D01*
X1538Y55D01*
X1536Y55D01*
X1536Y56D01*
X1534Y56D01*
X1534Y57D01*
X1532Y57D01*
X1532Y58D01*
X1531Y58D01*
X1531Y59D01*
X1529Y59D01*
X1529Y60D01*
X1527Y60D01*
X1527Y61D01*
X1526Y61D01*
X1526Y62D01*
X1524Y62D01*
X1524Y63D01*
X1523Y63D01*
X1523Y64D01*
X1521Y64D01*
X1521Y65D01*
X1520Y65D01*
X1520Y66D01*
X1518Y66D01*
X1518Y67D01*
X1517Y67D01*
X1517Y68D01*
X1516Y68D01*
X1516Y69D01*
X1515Y69D01*
X1515Y70D01*
X1513Y70D01*
X1513Y71D01*
X1512Y71D01*
X1512Y72D01*
X1511Y72D01*
X1511Y73D01*
X1510Y73D01*
X1510Y74D01*
X1509Y74D01*
X1509Y75D01*
X1508Y75D01*
X1508Y76D01*
X1507Y76D01*
X1507Y77D01*
X1506Y77D01*
X1506Y78D01*
X1505Y78D01*
X1505Y79D01*
X1504Y79D01*
X1504Y80D01*
X1503Y80D01*
X1503Y81D01*
X1502Y81D01*
X1502Y82D01*
X1501Y82D01*
X1501Y83D01*
X1500Y83D01*
X1500Y84D01*
X1499Y84D01*
X1499Y85D01*
X1498Y85D01*
X1498Y87D01*
X1497Y87D01*
X1497Y88D01*
X1496Y88D01*
X1496Y89D01*
X1495Y89D01*
X1495Y91D01*
X1494Y91D01*
X1494Y92D01*
X1493Y92D01*
X1493Y93D01*
X1492Y93D01*
X1492Y95D01*
X1491Y95D01*
X1491Y96D01*
X1490Y96D01*
X1490Y98D01*
X1489Y98D01*
X1489Y100D01*
X1488Y100D01*
X1488Y101D01*
X1487Y101D01*
X1487Y103D01*
X1486Y103D01*
X1486Y105D01*
X1485Y105D01*
X1485Y107D01*
X1484Y107D01*
X1484Y109D01*
X1483Y109D01*
X1483Y111D01*
X1482Y111D01*
X1482Y113D01*
X1481Y113D01*
X1481Y116D01*
X1480Y116D01*
X1480Y118D01*
X1479Y118D01*
X1479Y121D01*
X1478Y121D01*
X1478Y124D01*
X1477Y124D01*
X1477Y128D01*
X1476Y128D01*
X1476Y132D01*
X1475Y132D01*
X1475Y136D01*
X1474Y136D01*
X1474Y142D01*
X1473Y142D01*
X1473Y156D01*
X1472Y156D01*
X1472Y160D01*
X1473Y160D01*
X1473Y173D01*
X1474Y173D01*
X1474Y179D01*
X1475Y179D01*
X1475Y183D01*
X1476Y183D01*
X1476Y187D01*
X1477Y187D01*
X1477Y191D01*
X1478Y191D01*
X1478Y194D01*
X1479Y194D01*
X1479Y197D01*
X1480Y197D01*
X1480Y199D01*
X1481Y199D01*
X1481Y202D01*
X1482Y202D01*
X1482Y204D01*
X1483Y204D01*
X1483Y206D01*
X1484Y206D01*
X1484Y208D01*
X1485Y208D01*
X1485Y210D01*
X1486Y210D01*
X1486Y212D01*
X1487Y212D01*
X1487Y214D01*
X1488Y214D01*
X1488Y216D01*
X1489Y216D01*
X1489Y217D01*
X1490Y217D01*
X1490Y219D01*
X1491Y219D01*
X1491Y220D01*
X1492Y220D01*
X1492Y222D01*
X1493Y222D01*
X1493Y223D01*
X1494Y223D01*
X1494Y225D01*
X1495Y225D01*
X1495Y226D01*
X1496Y226D01*
X1496Y227D01*
X1497Y227D01*
X1497Y229D01*
X1498Y229D01*
X1498Y230D01*
X1499Y230D01*
X1499Y231D01*
X1500Y231D01*
X1500Y232D01*
X1501Y232D01*
X1501Y234D01*
X1502Y234D01*
X1502Y235D01*
X1503Y235D01*
X1503Y236D01*
X1504Y236D01*
X1504Y237D01*
X1505Y237D01*
X1505Y238D01*
X1506Y238D01*
X1506Y239D01*
X1507Y239D01*
X1507Y240D01*
X1508Y240D01*
X1508Y241D01*
X1509Y241D01*
X1509Y242D01*
X1510Y242D01*
X1510Y243D01*
X1511Y243D01*
X1511Y244D01*
X1513Y244D01*
X1513Y245D01*
X1514Y245D01*
X1514Y246D01*
X1515Y246D01*
X1515Y247D01*
X1516Y247D01*
X1516Y248D01*
X1518Y248D01*
X1518Y249D01*
X1519Y249D01*
X1519Y250D01*
X1520Y250D01*
X1520Y254D01*
X1519Y254D01*
X1519Y255D01*
X1518Y255D01*
X1518Y256D01*
X1515Y256D01*
G37*
D02*
G36*
X1657Y256D02*
X1657Y255D01*
X1656Y255D01*
X1656Y254D01*
X1655Y254D01*
X1655Y249D01*
X1657Y249D01*
X1657Y248D01*
X1658Y248D01*
X1658Y247D01*
X1659Y247D01*
X1659Y246D01*
X1660Y246D01*
X1660Y245D01*
X1662Y245D01*
X1662Y244D01*
X1663Y244D01*
X1663Y243D01*
X1664Y243D01*
X1664Y242D01*
X1665Y242D01*
X1665Y241D01*
X1666Y241D01*
X1666Y240D01*
X1667Y240D01*
X1667Y239D01*
X1668Y239D01*
X1668Y238D01*
X1669Y238D01*
X1669Y237D01*
X1670Y237D01*
X1670Y236D01*
X1671Y236D01*
X1671Y235D01*
X1672Y235D01*
X1672Y234D01*
X1673Y234D01*
X1673Y233D01*
X1674Y233D01*
X1674Y232D01*
X1675Y232D01*
X1675Y230D01*
X1676Y230D01*
X1676Y229D01*
X1677Y229D01*
X1677Y228D01*
X1678Y228D01*
X1678Y227D01*
X1679Y227D01*
X1679Y225D01*
X1680Y225D01*
X1680Y224D01*
X1681Y224D01*
X1681Y223D01*
X1682Y223D01*
X1682Y221D01*
X1683Y221D01*
X1683Y220D01*
X1684Y220D01*
X1684Y218D01*
X1685Y218D01*
X1685Y216D01*
X1686Y216D01*
X1686Y215D01*
X1687Y215D01*
X1687Y213D01*
X1688Y213D01*
X1688Y211D01*
X1689Y211D01*
X1689Y209D01*
X1690Y209D01*
X1690Y207D01*
X1691Y207D01*
X1691Y205D01*
X1692Y205D01*
X1692Y203D01*
X1693Y203D01*
X1693Y200D01*
X1694Y200D01*
X1694Y198D01*
X1695Y198D01*
X1695Y195D01*
X1696Y195D01*
X1696Y192D01*
X1697Y192D01*
X1697Y189D01*
X1698Y189D01*
X1698Y185D01*
X1699Y185D01*
X1699Y180D01*
X1700Y180D01*
X1700Y175D01*
X1701Y175D01*
X1701Y165D01*
X1702Y165D01*
X1702Y150D01*
X1701Y150D01*
X1701Y141D01*
X1700Y141D01*
X1700Y135D01*
X1699Y135D01*
X1699Y131D01*
X1698Y131D01*
X1698Y127D01*
X1697Y127D01*
X1697Y124D01*
X1696Y124D01*
X1696Y121D01*
X1695Y121D01*
X1695Y118D01*
X1694Y118D01*
X1694Y116D01*
X1693Y116D01*
X1693Y113D01*
X1692Y113D01*
X1692Y111D01*
X1691Y111D01*
X1691Y109D01*
X1690Y109D01*
X1690Y107D01*
X1689Y107D01*
X1689Y105D01*
X1688Y105D01*
X1688Y103D01*
X1687Y103D01*
X1687Y101D01*
X1686Y101D01*
X1686Y100D01*
X1685Y100D01*
X1685Y98D01*
X1684Y98D01*
X1684Y96D01*
X1683Y96D01*
X1683Y95D01*
X1682Y95D01*
X1682Y93D01*
X1681Y93D01*
X1681Y92D01*
X1680Y92D01*
X1680Y91D01*
X1679Y91D01*
X1679Y89D01*
X1678Y89D01*
X1678Y88D01*
X1677Y88D01*
X1677Y87D01*
X1676Y87D01*
X1676Y85D01*
X1675Y85D01*
X1675Y84D01*
X1674Y84D01*
X1674Y83D01*
X1673Y83D01*
X1673Y82D01*
X1672Y82D01*
X1672Y81D01*
X1671Y81D01*
X1671Y80D01*
X1670Y80D01*
X1670Y79D01*
X1669Y79D01*
X1669Y78D01*
X1668Y78D01*
X1668Y77D01*
X1667Y77D01*
X1667Y76D01*
X1666Y76D01*
X1666Y75D01*
X1665Y75D01*
X1665Y74D01*
X1664Y74D01*
X1664Y73D01*
X1663Y73D01*
X1663Y72D01*
X1662Y72D01*
X1662Y71D01*
X1661Y71D01*
X1661Y70D01*
X1660Y70D01*
X1660Y69D01*
X1659Y69D01*
X1659Y68D01*
X1657Y68D01*
X1657Y67D01*
X1656Y67D01*
X1656Y66D01*
X1655Y66D01*
X1655Y65D01*
X1653Y65D01*
X1653Y64D01*
X1652Y64D01*
X1652Y63D01*
X1650Y63D01*
X1650Y62D01*
X1649Y62D01*
X1649Y61D01*
X1647Y61D01*
X1647Y60D01*
X1646Y60D01*
X1646Y59D01*
X1644Y59D01*
X1644Y58D01*
X1642Y58D01*
X1642Y57D01*
X1640Y57D01*
X1640Y56D01*
X1639Y56D01*
X1639Y55D01*
X1636Y55D01*
X1636Y54D01*
X1634Y54D01*
X1634Y53D01*
X1632Y53D01*
X1632Y52D01*
X1630Y52D01*
X1630Y51D01*
X1627Y51D01*
X1627Y50D01*
X1624Y50D01*
X1624Y49D01*
X1621Y49D01*
X1621Y48D01*
X1618Y48D01*
X1618Y47D01*
X1614Y47D01*
X1614Y46D01*
X1610Y46D01*
X1610Y45D01*
X1604Y45D01*
X1604Y44D01*
X1595Y44D01*
X1595Y43D01*
X1628Y43D01*
X1628Y44D01*
X1631Y44D01*
X1631Y45D01*
X1633Y45D01*
X1633Y46D01*
X1636Y46D01*
X1636Y47D01*
X1638Y47D01*
X1638Y48D01*
X1640Y48D01*
X1640Y49D01*
X1642Y49D01*
X1642Y50D01*
X1644Y50D01*
X1644Y51D01*
X1646Y51D01*
X1646Y52D01*
X1648Y52D01*
X1648Y53D01*
X1650Y53D01*
X1650Y54D01*
X1651Y54D01*
X1651Y55D01*
X1653Y55D01*
X1653Y56D01*
X1654Y56D01*
X1654Y57D01*
X1656Y57D01*
X1656Y58D01*
X1657Y58D01*
X1657Y59D01*
X1659Y59D01*
X1659Y60D01*
X1660Y60D01*
X1660Y61D01*
X1661Y61D01*
X1661Y62D01*
X1663Y62D01*
X1663Y63D01*
X1664Y63D01*
X1664Y64D01*
X1665Y64D01*
X1665Y65D01*
X1666Y65D01*
X1666Y66D01*
X1668Y66D01*
X1668Y67D01*
X1669Y67D01*
X1669Y68D01*
X1670Y68D01*
X1670Y69D01*
X1671Y69D01*
X1671Y70D01*
X1672Y70D01*
X1672Y71D01*
X1673Y71D01*
X1673Y72D01*
X1674Y72D01*
X1674Y73D01*
X1675Y73D01*
X1675Y74D01*
X1676Y74D01*
X1676Y75D01*
X1677Y75D01*
X1677Y76D01*
X1678Y76D01*
X1678Y77D01*
X1679Y77D01*
X1679Y79D01*
X1680Y79D01*
X1680Y80D01*
X1681Y80D01*
X1681Y81D01*
X1682Y81D01*
X1682Y82D01*
X1683Y82D01*
X1683Y83D01*
X1684Y83D01*
X1684Y85D01*
X1685Y85D01*
X1685Y86D01*
X1686Y86D01*
X1686Y88D01*
X1687Y88D01*
X1687Y89D01*
X1688Y89D01*
X1688Y90D01*
X1689Y90D01*
X1689Y92D01*
X1690Y92D01*
X1690Y94D01*
X1691Y94D01*
X1691Y95D01*
X1692Y95D01*
X1692Y97D01*
X1693Y97D01*
X1693Y99D01*
X1694Y99D01*
X1694Y100D01*
X1695Y100D01*
X1695Y102D01*
X1696Y102D01*
X1696Y104D01*
X1697Y104D01*
X1697Y107D01*
X1698Y107D01*
X1698Y109D01*
X1699Y109D01*
X1699Y111D01*
X1700Y111D01*
X1700Y114D01*
X1701Y114D01*
X1701Y116D01*
X1702Y116D01*
X1702Y119D01*
X1703Y119D01*
X1703Y122D01*
X1704Y122D01*
X1704Y126D01*
X1705Y126D01*
X1705Y130D01*
X1706Y130D01*
X1706Y135D01*
X1707Y135D01*
X1707Y141D01*
X1708Y141D01*
X1708Y153D01*
X1709Y153D01*
X1709Y163D01*
X1708Y163D01*
X1708Y174D01*
X1707Y174D01*
X1707Y180D01*
X1706Y180D01*
X1706Y185D01*
X1705Y185D01*
X1705Y189D01*
X1704Y189D01*
X1704Y193D01*
X1703Y193D01*
X1703Y196D01*
X1702Y196D01*
X1702Y199D01*
X1701Y199D01*
X1701Y202D01*
X1700Y202D01*
X1700Y204D01*
X1699Y204D01*
X1699Y206D01*
X1698Y206D01*
X1698Y209D01*
X1697Y209D01*
X1697Y211D01*
X1696Y211D01*
X1696Y213D01*
X1695Y213D01*
X1695Y215D01*
X1694Y215D01*
X1694Y217D01*
X1693Y217D01*
X1693Y219D01*
X1692Y219D01*
X1692Y220D01*
X1691Y220D01*
X1691Y222D01*
X1690Y222D01*
X1690Y224D01*
X1689Y224D01*
X1689Y225D01*
X1688Y225D01*
X1688Y227D01*
X1687Y227D01*
X1687Y228D01*
X1686Y228D01*
X1686Y229D01*
X1685Y229D01*
X1685Y231D01*
X1684Y231D01*
X1684Y232D01*
X1683Y232D01*
X1683Y233D01*
X1682Y233D01*
X1682Y235D01*
X1681Y235D01*
X1681Y236D01*
X1680Y236D01*
X1680Y237D01*
X1679Y237D01*
X1679Y238D01*
X1678Y238D01*
X1678Y239D01*
X1677Y239D01*
X1677Y240D01*
X1676Y240D01*
X1676Y241D01*
X1675Y241D01*
X1675Y243D01*
X1674Y243D01*
X1674Y244D01*
X1673Y244D01*
X1673Y245D01*
X1672Y245D01*
X1672Y246D01*
X1671Y246D01*
X1671Y247D01*
X1669Y247D01*
X1669Y248D01*
X1668Y248D01*
X1668Y249D01*
X1667Y249D01*
X1667Y250D01*
X1666Y250D01*
X1666Y251D01*
X1665Y251D01*
X1665Y252D01*
X1664Y252D01*
X1664Y253D01*
X1662Y253D01*
X1662Y254D01*
X1661Y254D01*
X1661Y255D01*
X1659Y255D01*
X1659Y256D01*
X1657Y256D01*
G37*
D02*
G36*
X1549Y43D02*
X1549Y42D01*
X1625Y42D01*
X1625Y43D01*
X1549Y43D01*
G37*
D02*
G36*
X1549Y43D02*
X1549Y42D01*
X1625Y42D01*
X1625Y43D01*
X1549Y43D01*
G37*
D02*
G36*
X1552Y42D02*
X1552Y41D01*
X1555Y41D01*
X1555Y40D01*
X1559Y40D01*
X1559Y39D01*
X1564Y39D01*
X1564Y38D01*
X1570Y38D01*
X1570Y37D01*
X1582Y37D01*
X1582Y36D01*
X1592Y36D01*
X1592Y37D01*
X1603Y37D01*
X1603Y38D01*
X1610Y38D01*
X1610Y39D01*
X1614Y39D01*
X1614Y40D01*
X1618Y40D01*
X1618Y41D01*
X1622Y41D01*
X1622Y42D01*
X1552Y42D01*
G37*
D02*
G54D13*
X1358Y252D02*
X1216Y252D01*
D02*
X1358Y552D02*
X1216Y552D01*
D02*
X1658Y252D02*
X1516Y252D01*
D02*
X1658Y552D02*
X1516Y552D01*
D02*
X1658Y852D02*
X1516Y852D01*
D02*
G04 End of Silk1*
M02*