M48
M72,TZ
T10C0.035000
T11C0.031497
%
T10
X0.354654Y0.773240
X0.354654Y0.373240
X0.754650Y0.773240
X1.054650Y0.773240
X0.754650Y0.673240
X1.054650Y0.673240
X0.754650Y0.573240
X1.054650Y0.573240
X0.754650Y0.473240
X1.054650Y0.473240
X0.754654Y0.273240
X1.010560Y0.273240
X0.754654Y0.096070
X1.010560Y0.096070
T11
X1.587650Y0.806173
X1.587650Y0.707740
X1.587650Y0.506173
X1.587650Y0.407740
X1.587650Y0.206173
X1.587650Y0.107740
X1.287650Y0.506173
X1.287650Y0.407740
X1.287650Y0.206173
X1.287650Y0.107740
T00
M30
