<?xml version="1.0" encoding="UTF-8" standalone="no"?>
<!-- Created with Inkscape (http://www.inkscape.org/) -->

<svg
   xmlns:dc="http://purl.org/dc/elements/1.1/"
   xmlns:cc="http://creativecommons.org/ns#"
   xmlns:rdf="http://www.w3.org/1999/02/22-rdf-syntax-ns#"
   xmlns:svg="http://www.w3.org/2000/svg"
   xmlns="http://www.w3.org/2000/svg"
   xmlns:sodipodi="http://sodipodi.sourceforge.net/DTD/sodipodi-0.dtd"
   xmlns:inkscape="http://www.inkscape.org/namespaces/inkscape"
   width="45.354328"
   height="45.354328"
   id="svg2"
   version="1.1"
   inkscape:version="0.48.3.1 r9886"
   sodipodi:docname="base_for_text_CONVERTED.svg">
  <defs
     id="defs4" />
  <sodipodi:namedview
     id="base"
     pagecolor="#ffffff"
     bordercolor="#666666"
     borderopacity="1.0"
     inkscape:pageopacity="0.0"
     inkscape:pageshadow="2"
     inkscape:zoom="11.591182"
     inkscape:cx="21.571178"
     inkscape:cy="11.913537"
     inkscape:document-units="mm"
     inkscape:current-layer="layer1"
     showgrid="true"
     units="mm"
     showborder="true"
     inkscape:window-width="1440"
     inkscape:window-height="876"
     inkscape:window-x="0"
     inkscape:window-y="24"
     inkscape:window-maximized="1">
    <inkscape:grid
       type="xygrid"
       id="grid2989"
       empspacing="5"
       visible="true"
       enabled="true"
       snapvisiblegridlinesonly="true"
       dotted="true"
       units="mm"
       spacingx="1mm"
       spacingy="1mm" />
  </sodipodi:namedview>
  <metadata
     id="metadata7">
    <rdf:RDF>
      <cc:Work
         rdf:about="">
        <dc:format>image/svg+xml</dc:format>
        <dc:type
           rdf:resource="http://purl.org/dc/dcmitype/StillImage" />
        <dc:title></dc:title>
      </cc:Work>
    </rdf:RDF>
  </metadata>
  <g
     inkscape:label="Layer 1"
     inkscape:groupmode="layer"
     id="layer1"
     transform="translate(0,-1007.0079)">
    <path
       sodipodi:type="arc"
       style="fill:none;stroke:none"
       id="path2991"
       sodipodi:cx="38.976379"
       sodipodi:cy="34.724407"
       sodipodi:rx="10.629921"
       sodipodi:ry="10.629921"
       d="m 49.6063,34.724407 c 0,5.870743 -4.759177,10.629921 -10.629921,10.629921 -5.870743,0 -10.629921,-4.759178 -10.629921,-10.629921 0,-5.870743 4.759178,-10.629921 10.629921,-10.629921 5.826672,0 10.567395,4.690604 10.629321,10.516946"
       transform="matrix(2.7540984,0,0,2.7540984,-77.581005,926.96397)"
       sodipodi:start="0"
       sodipodi:end="6.2725571"
       sodipodi:open="true" />
    <path
       sodipodi:type="arc"
       style="fill:none;stroke:none"
       id="path2991-7"
       sodipodi:cx="38.976379"
       sodipodi:cy="34.724407"
       sodipodi:rx="10.629921"
       sodipodi:ry="10.629921"
       d="m 49.6063,34.724407 c 0,5.870743 -4.759177,10.629921 -10.629921,10.629921 -5.870743,0 -10.629921,-4.759178 -10.629921,-10.629921 0,-5.870743 4.759178,-10.629921 10.629921,-10.629921 5.826672,0 10.567395,4.690604 10.629321,10.516946"
       transform="matrix(1.6885246,0,0,1.6885246,-36.048797,963.96539)"
       sodipodi:start="0"
       sodipodi:end="6.2725571"
       sodipodi:open="true" />
    <path
       sodipodi:type="arc"
       style="fill:none;stroke:none"
       id="path2991-7-4"
       sodipodi:cx="38.976379"
       sodipodi:cy="34.724407"
       sodipodi:rx="10.629921"
       sodipodi:ry="10.629921"
       d="m 49.6063,34.724407 c 0,5.870743 -4.759177,10.629921 -10.629921,10.629921 -5.870743,0 -10.629921,-4.759178 -10.629921,-10.629921 0,-5.870743 4.759178,-10.629921 10.629921,-10.629921 5.826672,0 10.567395,4.690604 10.629321,10.516946"
       transform="matrix(1.442623,0,0,1.442623,-26.464442,972.50418)"
       sodipodi:start="0"
       sodipodi:end="6.2725571"
       sodipodi:open="true" />
    <path
       sodipodi:type="arc"
       style="fill:none;stroke:none;stroke-opacity:1"
       id="path3020"
       sodipodi:cx="24.80315"
       sodipodi:cy="20.551178"
       sodipodi:rx="17.716536"
       sodipodi:ry="14.173227"
       d="m 42.519686,20.551178 a 17.716536,14.173227 0 1 1 -35.4330714,0 17.716536,14.173227 0 1 1 35.4330714,0 z"
       transform="matrix(1.1632941,0,0,1.4541177,-7.5935158,1001.2185)" />
    <path
       sodipodi:type="arc"
       style="fill:none;stroke:none;stroke-opacity:1"
       id="path3020-1"
       sodipodi:cx="24.80315"
       sodipodi:cy="20.551178"
       sodipodi:rx="17.716536"
       sodipodi:ry="14.173227"
       d="m 42.519686,20.551178 a 17.716536,14.173227 0 1 1 -35.4330714,0 17.716536,14.173227 0 1 1 35.4330714,0 z"
       transform="matrix(0.48470588,0,0,0.60588239,2.1509957,1025.7374)" />
    <g
       style="font-size:8px;font-style:normal;font-variant:normal;font-weight:bold;font-stretch:normal;text-align:start;line-height:125%;letter-spacing:0px;word-spacing:0px;writing-mode:lr-tb;text-anchor:start;fill:#000000;fill-opacity:1;stroke:none;font-family:Ubuntu Mono;-inkscape-font-specification:Ubuntu Mono Bold"
       id="text3808">
      <path
         d="m 22.344636,1040.5055 0.376303,-0.8605 0.646148,-0.5417 0.887468,-0.2154 1.100265,0.1184 0.556676,0.1751 0.471162,0.2408 0.38405,0.2964 0.295356,0.3412 0.210085,0.3889 0.116373,0.4201 0.02849,0.4527 -0.06543,0.4675 -0.06926,0.2405 -0.08616,0.2078 -0.08935,0.1864 -0.09068,0.1573 -0.09007,0.1287 -0.08751,0.1006 -0.07707,0.083 -0.05504,0.059 -0.351979,-0.2149 -0.351979,-0.2148 0.154026,-0.1732 0.143782,-0.2167 0.127791,-0.2534 0.09419,-0.3024 0.03157,-0.2289 -0.01218,-0.2351 -0.0596,-0.2258 -0.122583,-0.2202 -0.184458,-0.2019 -0.25707,-0.1903 -0.340143,-0.1607 -0.429965,-0.1285 -0.74642,-0.1027 -0.588854,0.083 -0.416332,0.3002 -0.240734,0.5308 -0.0592,0.3456 -7.26e-4,0.2896 0.03266,0.2441 0.04464,0.1935 -0.406129,0.032 -0.406128,0.032 -0.06401,-0.268 -0.03872,-0.34 0.01162,-0.3877 0.07512,-0.4303"
         style="font-size:8px;font-style:normal;font-variant:normal;font-weight:bold;font-stretch:normal;letter-spacing:0px;stroke:none;font-family:Ubuntu Mono;-inkscape-font-specification:Ubuntu Mono Bold"
         id="path4012"
         inkscape:connector-curvature="0"
         sodipodi:nodetypes="ccccccccccccccccccccccccccccccccccccccccccccccccc" />
      <path
         d="m 19.879174,1044.9458 0.139199,-0.2775 0.177804,-0.3234 0.217321,-0.3425 0.268041,-0.3469 0.296024,-0.3024 0.290966,-0.197 0.28904,-0.1045 0.29024,-0.025 0.290399,0.059 0.287561,0.1243 0.288094,0.1794 0.292002,0.2245 0.802251,0.6744 0.802252,0.6743 -0.316567,0.3766 -0.316566,0.3766 -0.753259,-0.6331 -0.753259,-0.6331 -0.366843,-0.2692 -0.304402,-0.1383 -0.262061,0.023 -0.241777,0.1914 -0.136471,0.1779 -0.121164,0.1908 1.129888,0.9497 1.129888,0.9497 -0.31914,0.3797 -0.31914,0.3797 -1.390161,-1.1685 -1.39016,-1.1685"
         style="font-size:8px;font-style:normal;font-variant:normal;font-weight:bold;font-stretch:normal;letter-spacing:0px;stroke:none;font-family:Ubuntu Mono;-inkscape-font-specification:Ubuntu Mono Bold"
         id="path4014"
         inkscape:connector-curvature="0"
         sodipodi:nodetypes="ccccccccccccccccccccccccccccccc" />
      <path
         d="m 18.384146,1045.7278 0.582174,1.3519 0.582174,1.352 0.378409,-0.163 0.378408,-0.1629 0.161364,0.3747 0.161363,0.3748 -0.378408,0.1629 -0.378409,0.163 0.04272,0.099 0.04272,0.099 0.135136,0.3947 0.04472,0.3466 -0.03754,0.3123 -0.103273,0.2709 -0.158733,0.2382 -0.210274,0.1995 -0.244462,0.1706 -0.26763,0.137 -0.295772,0.112 -0.314195,0.09 -0.315827,0.055 -0.300677,0.01 -0.08105,-0.4006 -0.08105,-0.4006 0.216354,-0.024 0.260438,-0.042 0.26567,-0.056 0.240409,-0.084 0.120704,-0.059 0.112279,-0.068 0.08968,-0.08 0.06758,-0.1011 0.03472,-0.1216 0.0058,-0.1484 -0.02788,-0.171 -0.07256,-0.2039 -0.03955,-0.092 -0.03955,-0.092 -0.709056,0.3053 -0.709056,0.3054 -0.161363,-0.3748 -0.161364,-0.3747 0.709057,-0.3053 0.709056,-0.3053 -0.582174,-1.352 -0.582174,-1.352 0.455559,-0.1962 0.455559,-0.1961"
         style="font-size:8px;font-style:normal;font-variant:normal;font-weight:bold;font-stretch:normal;letter-spacing:0px;stroke:none;font-family:Ubuntu Mono;-inkscape-font-specification:Ubuntu Mono Bold"
         id="path4016"
         inkscape:connector-curvature="0"
         sodipodi:nodetypes="ccccccccccccccccccccccccccccccccccccccccccccccccc" />
      <path
         d="m 14.550001,1046.8139 -0.08702,1.4695 -0.08702,1.4694 0.41128,0.024 0.411279,0.024 -0.02412,0.4073 -0.02412,0.4072 -0.411279,-0.024 -0.41128,-0.024 -0.0064,0.1078 -0.0064,0.1078 -0.05654,0.4134 -0.115698,0.3298 -0.173802,0.2621 -0.213945,0.1957 -0.248801,0.1416 -0.277437,0.084 -0.295034,0.043 -0.30066,0 -0.314617,-0.033 -0.320953,-0.061 -0.307077,-0.092 -0.27301,-0.1265 0.1075,-0.3943 0.1075,-0.3944 0.203855,0.076 0.251766,0.079 0.262345,0.07 0.252489,0.033 0.134122,0 0.130835,-0.013 0.11605,-0.031 0.105721,-0.06 0.08566,-0.093 0.07181,-0.1299 0.05186,-0.1654 0.02674,-0.2146 0.0059,-0.1 0.0059,-0.1 -0.77065,-0.046 -0.77065,-0.045 0.02412,-0.4073 0.02412,-0.4073 0.77065,0.045 0.77065,0.045 0.08702,-1.4694 0.08702,-1.4694 0.495133,0.029 0.495132,0.03"
         style="font-size:8px;font-style:normal;font-variant:normal;font-weight:bold;font-stretch:normal;letter-spacing:0px;stroke:none;font-family:Ubuntu Mono;-inkscape-font-specification:Ubuntu Mono Bold"
         id="path4018"
         inkscape:connector-curvature="0"
         sodipodi:nodetypes="ccccccccccccccccccccccccccccccccccccccccccccccccc" />
      <path
         d="m 10.455871,1048.0983 -0.266706,0.384 -0.3023398,0.294 -0.3248549,0.2092 -0.334261,0.1298 -0.3424867,0.06 -0.3415151,-0.013 -0.3284252,-0.08 -0.303235,-0.139 -0.5709427,-0.4746 -0.2735064,-0.5887 0.021831,-0.6833 0.3230703,-0.7721 0.050909,-0.084 0.05637,-0.085 0.048902,-0.08 0.04232,-0.061 1.0552816,0.6122 1.0552815,0.6122 0.099856,-0.3236 -0.069761,-0.3341 -0.2227327,-0.3096 -0.3510414,-0.2638 -0.2571424,-0.1306 -0.2593642,-0.095 -0.2483589,-0.07 -0.2103044,-0.048 0.1519362,-0.3974 0.1519362,-0.3974 0.2685019,0.063 0.2743088,0.085 0.2887733,0.1119 0.3038519,0.1579 0.3793806,0.2548 0.307751,0.2825 0.224465,0.3106 0.151384,0.3329 0.06391,0.3562 -0.01609,0.3745 -0.102282,0.3915 -0.19467,0.4073 m -2.3764674,-0.9254 -0.065613,0.1331 -0.044305,0.136 -0.023263,0.144 0.00552,0.1417 0.036321,0.1367 0.069119,0.128 0.1043834,0.1229 0.1501221,0.1079 0.1637284,0.076 0.1590216,0.037 0.1471267,-7e-4 0.1418662,-0.035 0.1294165,-0.064 0.1236016,-0.086 0.1078634,-0.1062 0.096028,-0.1177 -0.6504686,-0.3773 -0.6504686,-0.3774"
         style="font-size:8px;font-style:normal;font-variant:normal;font-weight:bold;font-stretch:normal;letter-spacing:0px;stroke:none;font-family:Ubuntu Mono;-inkscape-font-specification:Ubuntu Mono Bold"
         id="path4020"
         inkscape:connector-curvature="0"
         sodipodi:nodetypes="cccccccccccccccccccccccccccccccccccccccccccccccccccccccccccc" />
      <path
         d="m 5.9030791,1041.5308 0.040335,0.023 0.067916,0.041 0.086674,0.055 0.1053715,0.077 0.1151373,0.1062 0.1293396,0.1353 0.1330454,0.159 0.1350197,0.1914 0.2388542,0.5465 -0.029298,0.5024 -0.2897678,0.4699 -0.529185,0.4403 -1.3345756,0.8753 -1.3345757,0.8753 0.2851806,0.4348 0.2851806,0.4348 -0.3411697,0.2238 -0.3411697,0.2237 -0.5550053,-0.8462 -0.5550053,-0.8462 1.7058486,-1.1188 1.7058485,-1.1188 0.248418,-0.2084 0.1030457,-0.2039 -0.00904,-0.1997 -0.087837,-0.196 -0.1658936,-0.2165 -0.1730208,-0.1544 -0.1462256,-0.1025 -0.085523,-0.061 0.2960362,-0.2707 0.2960361,-0.2707"
         style="font-size:8px;font-style:normal;font-variant:normal;font-weight:bold;font-stretch:normal;letter-spacing:0px;stroke:none;font-family:Ubuntu Mono;-inkscape-font-specification:Ubuntu Mono Bold"
         id="path4022"
         inkscape:connector-curvature="0"
         sodipodi:nodetypes="ccccccccccccccccccccccccccccccccc" />
      <path
         d="m 0.80145825,1039.4467 0.26155775,0.016 0.2123825,0.1146 0.1481202,0.1864 0.068743,0.2317 -0.014707,0.2412 -0.1022574,0.215 -0.1817315,0.1537 -0.25134081,0.073 -0.26728443,-0.014 -0.21369591,-0.1084 -0.14811275,-0.1864 -0.0687509,-0.2317 0.0147145,-0.2413 0.10224978,-0.2149 0.18304505,-0.1598 0.25706736,-0.076 m 4.48354975,-1.9858 0.1528271,0.2804 0.1033204,0.27 0.070563,0.2477 0.040474,0.2308 0.012368,0.3549 -0.050082,0.3016 -0.1087834,0.246 -0.1619228,0.2037 -0.2217031,0.1562 -0.2704146,0.1174 -0.3184425,0.085 -0.3657928,0.058 -0.6875266,0.079 -0.6875265,0.079 0.059032,0.5166 0.059032,0.5167 -0.4053625,0.046 -0.4053625,0.046 -0.1148843,-1.0055 -0.1148843,-1.0054 1.1564753,-0.1321 1.1564753,-0.1321 0.2886948,-0.063 0.1984244,-0.1136 0.1001534,-0.1806 0.011587,-0.2509 -0.024976,-0.1481 -0.044052,-0.1741 -0.080783,-0.1961 -0.1192762,-0.2159 0.3861746,-0.1085 0.3861747,-0.1085"
         style="font-size:8px;font-style:normal;font-variant:normal;font-weight:bold;font-stretch:normal;letter-spacing:0px;stroke:none;font-family:Ubuntu Mono;-inkscape-font-specification:Ubuntu Mono Bold"
         id="path4024"
         inkscape:connector-curvature="0"
         sodipodi:nodetypes="cccccccccccccccccccccccccccccccccccccccccccccccccc" />
      <path
         d="m 2.1765319,1035.3817 0.035534,-0.3002 0.059947,-0.355 0.095448,-0.3996 0.1365063,-0.4186 0.1712418,-0.3739 0.2051514,-0.2805 0.2298662,-0.1969 0.2603964,-0.1175 0.2844887,-0.055 0.3116416,0.011 0.328411,0.063 0.3498092,0.109 0.9951578,0.3651 0.9951578,0.365 -0.169438,0.4619 -0.1694379,0.4619 -0.9350728,-0.343 -0.9350728,-0.343 -0.4365585,-0.1282 -0.3182772,-0.021 -0.2260329,0.111 -0.1598356,0.2673 -0.036692,0.1058 -0.03294,0.1072 -0.027804,0.1049 -0.026807,0.1137 1.3857104,0.5083 1.3857103,0.5083 -0.1694379,0.4619 -0.169438,0.4619 -1.7086672,-0.6267 -1.7086672,-0.6268"
         style="font-size:8px;font-style:normal;font-variant:normal;font-weight:bold;font-stretch:normal;letter-spacing:0px;stroke:none;font-family:Ubuntu Mono;-inkscape-font-specification:Ubuntu Mono Bold"
         id="path4026"
         inkscape:connector-curvature="0"
         sodipodi:nodetypes="ccccccccccccccccccccccccccccccccc" />
      <path
         d="m 6.3761749,1030.6138 -0.012672,-0.2239 -0.018149,-0.2298 -0.024809,-0.2428 -0.033382,-0.2402 -0.032012,-0.2387 -0.032373,-0.2274 -0.039755,-0.2178 -0.043213,-0.198 0.4317246,-0.4051 0.4317247,-0.4051 0.019066,0.2454 0.015428,0.2708 0.012059,0.2876 0.00896,0.296 0.00905,0.2932 6.671e-4,0.2901 0.00266,0.2717 0.00338,0.2491 0.2967437,0.011 0.3357821,0.032 0.3524725,0.04 0.3577681,0.051 0.35312,0.064 0.3385375,0.077 0.3115426,0.081 0.2604805,0.085 -0.4113052,0.386 -0.4113052,0.3859 -0.2267361,-0.078 -0.2664915,-0.074 -0.2876512,-0.076 -0.2909266,-0.062 -0.2940252,-0.053 -0.2859936,-0.039 -0.2635583,-0.033 -0.2274378,-0.011 0.6075978,0.6476 0.6075979,0.6476 -0.3617152,0.3394 -0.3617152,0.3394 -1.8419521,-1.9632 -1.841952,-1.9632 0.3042397,-0.4007 0.3042398,-0.4006 1.1221401,1.196 1.1221402,1.196"
         style="font-size:8px;font-style:normal;font-variant:normal;font-weight:bold;font-stretch:normal;letter-spacing:0px;stroke:none;font-family:Ubuntu Mono;-inkscape-font-specification:Ubuntu Mono Bold"
         id="path4028"
         inkscape:connector-curvature="0"
         sodipodi:nodetypes="ccccccccccccccccccccccccccccccccccccccccccccccc" />
      <path
         d="m 12.247543,1029.1423 0.03608,0.3126 -0.09131,0.2626 -0.183376,0.1982 -0.240137,0.1189 -0.13766,0.028 -0.136791,0 -0.133439,-0.022 -0.127593,-0.043 -0.11387,-0.075 -0.103055,-0.095 -0.08166,-0.128 -0.06047,-0.1553 -0.03136,-0.1555 0.0012,-0.1443 0.0339,-0.1393 0.05605,-0.1208 0.08338,-0.106 0.100562,-0.09 0.116382,-0.072 0.13086,-0.051 0.266211,-0.031 0.261601,0.067 0.218274,0.1671 0.136246,0.2704"
         style="font-size:8px;font-style:normal;font-variant:normal;font-weight:bold;font-stretch:normal;letter-spacing:0px;stroke:none;font-family:Ubuntu Mono;-inkscape-font-specification:Ubuntu Mono Bold"
         id="path4030"
         inkscape:connector-curvature="0"
         sodipodi:nodetypes="ccccccccccccccccccccccccc" />
      <path
         d="m 14.404901,1027.5944 0.101456,-0.3841 0.160212,-0.3492 0.218812,-0.302 0.277264,-0.2429 0.336065,-0.1856 0.392398,-0.1144 0.460183,-0.039 0.520858,0.053 0.312844,0.069 0.277112,0.086 0.25838,0.1112 0.25667,0.1438 -0.176262,0.3707 -0.176262,0.3707 -0.158143,-0.081 -0.179235,-0.077 -0.210181,-0.074 -0.269536,-0.061 -0.322793,-0.035 -0.275442,0.017 -0.224012,0.059 -0.187061,0.1028 -0.150318,0.1357 -0.116598,0.174 -0.0854,0.2041 -0.05674,0.2255 -0.01111,0.4694 0.150417,0.3847 0.352517,0.2888 0.579459,0.1792 0.233699,0.034 0.244404,0.019 0.24758,0 0.227495,-0.021 -5e-4,0.4104 -5e-4,0.4103 -0.239105,0.03 -0.279581,0.01 -0.324357,-0.016 -0.370588,-0.052 -0.520857,-0.1321 -0.428686,-0.1927 -0.334349,-0.2429 -0.253586,-0.2853 -0.175502,-0.3241 -0.10009,-0.3594 -0.02251,-0.384 0.04149,-0.401"
         style="font-size:8px;font-style:normal;font-variant:normal;font-weight:bold;font-stretch:normal;letter-spacing:0px;stroke:none;font-family:Ubuntu Mono;-inkscape-font-specification:Ubuntu Mono Bold"
         id="path4032"
         inkscape:connector-curvature="0"
         sodipodi:nodetypes="ccccccccccccccccccccccccccccccccccccccccccccccccc" />
      <path
         d="m 21.882152,1030.8778 -0.282672,0.323 -0.309807,0.2525 -0.32495,0.1761 -0.337686,0.1066 -0.34523,0.033 -0.347562,-0.043 -0.336703,-0.1178 -0.325433,-0.1996 -0.283785,-0.2582 -0.211754,-0.2942 -0.135335,-0.3193 -0.06731,-0.3433 0.0083,-0.354 0.0787,-0.3611 0.156306,-0.3679 0.231501,-0.3614 0.277863,-0.3165 0.305007,-0.2462 0.332144,-0.1757 0.336887,-0.1021 0.348822,-0.028 0.345561,0.049 0.338298,0.1192 0.317441,0.1933 0.277386,0.2534 0.205362,0.2894 0.142133,0.3169 0.06532,0.3393 -0.0011,0.3544 -0.07949,0.3655 -0.151505,0.3615 -0.226693,0.355 m -2.038732,-1.5217 -0.238727,0.391 -0.110705,0.3671 0.04972,0.3301 0.229776,0.2701 0.315482,0.1395 0.332438,-0.042 0.336162,-0.1976 0.313881,-0.3347 0.235923,-0.3906 0.102308,-0.3659 -0.04493,-0.3264 -0.228173,-0.269 -0.317085,-0.1407 -0.337231,0.039 -0.327766,0.1965 -0.311076,0.3342"
         style="font-size:8px;font-style:normal;font-variant:normal;font-weight:bold;font-stretch:normal;letter-spacing:0px;stroke:none;font-family:Ubuntu Mono;-inkscape-font-specification:Ubuntu Mono Bold"
         id="path4034"
         inkscape:connector-curvature="0"
         sodipodi:nodetypes="cccccccccccccccccccccccccccccccccccccccccccccccccc" />
      <path
         d="m 25.598843,1033.3406 0.104993,0.265 0.03709,0.2361 -0.02816,0.2128 -0.09074,0.1949 -0.150652,0.1866 -0.215016,0.174 -0.26778,0.1666 -0.323239,0.172 -1.006367,0.5006 -1.006366,0.5006 -0.178151,-0.3581 -0.17815,-0.3581 1.027855,-0.5113 1.027855,-0.5113 0.177294,-0.097 0.130778,-0.092 0.09408,-0.08 0.06009,-0.077 0.03323,-0.068 0.0064,-0.068 -0.0097,-0.06 -0.02224,-0.058 -0.03654,-0.064 -0.04548,-0.064 -0.04639,-0.062 -0.05356,-0.05 -0.133461,0.091 -0.149559,0.094 -0.168355,0.097 -0.18982,0.099 -0.336649,0.1675 -0.336649,0.1674 -0.17815,-0.3581 -0.178151,-0.3582 0.386789,-0.1924 0.386789,-0.1924 0.282972,-0.1631 0.161302,-0.1472 0.05931,-0.1367 -0.03011,-0.1459 -0.02584,-0.047 -0.03477,-0.056 -0.03746,-0.053 -0.04104,-0.051 -1.321528,0.6574 -1.321527,0.6574 -0.17815,-0.3582 -0.178151,-0.3581 1.618782,-0.8053 1.618782,-0.8052 0.207901,0.2428 0.188217,0.2482 0.159607,0.24 0.122091,0.2185 0.07475,0.1817 0.03901,0.1727 0.01038,0.1691 -0.03253,0.1636 0.139329,0.096 0.139283,0.1228 0.132074,0.1441 0.103415,0.1677"
         style="font-size:8px;font-style:normal;font-variant:normal;font-weight:bold;font-stretch:normal;letter-spacing:0px;stroke:none;font-family:Ubuntu Mono;-inkscape-font-specification:Ubuntu Mono Bold"
         id="path4036"
         inkscape:connector-curvature="0"
         sodipodi:nodetypes="ccccccccccccccccccccccccccccccccccccccccccccccccccccccccccccccc" />
    </g>
  </g>
</svg>
