  0
SECTION
  2
HEADER
  9
$ACADVER
  1
AC1014
  9
$HANDSEED
  5
FFFF
  9
$MEASUREMENT
 70
     1
  0
ENDSEC
  0
SECTION
  2
TABLES
  0
TABLE
  2
VPORT
  5
8
330
0
100
AcDbSymbolTable
 70
     4
  0
VPORT
  5
2E
330
8
100
AcDbSymbolTableRecord
100
AcDbViewportTableRecord
  2
*ACTIVE
 70
     0
 10
0.0
 20
0.0
 11
1.0
 21
1.0
 12
210.0
 22
148.5
 13
0.0
 23
0.0
 14
10.0
 24
10.0
 15
10.0
 25
10.0
 16
0.0
 26
0.0
 36
1.0
 17
0.0
 27
0.0
 37
0.0
 40
341.0
 41
1.24
 42
50.0
 43
0.0
 44
0.0
 50
0.0
 51
0.0
 71
     0
 72
   100
 73
     1
 74
     3
 75
     0
 76
     0
 77
     0
 78
     0
  0
ENDTAB
  0
TABLE
  2
LTYPE
  5
5
330
0
100
AcDbSymbolTable
 70
     1
  0
LTYPE
  5
14
330
5
100
AcDbSymbolTableRecord
100
AcDbLinetypeTableRecord
  2
BYBLOCK
 70
     0
  3

 72
    65
 73
     0
 40
0.0
  0
LTYPE
  5
15
330
5
100
AcDbSymbolTableRecord
100
AcDbLinetypeTableRecord
  2
BYLAYER
 70
     0
  3

 72
    65
 73
     0
 40
0.0
  0
LTYPE
  5
16
330
5
100
AcDbSymbolTableRecord
100
AcDbLinetypeTableRecord
  2
CONTINUOUS
 70
     0
  3
Solid line
 72
    65
 73
     0
 40
0.0
  0
ENDTAB
  0
TABLE
  2
LAYER
  5
2
100
AcDbSymbolTable
 70
2
  0
LAYER
  5
50
100
AcDbSymbolTableRecord
100
AcDbLayerTableRecord
  2
0
 70
0
  6
CONTINUOUS
  0
LAYER
  5
51
100
AcDbSymbolTableRecord
100
AcDbLayerTableRecord
  2
Layer_1
 70
0
  6
CONTINUOUS
  0
ENDTAB
  0
TABLE
  2
STYLE
  5
3
330
0
100
AcDbSymbolTable
 70
     1
  0
STYLE
  5
11
330
3
100
AcDbSymbolTableRecord
100
AcDbTextStyleTableRecord
  2
STANDARD
 70
     0
 40
0.0
 41
1.0
 50
0.0
 71
     0
 42
2.5
  3
txt
  4

  0
ENDTAB
  0
TABLE
  2
VIEW
  5
6
330
0
100
AcDbSymbolTable
 70
     0
  0
ENDTAB
  0
TABLE
  2
UCS
  5
7
330
0
100
AcDbSymbolTable
 70
     0
  0
ENDTAB
  0
TABLE
  2
APPID
  5
9
330
0
100
AcDbSymbolTable
 70
     2
  0
APPID
  5
12
330
9
100
AcDbSymbolTableRecord
100
AcDbRegAppTableRecord
  2
ACAD
 70
     0
  0
ENDTAB
  0
TABLE
  2
DIMSTYLE
  5
A
330
0
100
AcDbSymbolTable
 70
     1
  0
DIMSTYLE
105
27
330
A
100
AcDbSymbolTableRecord
100
AcDbDimStyleTableRecord
  2
ISO-25
 70
     0
  3

  4

  5

  6

  7

 40
1.0
 41
2.5
 42
0.625
 43
3.75
 44
1.25
 45
0.0
 46
0.0
 47
0.0
 48
0.0
140
2.5
141
2.5
142
0.0
143
0.03937007874016
144
1.0
145
0.0
146
1.0
147
0.625
 71
     0
 72
     0
 73
     0
 74
     0
 75
     0
 76
     0
 77
     1
 78
     8
170
     0
171
     3
172
     1
173
     0
174
     0
175
     0
176
     0
177
     0
178
     0
270
     2
271
     2
272
     2
273
     2
274
     3
340
11
275
     0
280
     0
281
     0
282
     0
283
     0
284
     8
285
     0
286
     0
287
     3
288
     0
  0
ENDTAB
  0
TABLE
  2
BLOCK_RECORD
  5
1
330
0
100
AcDbSymbolTable
 70
     1
  0
BLOCK_RECORD
  5
1F
330
1
100
AcDbSymbolTableRecord
100
AcDbBlockTableRecord
  2
*MODEL_SPACE
  0
BLOCK_RECORD
  5
1B
330
1
100
AcDbSymbolTableRecord
100
AcDbBlockTableRecord
  2
*PAPER_SPACE
  0
ENDTAB
  0
ENDSEC
  0
SECTION
  2
BLOCKS
  0
BLOCK
  5
20
330
1F
100
AcDbEntity
  8
0
100
AcDbBlockBegin
  2
*MODEL_SPACE
 70
     0
 10
0.0
 20
0.0
 30
0.0
  3
*MODEL_SPACE
  1

  0
ENDBLK
  5
21
330
1F
100
AcDbEntity
  8
0
100
AcDbBlockEnd
  0
BLOCK
  5
1C
330
1B
100
AcDbEntity
 67
     1
  8
0
100
AcDbBlockBegin
  2
*PAPER_SPACE
  1

  0
ENDBLK
  5
1D
330
1B
100
AcDbEntity
 67
     1
  8
0
100
AcDbBlockEnd
  0
ENDSEC
  0
SECTION
  2
ENTITIES
  0
SPLINE
  5
100
100
AcDbEntity
  8
Layer_1
 62
7
100
AcDbSpline
 70
8
 71
3
 72
8
 73
4
 74
0
 40
0
 40
0
 40
0
 40
0
 40
1
 40
1
 40
1
 40
1
 10
9.742695
 20
6.499994
 30
0.0
 10
9.742695
 20
5.341490
 30
0.0
 10
9.124641
 20
4.270988
 30
0.0
 10
8.121347
 20
3.691737
 30
0.0
  0
SPLINE
  5
101
100
AcDbEntity
  8
Layer_1
 62
7
100
AcDbSpline
 70
8
 71
3
 72
8
 73
4
 74
0
 40
0
 40
0
 40
0
 40
0
 40
1
 40
1
 40
1
 40
1
 10
8.121347
 20
3.691737
 30
0.0
 10
7.118054
 20
3.112485
 30
0.0
 10
5.881945
 20
3.112485
 30
0.0
 10
4.878652
 20
3.691737
 30
0.0
  0
SPLINE
  5
102
100
AcDbEntity
  8
Layer_1
 62
7
100
AcDbSpline
 70
8
 71
3
 72
8
 73
4
 74
0
 40
0
 40
0
 40
0
 40
0
 40
1
 40
1
 40
1
 40
1
 10
4.878652
 20
3.691737
 30
0.0
 10
3.875358
 20
4.270988
 30
0.0
 10
3.257304
 20
5.341490
 30
0.0
 10
3.257304
 20
6.499994
 30
0.0
  0
SPLINE
  5
103
100
AcDbEntity
  8
Layer_1
 62
7
100
AcDbSpline
 70
8
 71
3
 72
8
 73
4
 74
0
 40
0
 40
0
 40
0
 40
0
 40
1
 40
1
 40
1
 40
1
 10
3.257304
 20
6.499994
 30
0.0
 10
3.257304
 20
7.658497
 30
0.0
 10
3.875358
 20
8.728999
 30
0.0
 10
4.878652
 20
9.308250
 30
0.0
  0
SPLINE
  5
104
100
AcDbEntity
  8
Layer_1
 62
7
100
AcDbSpline
 70
8
 71
3
 72
8
 73
4
 74
0
 40
0
 40
0
 40
0
 40
0
 40
1
 40
1
 40
1
 40
1
 10
4.878652
 20
9.308250
 30
0.0
 10
5.881945
 20
9.887502
 30
0.0
 10
7.118054
 20
9.887502
 30
0.0
 10
8.121347
 20
9.308250
 30
0.0
  0
SPLINE
  5
105
100
AcDbEntity
  8
Layer_1
 62
7
100
AcDbSpline
 70
8
 71
3
 72
8
 73
4
 74
0
 40
0
 40
0
 40
0
 40
0
 40
1
 40
1
 40
1
 40
1
 10
8.121347
 20
9.308250
 30
0.0
 10
9.124641
 20
8.728999
 30
0.0
 10
9.742695
 20
7.658497
 30
0.0
 10
9.742695
 20
6.499994
 30
0.0
  0
LWPOLYLINE
  5
106
100
AcDbEntity
  8
Layer_1
 62
7
100
AcDbPolyline
 90
2
 70
0
 10
9.742695
 20
6.499994
 30
0.0
 10
9.742695
 20
6.499994
 30
0.0
  0
LWPOLYLINE
  5
107
100
AcDbEntity
  8
Layer_1
 62
7
100
AcDbPolyline
 90
35
 70
0
 10
10.734803
 20
4.613934
 30
0.0
 10
11.043998
 20
4.674414
 30
0.0
 10
11.218587
 20
4.924547
 30
0.0
 10
11.239198
 20
5.152357
 30
0.0
 10
11.151840
 20
5.356122
 30
0.0
 10
10.964311
 20
5.525286
 30
0.0
 10
10.684414
 20
5.649294
 30
0.0
 10
10.388698
 20
5.705795
 30
0.0
 10
10.142933
 20
5.675823
 30
0.0
 10
9.958483
 20
5.560281
 30
0.0
 10
9.848386
 20
5.365463
 30
0.0
 10
9.821182
 20
5.187720
 30
0.0
 10
9.856917
 20
5.031792
 30
0.0
 10
9.953013
 20
4.903635
 30
0.0
 10
10.106895
 20
4.809231
 30
0.0
 10
10.045709
 20
4.612494
 30
0.0
 10
9.984523
 20
4.415785
 30
0.0
 10
9.704024
 20
4.580603
 30
0.0
 10
9.524513
 20
4.827802
 30
0.0
 10
9.458270
 20
5.135113
 30
0.0
 10
9.512183
 20
5.481852
 30
0.0
 10
9.695102
 20
5.827687
 30
0.0
 10
9.989058
 20
6.045845
 30
0.0
 10
10.371760
 20
6.124077
 30
0.0
 10
10.815529
 20
6.051771
 30
0.0
 10
11.223809
 20
5.858308
 30
0.0
 10
11.494662
 20
5.574562
 30
0.0
 10
11.613996
 20
5.224155
 30
0.0
 10
11.567724
 20
4.830680
 30
0.0
 10
11.422961
 20
4.529154
 30
0.0
 10
11.204925
 20
4.319886
 30
0.0
 10
10.929672
 20
4.214109
 30
0.0
 10
10.614947
 20
4.228503
 30
0.0
 10
10.674875
 20
4.421204
 30
0.0
 10
10.734804
 20
4.613877
 30
0.0
  0
LWPOLYLINE
  5
108
100
AcDbEntity
  8
Layer_1
 62
7
100
AcDbPolyline
 90
29
 70
0
 10
8.088232
 20
3.590511
 30
0.0
 10
8.238247
 20
3.719063
 30
0.0
 10
8.388262
 20
3.847587
 30
0.0
 10
8.447025
 20
3.779036
 30
0.0
 10
8.505788
 20
3.710456
 30
0.0
 10
8.534910
 20
3.977918
 30
0.0
 10
8.693203
 20
4.194382
 30
0.0
 10
8.879644
 20
4.308597
 30
0.0
 10
9.070356
 20
4.335409
 30
0.0
 10
9.254244
 20
4.273715
 30
0.0
 10
9.424497
 20
4.125971
 30
0.0
 10
9.769731
 20
3.723071
 30
0.0
 10
10.114964
 20
3.320171
 30
0.0
 10
9.964949
 20
3.191647
 30
0.0
 10
9.814935
 20
3.063094
 30
0.0
 10
9.496328
 20
3.434922
 30
0.0
 10
9.177721
 20
3.806750
 30
0.0
 10
8.995907
 20
3.921332
 30
0.0
 10
8.806718
 20
3.849337
 30
0.0
 10
8.721451
 20
3.749346
 30
0.0
 10
8.684241
 20
3.636626
 30
0.0
 10
8.696393
 20
3.521593
 30
0.0
 10
8.759205
 20
3.414659
 30
0.0
 10
9.069548
 20
3.052483
 30
0.0
 10
9.379892
 20
2.690307
 30
0.0
 10
9.229877
 20
2.561783
 30
0.0
 10
9.079862
 20
2.433231
 30
0.0
 10
8.584047
 20
3.011871
 30
0.0
 10
8.088233
 20
3.590483
 30
0.0
  0
LWPOLYLINE
  5
109
100
AcDbEntity
  8
Layer_1
 62
7
100
AcDbPolyline
 90
57
 70
0
 10
6.587595
 20
1.696377
 30
0.0
 10
6.563208
 20
1.825324
 30
0.0
 10
6.538822
 20
1.954271
 30
0.0
 10
6.653904
 20
1.976003
 30
0.0
 10
6.768987
 20
1.997734
 30
0.0
 10
6.654663
 20
2.602254
 30
0.0
 10
6.540339
 20
3.206774
 30
0.0
 10
6.734454
 20
3.243491
 30
0.0
 10
6.928569
 20
3.280208
 30
0.0
 10
7.042893
 20
2.675660
 30
0.0
 10
7.157217
 20
2.071140
 30
0.0
 10
7.343012
 20
2.106276
 30
0.0
 10
7.528808
 20
2.141413
 30
0.0
 10
7.414484
 20
2.745933
 30
0.0
 10
7.300160
 20
3.350481
 30
0.0
 10
7.494275
 20
3.387170
 30
0.0
 10
7.688390
 20
3.423887
 30
0.0
 10
7.802714
 20
2.819367
 30
0.0
 10
7.917038
 20
2.214847
 30
0.0
 10
8.022414
 20
2.234885
 30
0.0
 10
8.127791
 20
2.254923
 30
0.0
 10
8.152175
 20
2.125975
 30
0.0
 10
8.176562
 20
1.997028
 30
0.0
 10
8.071185
 20
1.976990
 30
0.0
 10
7.965809
 20
1.956953
 30
0.0
 10
7.982852
 20
1.866839
 30
0.0
 10
7.999896
 20
1.776725
 30
0.0
 10
7.957322
 20
1.477852
 30
0.0
 10
7.688009
 20
1.329996
 30
0.0
 10
7.575306
 20
1.310805
 30
0.0
 10
7.464590
 20
1.296411
 30
0.0
 10
7.437059
 20
1.441982
 30
0.0
 10
7.409528
 20
1.587580
 30
0.0
 10
7.463397
 20
1.590967
 30
0.0
 10
7.522024
 20
1.600280
 30
0.0
 10
7.595551
 20
1.644335
 30
0.0
 10
7.605375
 20
1.736678
 30
0.0
 10
7.591478
 20
1.810169
 30
0.0
 10
7.577582
 20
1.883659
 30
0.0
 10
7.391786
 20
1.848523
 30
0.0
 10
7.205990
 20
1.813386
 30
0.0
 10
7.223034
 20
1.723244
 30
0.0
 10
7.240077
 20
1.633131
 30
0.0
 10
7.197504
 20
1.334286
 30
0.0
 10
6.928190
 20
1.186401
 30
0.0
 10
6.815488
 20
1.167210
 30
0.0
 10
6.704771
 20
1.152817
 30
0.0
 10
6.677240
 20
1.298387
 30
0.0
 10
6.649710
 20
1.443985
 30
0.0
 10
6.703579
 20
1.447372
 30
0.0
 10
6.762206
 20
1.456685
 30
0.0
 10
6.835732
 20
1.500740
 30
0.0
 10
6.845557
 20
1.593083
 30
0.0
 10
6.831660
 20
1.666574
 30
0.0
 10
6.817763
 20
1.740065
 30
0.0
 10
6.702681
 20
1.718334
 30
0.0
 10
6.587599
 20
1.696603
 30
0.0
  0
LWPOLYLINE
  5
10a
100
AcDbEntity
  8
Layer_1
 62
7
100
AcDbPolyline
 90
39
 70
0
 10
5.030857
 20
1.937733
 30
0.0
 10
4.939933
 20
1.973039
 30
0.0
 10
4.855161
 20
2.018195
 30
0.0
 10
4.775614
 20
2.077236
 30
0.0
 10
4.700357
 20
2.154169
 30
0.0
 10
4.633878
 20
2.246795
 30
0.0
 10
4.586027
 20
2.351217
 30
0.0
 10
4.555425
 20
2.472290
 30
0.0
 10
4.547785
 20
2.618594
 30
0.0
 10
4.564969
 20
2.782086
 30
0.0
 10
4.610581
 20
2.960140
 30
0.0
 10
4.621659
 20
2.992144
 30
0.0
 10
4.634074
 20
3.023724
 30
0.0
 10
5.120196
 20
2.866809
 30
0.0
 10
5.606319
 20
2.709893
 30
0.0
 10
5.626763
 20
2.789282
 30
0.0
 10
5.639709
 20
2.859245
 30
0.0
 10
5.641317
 20
2.923959
 30
0.0
 10
5.634880
 20
2.991297
 30
0.0
 10
5.612192
 20
3.054233
 30
0.0
 10
5.572173
 20
3.109407
 30
0.0
 10
5.510168
 20
3.153885
 30
0.0
 10
5.428621
 20
3.188345
 30
0.0
 10
5.234609
 20
3.200480
 30
0.0
 10
5.082292
 20
3.098372
 30
0.0
 10
4.896974
 20
3.158175
 30
0.0
 10
4.711657
 20
3.218006
 30
0.0
 10
4.866066
 20
3.381695
 30
0.0
 10
5.067032
 20
3.482900
 30
0.0
 10
5.295668
 20
3.513634
 30
0.0
 10
5.534816
 20
3.471329
 30
0.0
 10
5.794739
 20
3.332588
 30
0.0
 10
5.956783
 20
3.115672
 30
0.0
 10
6.012783
 20
2.834381
 30
0.0
 10
5.956303
 20
2.507879
 30
0.0
 10
5.805981
 20
2.196079
 30
0.0
 10
5.590827
 20
1.991214
 30
0.0
 10
5.326613
 20
1.900790
 30
0.0
 10
5.030842
 20
1.937677
 30
0.0
  0
LWPOLYLINE
  5
10b
100
AcDbEntity
  8
Layer_1
 62
7
100
AcDbPolyline
 90
9
 70
0
 10
4.942868
 20
2.648171
 30
0.0
 10
4.926442
 20
2.498537
 30
0.0
 10
4.952604
 20
2.375178
 30
0.0
 10
5.019085
 20
2.282524
 30
0.0
 10
5.128979
 20
2.223342
 30
0.0
 10
5.350357
 20
2.243098
 30
0.0
 10
5.520307
 20
2.461848
 30
0.0
 10
5.231587
 20
2.555038
 30
0.0
 10
4.942868
 20
2.648228
 30
0.0
  0
LWPOLYLINE
  5
10c
100
AcDbEntity
  8
Layer_1
 62
7
100
AcDbPolyline
 90
9
 70
0
 10
3.062420
 20
2.460070
 30
0.0
 10
3.697090
 20
3.269653
 30
0.0
 10
4.331761
 20
4.079235
 30
0.0
 10
4.487235
 20
3.957344
 30
0.0
 10
4.642710
 20
3.835480
 30
0.0
 10
4.008039
 20
3.025897
 30
0.0
 10
3.373369
 20
2.216315
 30
0.0
 10
3.217894
 20
2.338178
 30
0.0
 10
3.062420
 20
2.460070
 30
0.0
  0
LWPOLYLINE
  5
10d
100
AcDbEntity
  8
Layer_1
 62
7
100
AcDbPolyline
 90
9
 70
0
 10
2.649882
 20
3.682713
 30
0.0
 10
3.245951
 20
4.157411
 30
0.0
 10
3.842020
 20
4.632137
 30
0.0
 10
3.965092
 20
4.477592
 30
0.0
 10
4.088164
 20
4.323047
 30
0.0
 10
3.492095
 20
3.848349
 30
0.0
 10
2.896026
 20
3.373652
 30
0.0
 10
2.772954
 20
3.528168
 30
0.0
 10
2.649882
 20
3.682713
 30
0.0
  0
LWPOLYLINE
  5
10e
100
AcDbEntity
  8
Layer_1
 62
7
100
AcDbPolyline
 90
9
 70
0
 10
2.232634
 20
3.350425
 30
0.0
 10
2.370613
 20
3.460294
 30
0.0
 10
2.508592
 20
3.570191
 30
0.0
 10
2.631664
 20
3.415646
 30
0.0
 10
2.754736
 20
3.261130
 30
0.0
 10
2.616757
 20
3.151232
 30
0.0
 10
2.478778
 20
3.041363
 30
0.0
 10
2.355706
 20
3.195880
 30
0.0
 10
2.232634
 20
3.350425
 30
0.0
  0
LWPOLYLINE
  5
10f
100
AcDbEntity
  8
Layer_1
 62
7
100
AcDbPolyline
 90
29
 70
0
 10
2.117651
 20
4.501327
 30
0.0
 10
2.062099
 20
4.690924
 30
0.0
 10
2.006546
 20
4.880521
 30
0.0
 10
2.112172
 20
4.911452
 30
0.0
 10
2.217797
 20
4.942412
 30
0.0
 10
1.985923
 20
5.078867
 30
0.0
 10
1.853607
 20
5.312123
 30
0.0
 10
1.826273
 20
5.528362
 30
0.0
 10
1.880766
 20
5.711214
 30
0.0
 10
2.011990
 20
5.855514
 30
0.0
 10
2.216425
 20
5.950736
 30
0.0
 10
2.706635
 20
6.094359
 30
0.0
 10
3.196846
 20
6.238010
 30
0.0
 10
3.252398
 20
6.048413
 30
0.0
 10
3.307950
 20
5.858844
 30
0.0
 10
2.857011
 20
5.726708
 30
0.0
 10
2.406072
 20
5.594571
 30
0.0
 10
2.226897
 20
5.475897
 30
0.0
 10
2.214787
 20
5.273854
 30
0.0
 10
2.270929
 20
5.155010
 30
0.0
 10
2.358404
 20
5.074774
 30
0.0
 10
2.468263
 20
5.038593
 30
0.0
 10
2.591549
 20
5.051858
 30
0.0
 10
3.030300
 20
5.180410
 30
0.0
 10
3.469052
 20
5.308991
 30
0.0
 10
3.524605
 20
5.119394
 30
0.0
 10
3.580157
 20
4.929825
 30
0.0
 10
2.848904
 20
4.715534
 30
0.0
 10
2.117651
 20
4.501271
 30
0.0
  0
LWPOLYLINE
  5
110
100
AcDbEntity
  8
Layer_1
 62
7
100
AcDbPolyline
 90
25
 70
0
 10
2.379083
 20
7.204197
 30
0.0
 10
2.145158
 20
7.513174
 30
0.0
 10
1.911233
 20
7.822179
 30
0.0
 10
1.960734
 20
8.041015
 30
0.0
 10
2.010236
 20
8.259850
 30
0.0
 10
2.233724
 20
7.943112
 30
0.0
 10
2.457212
 20
7.626345
 30
0.0
 10
2.980994
 20
7.792857
 30
0.0
 10
3.504776
 20
7.959396
 30
0.0
 10
3.453718
 20
7.733675
 30
0.0
 10
3.402659
 20
7.507981
 30
0.0
 10
3.034929
 20
7.404519
 30
0.0
 10
2.667198
 20
7.301056
 30
0.0
 10
2.733720
 20
7.205016
 30
0.0
 10
2.800242
 20
7.108947
 30
0.0
 10
3.043854
 20
7.053829
 30
0.0
 10
3.287466
 20
6.998711
 30
0.0
 10
3.243879
 20
6.806038
 30
0.0
 10
3.200293
 20
6.613337
 30
0.0
 10
2.196942
 20
6.840300
 30
0.0
 10
1.193592
 20
7.067263
 30
0.0
 10
1.237178
 20
7.259965
 30
0.0
 10
1.280765
 20
7.452638
 30
0.0
 10
1.829924
 20
7.328432
 30
0.0
 10
2.379083
 20
7.204197
 30
0.0
  0
LWPOLYLINE
  5
111
100
AcDbEntity
  8
Layer_1
 62
7
100
AcDbPolyline
 90
9
 70
0
 10
3.572125
 20
8.698028
 30
0.0
 10
3.743707
 20
8.583982
 30
0.0
 10
3.915288
 20
8.469936
 30
0.0
 10
3.798125
 20
8.293660
 30
0.0
 10
3.680962
 20
8.117384
 30
0.0
 10
3.509380
 20
8.231430
 30
0.0
 10
3.337798
 20
8.345476
 30
0.0
 10
3.454962
 20
8.521752
 30
0.0
 10
3.572125
 20
8.698028
 30
0.0
  0
LWPOLYLINE
  5
112
100
AcDbEntity
  8
Layer_1
 62
7
100
AcDbPolyline
 90
35
 70
0
 10
3.912171
 20
10.149130
 30
0.0
 10
3.789600
 20
9.906645
 30
0.0
 10
3.943642
 20
9.555786
 30
0.0
 10
4.077250
 20
9.406829
 30
0.0
 10
4.217105
 20
9.321570
 30
0.0
 10
4.356377
 20
9.304636
 30
0.0
 10
4.483659
 20
9.357327
 30
0.0
 10
4.558101
 20
9.430197
 30
0.0
 10
4.593780
 20
9.513368
 30
0.0
 10
4.590726
 20
9.616464
 30
0.0
 10
4.552284
 20
9.744480
 30
0.0
 10
4.705607
 20
9.855139
 30
0.0
 10
4.858931
 20
9.965798
 30
0.0
 10
4.948850
 20
9.727885
 30
0.0
 10
4.943951
 20
9.491157
 30
0.0
 10
4.849128
 20
9.276527
 30
0.0
 10
4.668011
 20
9.097090
 30
0.0
 10
4.393167
 20
8.963119
 30
0.0
 10
4.117853
 20
8.957475
 30
0.0
 10
3.857575
 20
9.079395
 30
0.0
 10
3.623264
 20
9.324448
 30
0.0
 10
3.459263
 20
9.632437
 30
0.0
 10
3.423125
 20
9.924848
 30
0.0
 10
3.513196
 20
10.188246
 30
0.0
 10
3.727818
 20
10.409282
 30
0.0
 10
3.959759
 20
10.527957
 30
0.0
 10
4.193324
 20
10.550252
 30
0.0
 10
4.415707
 20
10.478427
 30
0.0
 10
4.609526
 20
10.311182
 30
0.0
 10
4.456202
 20
10.200523
 30
0.0
 10
4.302879
 20
10.089863
 30
0.0
 10
4.194385
 20
10.169055
 30
0.0
 10
4.098907
 20
10.203683
 30
0.0
 10
4.008056
 20
10.198039
 30
0.0
 10
3.912171
 20
10.148876
 30
0.0
  0
LWPOLYLINE
  5
113
100
AcDbEntity
  8
Layer_1
 62
7
100
AcDbPolyline
 90
17
 70
0
 10
5.898678
 20
11.254651
 30
0.0
 10
6.221259
 20
11.242515
 30
0.0
 10
6.478342
 20
11.112072
 30
0.0
 10
6.661082
 20
10.876473
 30
0.0
 10
6.755780
 20
10.542378
 30
0.0
 10
6.748513
 20
10.209779
 30
0.0
 10
6.630534
 20
9.939382
 30
0.0
 10
6.414497
 20
9.748572
 30
0.0
 10
6.113060
 20
9.654620
 30
0.0
 10
5.794069
 20
9.666473
 30
0.0
 10
5.536564
 20
9.794715
 30
0.0
 10
5.353916
 20
10.029637
 30
0.0
 10
5.260236
 20
10.356027
 30
0.0
 10
5.265973
 20
10.694835
 30
0.0
 10
5.381577
 20
10.967038
 30
0.0
 10
5.595936
 20
11.159768
 30
0.0
 10
5.898681
 20
11.254594
 30
0.0
  0
LWPOLYLINE
  5
114
100
AcDbEntity
  8
Layer_1
 62
7
100
AcDbPolyline
 90
17
 70
0
 10
5.943277
 20
10.938816
 30
0.0
 10
5.803625
 20
10.886181
 30
0.0
 10
5.703628
 20
10.770499
 30
0.0
 10
5.650620
 20
10.606189
 30
0.0
 10
5.651947
 20
10.407815
 30
0.0
 10
5.702229
 20
10.215904
 30
0.0
 10
5.796110
 20
10.071011
 30
0.0
 10
5.922740
 20
9.985272
 30
0.0
 10
6.071270
 20
9.970596
 30
0.0
 10
6.208915
 20
10.022243
 30
0.0
 10
6.308491
 20
10.135781
 30
0.0
 10
6.363689
 20
10.299639
 30
0.0
 10
6.363350
 20
10.496009
 30
0.0
 10
6.312328
 20
10.693537
 30
0.0
 10
6.218447
 20
10.838401
 30
0.0
 10
6.093215
 20
10.924338
 30
0.0
 10
5.943287
 20
10.938731
 30
0.0
  0
LWPOLYLINE
  5
115
100
AcDbEntity
  8
Layer_1
 62
7
100
AcDbPolyline
 90
51
 70
0
 10
7.872099
 20
11.192731
 30
0.0
 10
8.043450
 20
11.097255
 30
0.0
 10
8.214801
 20
11.001808
 30
0.0
 10
8.168791
 20
10.919201
 30
0.0
 10
8.122781
 20
10.836623
 30
0.0
 10
8.255910
 20
10.875542
 30
0.0
 10
8.370093
 20
10.886266
 30
0.0
 10
8.479857
 20
10.868204
 30
0.0
 10
8.592054
 20
10.820734
 30
0.0
 10
8.785861
 20
10.648155
 30
0.0
 10
8.844606
 20
10.421615
 30
0.0
 10
9.098361
 20
10.474081
 30
0.0
 10
9.344027
 20
10.401860
 30
0.0
 10
9.506433
 20
10.275848
 30
0.0
 10
9.594247
 20
10.120343
 30
0.0
 10
9.606857
 20
9.942910
 30
0.0
 10
9.538728
 20
9.753906
 30
0.0
 10
9.276403
 20
9.283018
 30
0.0
 10
9.014077
 20
8.812102
 30
0.0
 10
8.841493
 20
8.908255
 30
0.0
 10
8.668909
 20
9.004380
 30
0.0
 10
8.916127
 20
9.448146
 30
0.0
 10
9.163345
 20
9.891941
 30
0.0
 10
9.189885
 20
9.970032
 30
0.0
 10
9.181616
 20
10.046514
 30
0.0
 10
9.142630
 20
10.114275
 30
0.0
 10
9.072109
 20
10.168914
 30
0.0
 10
8.963258
 20
10.206929
 30
0.0
 10
8.858604
 20
10.197333
 30
0.0
 10
8.766364
 20
10.140494
 30
0.0
 10
8.689839
 20
10.039374
 30
0.0
 10
8.467343
 20
9.639945
 30
0.0
 10
8.244846
 20
9.240544
 30
0.0
 10
8.072263
 20
9.336669
 30
0.0
 10
7.899679
 20
9.432822
 30
0.0
 10
8.146896
 20
9.876616
 30
0.0
 10
8.394114
 20
10.320411
 30
0.0
 10
8.420655
 20
10.398501
 30
0.0
 10
8.412383
 20
10.474984
 30
0.0
 10
8.373398
 20
10.542717
 30
0.0
 10
8.302876
 20
10.597355
 30
0.0
 10
8.194025
 20
10.635371
 30
0.0
 10
8.089371
 20
10.625775
 30
0.0
 10
7.997132
 20
10.568935
 30
0.0
 10
7.920606
 20
10.467815
 30
0.0
 10
7.698110
 20
10.068386
 30
0.0
 10
7.475613
 20
9.668985
 30
0.0
 10
7.303029
 20
9.765138
 30
0.0
 10
7.130445
 20
9.861291
 30
0.0
 10
7.501272
 20
10.526969
 30
0.0
 10
7.872099
 20
11.192647
 30
0.0
  0
ENDSEC
  0
SECTION
  2
OBJECTS
  0
DICTIONARY
  5
C
330
0
100
AcDbDictionary
  3
ACAD_GROUP
350
D
  3
ACAD_MLINESTYLE
350
17
  0
DICTIONARY
  5
D
330
C
100
AcDbDictionary
  0
DICTIONARY
  5
1A
330
C
100
AcDbDictionary
  0
DICTIONARY
  5
17
330
C
100
AcDbDictionary
  3
STANDARD
350
18
  0
DICTIONARY
  5
19
330
C
100
AcDbDictionary
  0
ENDSEC
  0
EOF
