G04 (created by PCBNEW-RS274X (2011-05-25)-stable) date Wed 12 Sep 2012 12:16:03 BST*
G01*
G70*
G90*
%MOIN*%
G04 Gerber Fmt 3.4, Leading zero omitted, Abs format*
%FSLAX34Y34*%
G04 APERTURE LIST*
%ADD10C,0.006000*%
%ADD11R,0.035400X0.023600*%
%ADD12R,0.055000X0.055000*%
%ADD13C,0.055000*%
%ADD14C,0.008000*%
G04 APERTURE END LIST*
G54D10*
G54D11*
X46082Y-41929D03*
X46082Y-41535D03*
X46082Y-41142D03*
X46082Y-40749D03*
X46082Y-40355D03*
X44862Y-40355D03*
X44862Y-40749D03*
X44862Y-41142D03*
X44862Y-41535D03*
X44862Y-41929D03*
G54D12*
X39937Y-42642D03*
G54D13*
X40937Y-42642D03*
X41937Y-42642D03*
X42937Y-42642D03*
X42937Y-39642D03*
X41937Y-39642D03*
X40937Y-39642D03*
X39937Y-39642D03*
G54D14*
X42044Y-40749D02*
X44862Y-40749D01*
X40937Y-39642D02*
X42044Y-40749D01*
X46082Y-41535D02*
X45762Y-41535D01*
X41404Y-43109D02*
X40937Y-42642D01*
X44694Y-43109D02*
X41404Y-43109D01*
X45762Y-42041D02*
X44694Y-43109D01*
X45762Y-41535D02*
X45762Y-42041D01*
X42650Y-40355D02*
X44862Y-40355D01*
X41937Y-39642D02*
X42650Y-40355D01*
X46082Y-42662D02*
X46082Y-41929D01*
X45390Y-43354D02*
X46082Y-42662D01*
X40649Y-43354D02*
X45390Y-43354D01*
X40355Y-43060D02*
X40649Y-43354D01*
X40355Y-42642D02*
X40355Y-43060D01*
X39937Y-42642D02*
X40355Y-42642D01*
X45049Y-39642D02*
X45762Y-40355D01*
X42937Y-39642D02*
X45049Y-39642D01*
X46082Y-40355D02*
X45762Y-40355D01*
X46082Y-40749D02*
X45762Y-40749D01*
X44901Y-42642D02*
X42937Y-42642D01*
X45433Y-42110D02*
X44901Y-42642D01*
X45433Y-41078D02*
X45433Y-42110D01*
X45762Y-40749D02*
X45433Y-41078D01*
X42224Y-41929D02*
X44862Y-41929D01*
X39937Y-39642D02*
X42224Y-41929D01*
M02*
