G04 (created by PCBNEW-RS274X (2011-05-25)-stable) date Wed 12 Sep 2012 12:16:03 BST*
G01*
G70*
G90*
%MOIN*%
G04 Gerber Fmt 3.4, Leading zero omitted, Abs format*
%FSLAX34Y34*%
G04 APERTURE LIST*
%ADD10C,0.006000*%
%ADD11C,0.012000*%
%ADD12C,0.007800*%
%ADD13C,0.010000*%
%ADD14C,0.004900*%
%ADD15C,0.008000*%
G04 APERTURE END LIST*
G54D10*
G54D11*
X39748Y-39104D02*
X39405Y-39104D01*
X39577Y-39104D02*
X39577Y-38304D01*
X39520Y-38418D01*
X39462Y-38494D01*
X39405Y-38532D01*
X40119Y-38304D02*
X40176Y-38304D01*
X40233Y-38342D01*
X40262Y-38380D01*
X40291Y-38456D01*
X40319Y-38609D01*
X40319Y-38799D01*
X40291Y-38951D01*
X40262Y-39028D01*
X40233Y-39066D01*
X40176Y-39104D01*
X40119Y-39104D01*
X40062Y-39066D01*
X40033Y-39028D01*
X40005Y-38951D01*
X39976Y-38799D01*
X39976Y-38609D01*
X40005Y-38456D01*
X40033Y-38380D01*
X40062Y-38342D01*
X40119Y-38304D01*
X40844Y-38304D02*
X41244Y-38304D01*
X40987Y-39104D01*
X42044Y-38304D02*
X41930Y-38304D01*
X41873Y-38342D01*
X41844Y-38380D01*
X41787Y-38494D01*
X41758Y-38647D01*
X41758Y-38951D01*
X41787Y-39028D01*
X41815Y-39066D01*
X41873Y-39104D01*
X41987Y-39104D01*
X42044Y-39066D01*
X42073Y-39028D01*
X42101Y-38951D01*
X42101Y-38761D01*
X42073Y-38685D01*
X42044Y-38647D01*
X41987Y-38609D01*
X41873Y-38609D01*
X41815Y-38647D01*
X41787Y-38685D01*
X41758Y-38761D01*
X43057Y-38304D02*
X42771Y-38304D01*
X42742Y-38685D01*
X42771Y-38647D01*
X42828Y-38609D01*
X42971Y-38609D01*
X43028Y-38647D01*
X43057Y-38685D01*
X43085Y-38761D01*
X43085Y-38951D01*
X43057Y-39028D01*
X43028Y-39066D01*
X42971Y-39104D01*
X42828Y-39104D01*
X42771Y-39066D01*
X42742Y-39028D01*
X43028Y-43491D02*
X43028Y-44025D01*
X42885Y-43187D02*
X42742Y-43758D01*
X43114Y-43758D01*
X40774Y-43301D02*
X40803Y-43263D01*
X40860Y-43225D01*
X41003Y-43225D01*
X41060Y-43263D01*
X41089Y-43301D01*
X41117Y-43377D01*
X41117Y-43453D01*
X41089Y-43568D01*
X40746Y-44025D01*
X41117Y-44025D01*
X40133Y-44025D02*
X39790Y-44025D01*
X39962Y-44025D02*
X39962Y-43225D01*
X39905Y-43339D01*
X39847Y-43415D01*
X39790Y-43453D01*
G54D12*
X44567Y-40119D02*
X46377Y-40119D01*
X46377Y-40119D02*
X46377Y-42165D01*
X44567Y-42165D02*
X46377Y-42165D01*
X44567Y-40119D02*
X44567Y-42165D01*
X44567Y-41929D02*
X44646Y-42008D01*
X44724Y-42086D02*
X44803Y-42165D01*
G54D13*
X39437Y-40642D02*
X39937Y-40642D01*
X39937Y-40642D02*
X39937Y-41642D01*
X39937Y-41642D02*
X39437Y-41642D01*
X39437Y-40142D02*
X43437Y-40142D01*
X43437Y-40142D02*
X43437Y-42142D01*
X43437Y-42142D02*
X39437Y-42142D01*
X39437Y-42142D02*
X39437Y-40142D01*
G54D11*
G54D14*
X45551Y-41978D02*
X45457Y-42043D01*
X45551Y-42090D02*
X45354Y-42090D01*
X45354Y-42015D01*
X45364Y-41996D01*
X45373Y-41987D01*
X45392Y-41978D01*
X45420Y-41978D01*
X45439Y-41987D01*
X45448Y-41996D01*
X45457Y-42015D01*
X45457Y-42090D01*
X45354Y-41921D02*
X45551Y-41856D01*
X45354Y-41790D01*
X45476Y-41724D02*
X45476Y-41574D01*
X45439Y-41452D02*
X45429Y-41471D01*
X45420Y-41480D01*
X45401Y-41489D01*
X45392Y-41489D01*
X45373Y-41480D01*
X45364Y-41471D01*
X45354Y-41452D01*
X45354Y-41414D01*
X45364Y-41396D01*
X45373Y-41386D01*
X45392Y-41377D01*
X45401Y-41377D01*
X45420Y-41386D01*
X45429Y-41396D01*
X45439Y-41414D01*
X45439Y-41452D01*
X45448Y-41471D01*
X45457Y-41480D01*
X45476Y-41489D01*
X45514Y-41489D01*
X45532Y-41480D01*
X45542Y-41471D01*
X45551Y-41452D01*
X45551Y-41414D01*
X45542Y-41396D01*
X45532Y-41386D01*
X45514Y-41377D01*
X45476Y-41377D01*
X45457Y-41386D01*
X45448Y-41396D01*
X45439Y-41414D01*
X45354Y-41198D02*
X45354Y-41292D01*
X45448Y-41301D01*
X45439Y-41292D01*
X45429Y-41273D01*
X45429Y-41226D01*
X45439Y-41208D01*
X45448Y-41198D01*
X45467Y-41189D01*
X45514Y-41189D01*
X45532Y-41198D01*
X45542Y-41208D01*
X45551Y-41226D01*
X45551Y-41273D01*
X45542Y-41292D01*
X45532Y-41301D01*
X45354Y-41020D02*
X45354Y-41057D01*
X45364Y-41076D01*
X45373Y-41085D01*
X45401Y-41104D01*
X45439Y-41113D01*
X45514Y-41113D01*
X45532Y-41104D01*
X45542Y-41095D01*
X45551Y-41076D01*
X45551Y-41038D01*
X45542Y-41020D01*
X45532Y-41010D01*
X45514Y-41001D01*
X45467Y-41001D01*
X45448Y-41010D01*
X45439Y-41020D01*
X45429Y-41038D01*
X45429Y-41076D01*
X45439Y-41095D01*
X45448Y-41104D01*
X45467Y-41113D01*
X45420Y-40832D02*
X45551Y-40832D01*
X45345Y-40879D02*
X45486Y-40925D01*
X45486Y-40804D01*
X45476Y-40728D02*
X45476Y-40578D01*
X45532Y-40372D02*
X45542Y-40381D01*
X45551Y-40409D01*
X45551Y-40428D01*
X45542Y-40456D01*
X45523Y-40475D01*
X45504Y-40484D01*
X45467Y-40493D01*
X45439Y-40493D01*
X45401Y-40484D01*
X45382Y-40475D01*
X45364Y-40456D01*
X45354Y-40428D01*
X45354Y-40409D01*
X45364Y-40381D01*
X45373Y-40372D01*
X45373Y-40296D02*
X45364Y-40287D01*
X45354Y-40268D01*
X45354Y-40221D01*
X45364Y-40203D01*
X45373Y-40193D01*
X45392Y-40184D01*
X45411Y-40184D01*
X45439Y-40193D01*
X45551Y-40306D01*
X45551Y-40184D01*
G54D15*
X40885Y-41344D02*
X40885Y-40844D01*
X40980Y-40844D01*
X41038Y-40868D01*
X41076Y-40916D01*
X41095Y-40963D01*
X41114Y-41059D01*
X41114Y-41130D01*
X41095Y-41225D01*
X41076Y-41273D01*
X41038Y-41321D01*
X40980Y-41344D01*
X40885Y-41344D01*
X41285Y-41344D02*
X41285Y-40844D01*
X41666Y-41344D02*
X41475Y-41344D01*
X41475Y-40844D01*
X41856Y-41059D02*
X41818Y-41035D01*
X41799Y-41011D01*
X41780Y-40963D01*
X41780Y-40940D01*
X41799Y-40892D01*
X41818Y-40868D01*
X41856Y-40844D01*
X41933Y-40844D01*
X41971Y-40868D01*
X41990Y-40892D01*
X42009Y-40940D01*
X42009Y-40963D01*
X41990Y-41011D01*
X41971Y-41035D01*
X41933Y-41059D01*
X41856Y-41059D01*
X41818Y-41082D01*
X41799Y-41106D01*
X41780Y-41154D01*
X41780Y-41249D01*
X41799Y-41297D01*
X41818Y-41321D01*
X41856Y-41344D01*
X41933Y-41344D01*
X41971Y-41321D01*
X41990Y-41297D01*
X42009Y-41249D01*
X42009Y-41154D01*
X41990Y-41106D01*
X41971Y-41082D01*
X41933Y-41059D01*
M02*
