G04 (created by PCBNEW-RS274X (2011-05-25)-stable) date Wed 12 Sep 2012 12:16:03 BST*
G01*
G70*
G90*
%MOIN*%
G04 Gerber Fmt 3.4, Leading zero omitted, Abs format*
%FSLAX34Y34*%
G04 APERTURE LIST*
%ADD10C,0.006000*%
%ADD11C,0.012000*%
G04 APERTURE END LIST*
G54D10*
G54D11*
X44962Y-40875D02*
X45162Y-40494D01*
X45305Y-40875D02*
X45305Y-40075D01*
X45077Y-40075D01*
X45019Y-40113D01*
X44991Y-40151D01*
X44962Y-40227D01*
X44962Y-40341D01*
X44991Y-40418D01*
X45019Y-40456D01*
X45077Y-40494D01*
X45305Y-40494D01*
X44791Y-40075D02*
X44591Y-40875D01*
X44391Y-40075D01*
X44191Y-40570D02*
X43734Y-40570D01*
X43362Y-40418D02*
X43420Y-40380D01*
X43448Y-40341D01*
X43477Y-40265D01*
X43477Y-40227D01*
X43448Y-40151D01*
X43420Y-40113D01*
X43362Y-40075D01*
X43248Y-40075D01*
X43191Y-40113D01*
X43162Y-40151D01*
X43134Y-40227D01*
X43134Y-40265D01*
X43162Y-40341D01*
X43191Y-40380D01*
X43248Y-40418D01*
X43362Y-40418D01*
X43420Y-40456D01*
X43448Y-40494D01*
X43477Y-40570D01*
X43477Y-40722D01*
X43448Y-40799D01*
X43420Y-40837D01*
X43362Y-40875D01*
X43248Y-40875D01*
X43191Y-40837D01*
X43162Y-40799D01*
X43134Y-40722D01*
X43134Y-40570D01*
X43162Y-40494D01*
X43191Y-40456D01*
X43248Y-40418D01*
X42591Y-40075D02*
X42877Y-40075D01*
X42906Y-40456D01*
X42877Y-40418D01*
X42820Y-40380D01*
X42677Y-40380D01*
X42620Y-40418D01*
X42591Y-40456D01*
X42563Y-40532D01*
X42563Y-40722D01*
X42591Y-40799D01*
X42620Y-40837D01*
X42677Y-40875D01*
X42820Y-40875D01*
X42877Y-40837D01*
X42906Y-40799D01*
X42049Y-40075D02*
X42163Y-40075D01*
X42220Y-40113D01*
X42249Y-40151D01*
X42306Y-40265D01*
X42335Y-40418D01*
X42335Y-40722D01*
X42306Y-40799D01*
X42278Y-40837D01*
X42220Y-40875D01*
X42106Y-40875D01*
X42049Y-40837D01*
X42020Y-40799D01*
X41992Y-40722D01*
X41992Y-40532D01*
X42020Y-40456D01*
X42049Y-40418D01*
X42106Y-40380D01*
X42220Y-40380D01*
X42278Y-40418D01*
X42306Y-40456D01*
X42335Y-40532D01*
X41478Y-40341D02*
X41478Y-40875D01*
X41621Y-40037D02*
X41764Y-40608D01*
X41392Y-40608D01*
X41164Y-40570D02*
X40707Y-40570D01*
X40078Y-40799D02*
X40107Y-40837D01*
X40193Y-40875D01*
X40250Y-40875D01*
X40335Y-40837D01*
X40393Y-40761D01*
X40421Y-40684D01*
X40450Y-40532D01*
X40450Y-40418D01*
X40421Y-40265D01*
X40393Y-40189D01*
X40335Y-40113D01*
X40250Y-40075D01*
X40193Y-40075D01*
X40107Y-40113D01*
X40078Y-40151D01*
X39850Y-40151D02*
X39821Y-40113D01*
X39764Y-40075D01*
X39621Y-40075D01*
X39564Y-40113D01*
X39535Y-40151D01*
X39507Y-40227D01*
X39507Y-40303D01*
X39535Y-40418D01*
X39878Y-40875D01*
X39507Y-40875D01*
X44007Y-41581D02*
X43778Y-41581D01*
X43921Y-41315D02*
X43921Y-42001D01*
X43893Y-42077D01*
X43835Y-42115D01*
X43778Y-42115D01*
X43492Y-42115D02*
X43550Y-42077D01*
X43578Y-42039D01*
X43607Y-41962D01*
X43607Y-41734D01*
X43578Y-41658D01*
X43550Y-41620D01*
X43492Y-41581D01*
X43407Y-41581D01*
X43350Y-41620D01*
X43321Y-41658D01*
X43292Y-41734D01*
X43292Y-41962D01*
X43321Y-42039D01*
X43350Y-42077D01*
X43407Y-42115D01*
X43492Y-42115D01*
X42578Y-42115D02*
X42578Y-41315D01*
X42435Y-41315D01*
X42350Y-41353D01*
X42292Y-41429D01*
X42264Y-41505D01*
X42235Y-41658D01*
X42235Y-41772D01*
X42264Y-41924D01*
X42292Y-42001D01*
X42350Y-42077D01*
X42435Y-42115D01*
X42578Y-42115D01*
X41978Y-42115D02*
X41978Y-41315D01*
X41406Y-42115D02*
X41692Y-42115D01*
X41692Y-41315D01*
X41120Y-41658D02*
X41178Y-41620D01*
X41206Y-41581D01*
X41235Y-41505D01*
X41235Y-41467D01*
X41206Y-41391D01*
X41178Y-41353D01*
X41120Y-41315D01*
X41006Y-41315D01*
X40949Y-41353D01*
X40920Y-41391D01*
X40892Y-41467D01*
X40892Y-41505D01*
X40920Y-41581D01*
X40949Y-41620D01*
X41006Y-41658D01*
X41120Y-41658D01*
X41178Y-41696D01*
X41206Y-41734D01*
X41235Y-41810D01*
X41235Y-41962D01*
X41206Y-42039D01*
X41178Y-42077D01*
X41120Y-42115D01*
X41006Y-42115D01*
X40949Y-42077D01*
X40920Y-42039D01*
X40892Y-41962D01*
X40892Y-41810D01*
X40920Y-41734D01*
X40949Y-41696D01*
X41006Y-41658D01*
M02*
