G04 (created by PCBNEW-RS274X (2011-05-25)-stable) date Wed 10 Oct 2012 17:52:01 BST*
G01*
G70*
G90*
%MOIN*%
G04 Gerber Fmt 3.4, Leading zero omitted, Abs format*
%FSLAX34Y34*%
G04 APERTURE LIST*
%ADD10C,0.006000*%
%ADD11C,0.015000*%
%ADD12C,0.049200*%
%ADD13R,0.122000X0.082700*%
%ADD14R,0.025000X0.045000*%
%ADD15R,0.045000X0.025000*%
%ADD16R,0.035400X0.023600*%
%ADD17R,0.013700X0.047200*%
%ADD18C,0.035000*%
%ADD19C,0.008000*%
G04 APERTURE END LIST*
G54D10*
G54D11*
X39666Y-37205D02*
X39660Y-37262D01*
X39643Y-37317D01*
X39616Y-37368D01*
X39580Y-37413D01*
X39535Y-37450D01*
X39484Y-37477D01*
X39429Y-37494D01*
X39372Y-37500D01*
X39315Y-37495D01*
X39260Y-37479D01*
X39208Y-37452D01*
X39163Y-37416D01*
X39126Y-37372D01*
X39098Y-37321D01*
X39081Y-37266D01*
X39075Y-37209D01*
X39079Y-37152D01*
X39095Y-37097D01*
X39122Y-37045D01*
X39158Y-37000D01*
X39202Y-36962D01*
X39252Y-36934D01*
X39307Y-36916D01*
X39364Y-36910D01*
X39421Y-36914D01*
X39477Y-36930D01*
X39528Y-36956D01*
X39574Y-36991D01*
X39611Y-37035D01*
X39640Y-37085D01*
X39658Y-37140D01*
X39665Y-37197D01*
X39666Y-37205D01*
X39665Y-41536D02*
X39659Y-41593D01*
X39642Y-41648D01*
X39615Y-41699D01*
X39579Y-41743D01*
X39534Y-41780D01*
X39484Y-41807D01*
X39429Y-41824D01*
X39372Y-41830D01*
X39315Y-41825D01*
X39260Y-41809D01*
X39209Y-41782D01*
X39164Y-41746D01*
X39127Y-41702D01*
X39099Y-41652D01*
X39082Y-41597D01*
X39076Y-41540D01*
X39080Y-41483D01*
X39096Y-41428D01*
X39123Y-41377D01*
X39158Y-41332D01*
X39202Y-41294D01*
X39252Y-41266D01*
X39307Y-41248D01*
X39364Y-41242D01*
X39421Y-41246D01*
X39476Y-41261D01*
X39528Y-41287D01*
X39573Y-41323D01*
X39611Y-41366D01*
X39639Y-41417D01*
X39657Y-41471D01*
X39664Y-41528D01*
X39665Y-41536D01*
X42224Y-39370D02*
X42169Y-39924D01*
X42008Y-40457D01*
X41747Y-40949D01*
X41395Y-41381D01*
X40965Y-41736D01*
X40475Y-42000D01*
X39943Y-42165D01*
X39389Y-42223D01*
X38836Y-42173D01*
X38301Y-42016D01*
X37808Y-41758D01*
X37374Y-41409D01*
X37016Y-40982D01*
X36747Y-40494D01*
X36579Y-39963D01*
X36517Y-39409D01*
X36563Y-38855D01*
X36717Y-38320D01*
X36972Y-37824D01*
X37318Y-37388D01*
X37742Y-37027D01*
X38228Y-36755D01*
X38758Y-36583D01*
X39311Y-36517D01*
X39865Y-36560D01*
X40402Y-36710D01*
X40899Y-36961D01*
X41338Y-37304D01*
X41702Y-37725D01*
X41977Y-38210D01*
X42153Y-38738D01*
X42222Y-39291D01*
X42224Y-39370D01*
G54D12*
X40551Y-41043D03*
G54D13*
X39370Y-37205D03*
X39370Y-41535D03*
G54D14*
X39070Y-38189D03*
X39670Y-38189D03*
X39070Y-39370D03*
X39670Y-39370D03*
X39070Y-40551D03*
X39670Y-40551D03*
X40546Y-37795D03*
X41146Y-37795D03*
G54D15*
X37008Y-38972D03*
X37008Y-39572D03*
G54D16*
X41555Y-40157D03*
X41555Y-39763D03*
X41555Y-39370D03*
X41555Y-38977D03*
X41555Y-38583D03*
X40335Y-38583D03*
X40335Y-38977D03*
X40335Y-39370D03*
X40335Y-39763D03*
X40335Y-40157D03*
G54D17*
X37708Y-40521D03*
X37964Y-40521D03*
X38218Y-40521D03*
X38474Y-40521D03*
X38474Y-38219D03*
X38218Y-38219D03*
X37964Y-38219D03*
X37708Y-38219D03*
G54D18*
X37645Y-38922D03*
X40086Y-38070D03*
X38480Y-37704D03*
X40267Y-37219D03*
X38070Y-39236D03*
X41073Y-38993D03*
G54D19*
X37708Y-40521D02*
X37708Y-40142D01*
X37708Y-41163D02*
X37708Y-40521D01*
X38080Y-41535D02*
X37708Y-41163D01*
X39370Y-41535D02*
X38080Y-41535D01*
X39370Y-38480D02*
X39370Y-37205D01*
X37708Y-40142D02*
X39370Y-38480D01*
X38802Y-39558D02*
X38802Y-39370D01*
X38218Y-40142D02*
X38802Y-39558D01*
X38218Y-40521D02*
X38218Y-40142D01*
X39070Y-39370D02*
X38802Y-39370D01*
X38802Y-38457D02*
X38802Y-38189D01*
X38661Y-38598D02*
X38802Y-38457D01*
X38218Y-38598D02*
X38661Y-38598D01*
X38218Y-38219D02*
X38218Y-38598D01*
X39070Y-38189D02*
X38802Y-38189D01*
X38802Y-40819D02*
X38802Y-40551D01*
X38721Y-40900D02*
X38802Y-40819D01*
X37964Y-40900D02*
X38721Y-40900D01*
X37964Y-40521D02*
X37964Y-40900D01*
X39070Y-40551D02*
X38802Y-40551D01*
X40546Y-37795D02*
X40814Y-37795D01*
X37008Y-38972D02*
X37376Y-38972D01*
X37426Y-38922D02*
X37645Y-38922D01*
X37376Y-38972D02*
X37426Y-38922D01*
X37645Y-38661D02*
X37645Y-38922D01*
X37708Y-38598D02*
X37645Y-38661D01*
X37708Y-38219D02*
X37708Y-38598D01*
X41555Y-40157D02*
X41235Y-40157D01*
X40278Y-37878D02*
X40278Y-37795D01*
X40086Y-38070D02*
X40278Y-37878D01*
X40546Y-37795D02*
X40278Y-37795D01*
X40707Y-39629D02*
X41235Y-40157D01*
X40707Y-38909D02*
X40707Y-39629D01*
X40814Y-38802D02*
X40707Y-38909D01*
X40814Y-37795D02*
X40814Y-38802D01*
X39670Y-40551D02*
X39402Y-40551D01*
X40430Y-41043D02*
X39938Y-40551D01*
X40551Y-41043D02*
X40430Y-41043D01*
X39670Y-40551D02*
X39938Y-40551D01*
X38813Y-40182D02*
X39301Y-40182D01*
X38474Y-40521D02*
X38813Y-40182D01*
X39402Y-40283D02*
X39402Y-40551D01*
X39301Y-40182D02*
X39402Y-40283D01*
X39402Y-40081D02*
X39301Y-40182D01*
X39402Y-39370D02*
X39402Y-40081D01*
X39670Y-39370D02*
X39402Y-39370D01*
X39739Y-38933D02*
X39739Y-38715D01*
X39670Y-39002D02*
X39739Y-38933D01*
X39670Y-39370D02*
X39670Y-39002D01*
X39670Y-38557D02*
X39670Y-38189D01*
X39739Y-38626D02*
X39670Y-38557D01*
X39739Y-38715D02*
X39739Y-38626D01*
X39883Y-38715D02*
X40015Y-38583D01*
X39739Y-38715D02*
X39883Y-38715D01*
X40335Y-38583D02*
X40015Y-38583D01*
X41146Y-37795D02*
X41146Y-38117D01*
X41146Y-38494D02*
X41235Y-38583D01*
X41146Y-38117D02*
X41146Y-38494D01*
X41441Y-38583D02*
X41235Y-38583D01*
X41441Y-38583D02*
X41555Y-38583D01*
X40570Y-37219D02*
X40267Y-37219D01*
X41146Y-37795D02*
X40570Y-37219D01*
X38474Y-37710D02*
X38480Y-37704D01*
X38474Y-38219D02*
X38474Y-37710D01*
X37628Y-39572D02*
X37008Y-39572D01*
X37964Y-39236D02*
X37628Y-39572D01*
X37964Y-38219D02*
X37964Y-39236D01*
X41219Y-38993D02*
X41235Y-38977D01*
X41073Y-38993D02*
X41219Y-38993D01*
X41555Y-38977D02*
X41235Y-38977D01*
X37964Y-39236D02*
X38070Y-39236D01*
M02*
