G04 (created by PCBNEW-RS274X (2011-05-25)-stable) date Mon 20 Aug 2012 19:38:16 BST*
G01*
G70*
G90*
%MOIN*%
G04 Gerber Fmt 3.4, Leading zero omitted, Abs format*
%FSLAX34Y34*%
G04 APERTURE LIST*
%ADD10C,0.006000*%
%ADD11C,0.015000*%
%ADD12C,0.005900*%
%ADD13C,0.005000*%
%ADD14C,0.007800*%
%ADD15C,0.002600*%
%ADD16C,0.000100*%
%ADD17C,0.004500*%
%ADD18C,0.003900*%
%ADD19C,0.012000*%
%ADD20C,0.003500*%
%ADD21R,0.045000X0.065000*%
%ADD22R,0.065000X0.045000*%
%ADD23C,0.065000*%
%ADD24R,0.055400X0.043600*%
%ADD25R,0.033700X0.067200*%
%ADD26R,0.142000X0.102700*%
G04 APERTURE END LIST*
G54D10*
G54D11*
X38287Y-38780D02*
X38386Y-38780D01*
X38287Y-38681D02*
X38287Y-38780D01*
X38386Y-38681D02*
X38287Y-38681D01*
G54D12*
X39160Y-38939D02*
X39068Y-38752D01*
X39003Y-38939D02*
X39003Y-38545D01*
X39108Y-38545D01*
X39134Y-38564D01*
X39147Y-38583D01*
X39160Y-38621D01*
X39160Y-38677D01*
X39147Y-38714D01*
X39134Y-38733D01*
X39108Y-38752D01*
X39003Y-38752D01*
X38970Y-39970D02*
X39180Y-39970D01*
X39075Y-40120D02*
X39075Y-39820D01*
G54D11*
X40650Y-38583D02*
X40748Y-38583D01*
X40650Y-38583D02*
X40650Y-38484D01*
X42224Y-39370D02*
X42169Y-39924D01*
X42008Y-40457D01*
X41747Y-40949D01*
X41395Y-41381D01*
X40965Y-41736D01*
X40475Y-42000D01*
X39943Y-42165D01*
X39389Y-42223D01*
X38836Y-42173D01*
X38301Y-42016D01*
X37808Y-41758D01*
X37374Y-41409D01*
X37016Y-40982D01*
X36747Y-40494D01*
X36579Y-39963D01*
X36517Y-39409D01*
X36563Y-38855D01*
X36717Y-38320D01*
X36972Y-37824D01*
X37318Y-37388D01*
X37742Y-37027D01*
X38228Y-36755D01*
X38758Y-36583D01*
X39311Y-36517D01*
X39865Y-36560D01*
X40402Y-36710D01*
X40899Y-36961D01*
X41338Y-37304D01*
X41702Y-37725D01*
X41977Y-38210D01*
X42153Y-38738D01*
X42222Y-39291D01*
X42224Y-39370D01*
G54D12*
X40033Y-40532D02*
X40007Y-40513D01*
X39968Y-40513D01*
X39928Y-40532D01*
X39902Y-40570D01*
X39889Y-40607D01*
X39876Y-40682D01*
X39876Y-40739D01*
X39889Y-40814D01*
X39902Y-40851D01*
X39928Y-40889D01*
X39968Y-40907D01*
X39994Y-40907D01*
X40033Y-40889D01*
X40046Y-40870D01*
X40046Y-40739D01*
X39994Y-40739D01*
G54D13*
X38920Y-37939D02*
X39820Y-37939D01*
X39820Y-37939D02*
X39820Y-38439D01*
X39820Y-38439D02*
X38920Y-38439D01*
X38920Y-38439D02*
X38920Y-37939D01*
X38920Y-39120D02*
X39820Y-39120D01*
X39820Y-39120D02*
X39820Y-39620D01*
X39820Y-39620D02*
X38920Y-39620D01*
X38920Y-39620D02*
X38920Y-39120D01*
X38920Y-40301D02*
X39820Y-40301D01*
X39820Y-40301D02*
X39820Y-40801D01*
X39820Y-40801D02*
X38920Y-40801D01*
X38920Y-40801D02*
X38920Y-40301D01*
X37356Y-38920D02*
X37356Y-39820D01*
X37356Y-39820D02*
X36856Y-39820D01*
X36856Y-39820D02*
X36856Y-38920D01*
X36856Y-38920D02*
X37356Y-38920D01*
X40298Y-37447D02*
X41198Y-37447D01*
X41198Y-37447D02*
X41198Y-37947D01*
X41198Y-37947D02*
X40298Y-37947D01*
X40298Y-37947D02*
X40298Y-37447D01*
X40769Y-40846D02*
X40762Y-40907D01*
X40745Y-40966D01*
X40716Y-41020D01*
X40677Y-41068D01*
X40629Y-41107D01*
X40575Y-41137D01*
X40516Y-41155D01*
X40455Y-41161D01*
X40394Y-41156D01*
X40335Y-41138D01*
X40280Y-41110D01*
X40232Y-41071D01*
X40193Y-41024D01*
X40163Y-40970D01*
X40144Y-40911D01*
X40138Y-40850D01*
X40143Y-40789D01*
X40160Y-40730D01*
X40188Y-40675D01*
X40226Y-40627D01*
X40273Y-40587D01*
X40327Y-40557D01*
X40386Y-40538D01*
X40447Y-40531D01*
X40507Y-40535D01*
X40567Y-40552D01*
X40622Y-40580D01*
X40670Y-40618D01*
X40711Y-40664D01*
X40741Y-40718D01*
X40761Y-40776D01*
X40768Y-40838D01*
X40769Y-40846D01*
G54D14*
X41850Y-40393D02*
X40040Y-40393D01*
X40040Y-40393D02*
X40040Y-38347D01*
X41850Y-38347D02*
X40040Y-38347D01*
X41850Y-40393D02*
X41850Y-38347D01*
X41850Y-38583D02*
X41771Y-38504D01*
X41693Y-38426D02*
X41614Y-38347D01*
G54D15*
X38425Y-38111D02*
X38425Y-38504D01*
X38425Y-38504D02*
X38524Y-38504D01*
X38524Y-38111D02*
X38524Y-38504D01*
X38425Y-38111D02*
X38524Y-38111D01*
X38169Y-38111D02*
X38169Y-38504D01*
X38169Y-38504D02*
X38268Y-38504D01*
X38268Y-38111D02*
X38268Y-38504D01*
X38169Y-38111D02*
X38268Y-38111D01*
X37914Y-38111D02*
X37914Y-38504D01*
X37914Y-38504D02*
X38013Y-38504D01*
X38013Y-38111D02*
X38013Y-38504D01*
X37914Y-38111D02*
X38013Y-38111D01*
X37658Y-38111D02*
X37658Y-38504D01*
X37658Y-38504D02*
X37757Y-38504D01*
X37757Y-38111D02*
X37757Y-38504D01*
X37658Y-38111D02*
X37757Y-38111D01*
X37658Y-40236D02*
X37658Y-40629D01*
X37658Y-40629D02*
X37757Y-40629D01*
X37757Y-40236D02*
X37757Y-40629D01*
X37658Y-40236D02*
X37757Y-40236D01*
X37914Y-40236D02*
X37914Y-40629D01*
X37914Y-40629D02*
X38013Y-40629D01*
X38013Y-40236D02*
X38013Y-40629D01*
X37914Y-40236D02*
X38013Y-40236D01*
X38169Y-40236D02*
X38169Y-40629D01*
X38169Y-40629D02*
X38268Y-40629D01*
X38268Y-40236D02*
X38268Y-40629D01*
X38169Y-40236D02*
X38268Y-40236D01*
X38425Y-40236D02*
X38425Y-40629D01*
X38425Y-40629D02*
X38524Y-40629D01*
X38524Y-40236D02*
X38524Y-40629D01*
X38425Y-40236D02*
X38524Y-40236D01*
G54D14*
X37540Y-38524D02*
X37540Y-40216D01*
X37540Y-40216D02*
X38642Y-40216D01*
X38642Y-40216D02*
X38642Y-38524D01*
X38642Y-38524D02*
X37540Y-38524D01*
G54D16*
X38435Y-38731D02*
X38433Y-38748D01*
X38428Y-38764D01*
X38420Y-38780D01*
X38409Y-38793D01*
X38395Y-38804D01*
X38380Y-38813D01*
X38363Y-38818D01*
X38346Y-38819D01*
X38330Y-38818D01*
X38313Y-38813D01*
X38298Y-38805D01*
X38284Y-38794D01*
X38273Y-38781D01*
X38265Y-38766D01*
X38259Y-38749D01*
X38258Y-38732D01*
X38259Y-38715D01*
X38264Y-38699D01*
X38272Y-38683D01*
X38282Y-38670D01*
X38296Y-38658D01*
X38311Y-38650D01*
X38327Y-38645D01*
X38345Y-38643D01*
X38361Y-38644D01*
X38378Y-38649D01*
X38393Y-38656D01*
X38407Y-38667D01*
X38418Y-38680D01*
X38427Y-38695D01*
X38432Y-38712D01*
X38434Y-38729D01*
X38435Y-38731D01*
G54D17*
X37219Y-39399D02*
X37086Y-39459D01*
X37219Y-39502D02*
X36939Y-39502D01*
X36939Y-39434D01*
X36953Y-39416D01*
X36966Y-39408D01*
X36993Y-39399D01*
X37033Y-39399D01*
X37059Y-39408D01*
X37073Y-39416D01*
X37086Y-39434D01*
X37086Y-39502D01*
X37219Y-39228D02*
X37219Y-39331D01*
X37219Y-39279D02*
X36939Y-39279D01*
X36979Y-39296D01*
X37006Y-39314D01*
X37019Y-39331D01*
X40719Y-37810D02*
X40659Y-37677D01*
X40616Y-37810D02*
X40616Y-37530D01*
X40684Y-37530D01*
X40702Y-37544D01*
X40710Y-37557D01*
X40719Y-37584D01*
X40719Y-37624D01*
X40710Y-37650D01*
X40702Y-37664D01*
X40684Y-37677D01*
X40616Y-37677D01*
X40787Y-37557D02*
X40796Y-37544D01*
X40813Y-37530D01*
X40856Y-37530D01*
X40873Y-37544D01*
X40882Y-37557D01*
X40890Y-37584D01*
X40890Y-37610D01*
X40882Y-37650D01*
X40779Y-37810D01*
X40890Y-37810D01*
G54D13*
X40306Y-40428D02*
X40306Y-40228D01*
X40382Y-40228D01*
X40401Y-40237D01*
X40410Y-40247D01*
X40420Y-40266D01*
X40420Y-40295D01*
X40410Y-40314D01*
X40401Y-40323D01*
X40382Y-40333D01*
X40306Y-40333D01*
X40496Y-40247D02*
X40506Y-40237D01*
X40525Y-40228D01*
X40572Y-40228D01*
X40591Y-40237D01*
X40601Y-40247D01*
X40610Y-40266D01*
X40610Y-40285D01*
X40601Y-40314D01*
X40487Y-40428D01*
X40610Y-40428D01*
G54D18*
X40753Y-39449D02*
X40753Y-39252D01*
X40959Y-39430D02*
X40950Y-39440D01*
X40922Y-39449D01*
X40903Y-39449D01*
X40875Y-39440D01*
X40856Y-39421D01*
X40847Y-39402D01*
X40838Y-39365D01*
X40838Y-39337D01*
X40847Y-39299D01*
X40856Y-39280D01*
X40875Y-39262D01*
X40903Y-39252D01*
X40922Y-39252D01*
X40950Y-39262D01*
X40959Y-39271D01*
X41035Y-39271D02*
X41044Y-39262D01*
X41063Y-39252D01*
X41110Y-39252D01*
X41128Y-39262D01*
X41138Y-39271D01*
X41147Y-39290D01*
X41147Y-39309D01*
X41138Y-39337D01*
X41025Y-39449D01*
X41147Y-39449D01*
G54D19*
G54D18*
X38170Y-39660D02*
X37973Y-39660D01*
X38151Y-39454D02*
X38161Y-39463D01*
X38170Y-39491D01*
X38170Y-39510D01*
X38161Y-39538D01*
X38142Y-39557D01*
X38123Y-39566D01*
X38086Y-39575D01*
X38058Y-39575D01*
X38020Y-39566D01*
X38001Y-39557D01*
X37983Y-39538D01*
X37973Y-39510D01*
X37973Y-39491D01*
X37983Y-39463D01*
X37992Y-39454D01*
X38170Y-39266D02*
X38170Y-39378D01*
X38170Y-39322D02*
X37973Y-39322D01*
X38001Y-39341D01*
X38020Y-39360D01*
X38030Y-39378D01*
G54D20*
G54D13*
%LPC*%
G54D21*
X39070Y-38189D03*
X39670Y-38189D03*
X39070Y-39370D03*
X39670Y-39370D03*
X39070Y-40551D03*
X39670Y-40551D03*
G54D22*
X37106Y-39070D03*
X37106Y-39670D03*
G54D21*
X40448Y-37697D03*
X41048Y-37697D03*
G54D23*
X40453Y-40846D03*
G54D24*
X40335Y-38583D03*
X40335Y-38977D03*
X40335Y-39370D03*
X40335Y-39763D03*
X40335Y-40157D03*
X41555Y-40157D03*
X41555Y-39763D03*
X41555Y-39370D03*
X41555Y-38977D03*
X41555Y-38583D03*
G54D25*
X38474Y-38219D03*
X38218Y-38219D03*
X37964Y-38219D03*
X37708Y-38219D03*
X37708Y-40521D03*
X37964Y-40521D03*
X38218Y-40521D03*
X38474Y-40521D03*
G54D26*
X39370Y-41535D03*
X39370Y-37205D03*
M02*
