G04 (created by PCBNEW-RS274X (2011-05-25)-stable) date Mon 20 Aug 2012 19:38:16 BST*
G01*
G70*
G90*
%MOIN*%
G04 Gerber Fmt 3.4, Leading zero omitted, Abs format*
%FSLAX34Y34*%
G04 APERTURE LIST*
%ADD10C,0.006000*%
%ADD11C,0.012000*%
%ADD12C,0.003900*%
%ADD13C,0.015000*%
%ADD14C,0.015700*%
%ADD15C,0.000100*%
%ADD16C,0.005000*%
%ADD17C,0.138100*%
%ADD18C,0.065000*%
%ADD19R,0.142000X0.102700*%
G04 APERTURE END LIST*
G54D10*
G54D11*
X39980Y-41370D02*
X39980Y-40913D01*
G54D12*
X38445Y-38066D02*
X38432Y-38075D01*
X38419Y-38094D01*
X38419Y-38141D01*
X38432Y-38159D01*
X38445Y-38169D01*
X38471Y-38178D01*
X38498Y-38178D01*
X38537Y-38169D01*
X38695Y-38056D01*
X38695Y-38178D01*
X38419Y-38300D02*
X38419Y-38319D01*
X38432Y-38338D01*
X38445Y-38347D01*
X38471Y-38357D01*
X38524Y-38366D01*
X38590Y-38366D01*
X38642Y-38357D01*
X38668Y-38347D01*
X38682Y-38338D01*
X38695Y-38319D01*
X38695Y-38300D01*
X38682Y-38282D01*
X38668Y-38272D01*
X38642Y-38263D01*
X38590Y-38254D01*
X38524Y-38254D01*
X38471Y-38263D01*
X38445Y-38272D01*
X38432Y-38282D01*
X38419Y-38300D01*
X38695Y-38554D02*
X38695Y-38442D01*
X38695Y-38498D02*
X38419Y-38498D01*
X38458Y-38479D01*
X38484Y-38460D01*
X38498Y-38442D01*
X38445Y-38630D02*
X38432Y-38639D01*
X38419Y-38658D01*
X38419Y-38705D01*
X38432Y-38723D01*
X38445Y-38733D01*
X38471Y-38742D01*
X38498Y-38742D01*
X38537Y-38733D01*
X38695Y-38620D01*
X38695Y-38742D01*
X38419Y-38864D02*
X38419Y-38883D01*
X38432Y-38902D01*
X38445Y-38911D01*
X38471Y-38921D01*
X38524Y-38930D01*
X38590Y-38930D01*
X38642Y-38921D01*
X38668Y-38911D01*
X38682Y-38902D01*
X38695Y-38883D01*
X38695Y-38864D01*
X38682Y-38846D01*
X38668Y-38836D01*
X38642Y-38827D01*
X38590Y-38818D01*
X38524Y-38818D01*
X38471Y-38827D01*
X38445Y-38836D01*
X38432Y-38846D01*
X38419Y-38864D01*
X38537Y-39043D02*
X38524Y-39024D01*
X38511Y-39015D01*
X38484Y-39006D01*
X38471Y-39006D01*
X38445Y-39015D01*
X38432Y-39024D01*
X38419Y-39043D01*
X38419Y-39081D01*
X38432Y-39099D01*
X38445Y-39109D01*
X38471Y-39118D01*
X38484Y-39118D01*
X38511Y-39109D01*
X38524Y-39099D01*
X38537Y-39081D01*
X38537Y-39043D01*
X38550Y-39024D01*
X38563Y-39015D01*
X38590Y-39006D01*
X38642Y-39006D01*
X38668Y-39015D01*
X38682Y-39024D01*
X38695Y-39043D01*
X38695Y-39081D01*
X38682Y-39099D01*
X38668Y-39109D01*
X38642Y-39118D01*
X38590Y-39118D01*
X38563Y-39109D01*
X38550Y-39099D01*
X38537Y-39081D01*
X38445Y-39194D02*
X38432Y-39203D01*
X38419Y-39222D01*
X38419Y-39269D01*
X38432Y-39287D01*
X38445Y-39297D01*
X38471Y-39306D01*
X38498Y-39306D01*
X38537Y-39297D01*
X38695Y-39184D01*
X38695Y-39306D01*
X38419Y-39428D02*
X38419Y-39447D01*
X38432Y-39466D01*
X38445Y-39475D01*
X38471Y-39485D01*
X38524Y-39494D01*
X38590Y-39494D01*
X38642Y-39485D01*
X38668Y-39475D01*
X38682Y-39466D01*
X38695Y-39447D01*
X38695Y-39428D01*
X38682Y-39410D01*
X38668Y-39400D01*
X38642Y-39391D01*
X38590Y-39382D01*
X38524Y-39382D01*
X38471Y-39391D01*
X38445Y-39400D01*
X38432Y-39410D01*
X38419Y-39428D01*
X38190Y-37921D02*
X38203Y-37903D01*
X38203Y-37865D01*
X38190Y-37846D01*
X38176Y-37837D01*
X38150Y-37828D01*
X38071Y-37828D01*
X38045Y-37837D01*
X38032Y-37846D01*
X38019Y-37865D01*
X38019Y-37903D01*
X38032Y-37921D01*
X38019Y-38090D02*
X38203Y-38090D01*
X38019Y-38006D02*
X38163Y-38006D01*
X38190Y-38015D01*
X38203Y-38034D01*
X38203Y-38062D01*
X38190Y-38081D01*
X38176Y-38090D01*
X38019Y-38156D02*
X38019Y-38231D01*
X38203Y-38184D02*
X37966Y-38184D01*
X37940Y-38193D01*
X37927Y-38212D01*
X37927Y-38231D01*
X38019Y-38269D02*
X38019Y-38344D01*
X38203Y-38297D02*
X37966Y-38297D01*
X37940Y-38306D01*
X37927Y-38325D01*
X37927Y-38344D01*
X38190Y-38485D02*
X38203Y-38466D01*
X38203Y-38429D01*
X38190Y-38410D01*
X38163Y-38401D01*
X38058Y-38401D01*
X38032Y-38410D01*
X38019Y-38429D01*
X38019Y-38466D01*
X38032Y-38485D01*
X38058Y-38494D01*
X38084Y-38494D01*
X38111Y-38401D01*
X38203Y-38607D02*
X38190Y-38588D01*
X38163Y-38579D01*
X37927Y-38579D01*
X38203Y-38682D02*
X38019Y-38682D01*
X37927Y-38682D02*
X37940Y-38673D01*
X37953Y-38682D01*
X37940Y-38691D01*
X37927Y-38682D01*
X37953Y-38682D01*
X38019Y-38776D02*
X38203Y-38776D01*
X38045Y-38776D02*
X38032Y-38785D01*
X38019Y-38804D01*
X38019Y-38832D01*
X38032Y-38851D01*
X38058Y-38860D01*
X38203Y-38860D01*
X38203Y-38954D02*
X37927Y-38954D01*
X38098Y-38973D02*
X38203Y-39029D01*
X38019Y-39029D02*
X38124Y-38954D01*
X38176Y-39113D02*
X38190Y-39122D01*
X38203Y-39113D01*
X38190Y-39104D01*
X38176Y-39113D01*
X38203Y-39113D01*
X38190Y-39291D02*
X38203Y-39273D01*
X38203Y-39235D01*
X38190Y-39216D01*
X38176Y-39207D01*
X38150Y-39198D01*
X38071Y-39198D01*
X38045Y-39207D01*
X38032Y-39216D01*
X38019Y-39235D01*
X38019Y-39273D01*
X38032Y-39291D01*
X38203Y-39404D02*
X38190Y-39385D01*
X38176Y-39376D01*
X38150Y-39367D01*
X38071Y-39367D01*
X38045Y-39376D01*
X38032Y-39385D01*
X38019Y-39404D01*
X38019Y-39432D01*
X38032Y-39451D01*
X38045Y-39460D01*
X38071Y-39470D01*
X38150Y-39470D01*
X38176Y-39460D01*
X38190Y-39451D01*
X38203Y-39432D01*
X38203Y-39404D01*
X38203Y-39554D02*
X38019Y-39554D01*
X38045Y-39554D02*
X38032Y-39563D01*
X38019Y-39582D01*
X38019Y-39610D01*
X38032Y-39629D01*
X38058Y-39638D01*
X38203Y-39638D01*
X38058Y-39638D02*
X38032Y-39648D01*
X38019Y-39666D01*
X38019Y-39695D01*
X38032Y-39713D01*
X38058Y-39723D01*
X38203Y-39723D01*
G54D13*
X42224Y-39370D02*
X42169Y-39924D01*
X42008Y-40457D01*
X41747Y-40949D01*
X41395Y-41381D01*
X40965Y-41736D01*
X40475Y-42000D01*
X39943Y-42165D01*
X39389Y-42223D01*
X38836Y-42173D01*
X38301Y-42016D01*
X37808Y-41758D01*
X37374Y-41409D01*
X37016Y-40982D01*
X36747Y-40494D01*
X36579Y-39963D01*
X36517Y-39409D01*
X36563Y-38855D01*
X36717Y-38320D01*
X36972Y-37824D01*
X37318Y-37388D01*
X37742Y-37027D01*
X38228Y-36755D01*
X38758Y-36583D01*
X39311Y-36517D01*
X39865Y-36560D01*
X40402Y-36710D01*
X40899Y-36961D01*
X41338Y-37304D01*
X41702Y-37725D01*
X41977Y-38210D01*
X42153Y-38738D01*
X42222Y-39291D01*
X42224Y-39370D01*
G54D14*
X39070Y-40083D02*
X39670Y-40083D01*
X39370Y-40473D02*
X39370Y-39693D01*
G54D13*
X41240Y-38878D02*
X41204Y-39241D01*
X41098Y-39590D01*
X40927Y-39912D01*
X40696Y-40195D01*
X40415Y-40428D01*
X40094Y-40601D01*
X39746Y-40709D01*
X39383Y-40747D01*
X39020Y-40714D01*
X38670Y-40611D01*
X38347Y-40442D01*
X38062Y-40214D01*
X37828Y-39934D01*
X37652Y-39614D01*
X37541Y-39266D01*
X37501Y-38904D01*
X37531Y-38541D01*
X37632Y-38190D01*
X37799Y-37866D01*
X38025Y-37579D01*
X38303Y-37343D01*
X38622Y-37165D01*
X38969Y-37052D01*
X39331Y-37009D01*
X39694Y-37037D01*
X40046Y-37135D01*
X40371Y-37300D01*
X40659Y-37524D01*
X40898Y-37801D01*
X41078Y-38118D01*
X41193Y-38464D01*
X41239Y-38826D01*
X41240Y-38878D01*
G54D15*
G36*
X40944Y-39045D02*
X40944Y-39045D01*
X40944Y-39045D01*
X40944Y-39045D01*
X40944Y-39045D01*
X40944Y-39045D01*
X40944Y-39045D01*
X40944Y-39045D01*
X40944Y-39045D01*
X40944Y-39045D01*
X40944Y-39045D01*
X40944Y-39045D01*
X40944Y-39045D01*
X40944Y-39045D01*
X40944Y-39045D01*
X40944Y-39045D01*
X40944Y-39045D01*
X40944Y-39045D01*
X40944Y-39045D01*
X40944Y-39045D01*
X40944Y-39045D01*
X40944Y-39045D01*
X40944Y-39045D01*
X40944Y-39045D01*
X40944Y-39045D01*
X40944Y-39045D01*
X40944Y-39045D01*
X40944Y-39045D01*
X40944Y-39045D01*
X40944Y-39045D01*
X40944Y-39045D01*
X40944Y-39045D01*
X40944Y-39045D01*
X40944Y-39045D01*
X40944Y-39045D01*
X40944Y-39045D01*
X40944Y-39045D01*
X40944Y-39045D01*
X40944Y-39045D01*
X40944Y-39045D01*
X40944Y-39045D01*
X40944Y-39045D01*
X40944Y-39045D01*
X40944Y-39045D01*
X40944Y-39045D01*
X40944Y-39045D01*
X40944Y-39045D01*
X40944Y-39045D01*
X40944Y-39045D01*
X40944Y-39045D01*
X40944Y-39045D01*
X40944Y-39045D01*
X40944Y-39045D01*
X40944Y-39045D01*
X40944Y-39045D01*
X40944Y-39045D01*
X40944Y-39045D01*
X40944Y-39045D01*
X40944Y-39045D01*
X40944Y-39045D01*
X40944Y-39045D01*
X40944Y-39045D01*
X40944Y-39045D01*
X40944Y-39045D01*
X40944Y-39045D01*
X40944Y-39045D01*
X40944Y-39045D01*
X40944Y-39045D01*
X40944Y-39045D01*
X40944Y-39045D01*
X40944Y-39045D01*
X40944Y-39045D01*
X40944Y-39045D01*
X40944Y-39045D01*
X40944Y-39045D01*
X40944Y-39045D01*
X40944Y-39045D01*
X40944Y-39045D01*
X40944Y-39045D01*
X40944Y-39045D01*
X40944Y-39045D01*
X40944Y-39045D01*
X40944Y-39045D01*
X40944Y-39045D01*
X40944Y-39045D01*
X40944Y-39045D01*
X40944Y-39045D01*
X40944Y-39045D01*
X40944Y-39045D01*
X40944Y-39045D01*
X40944Y-39045D01*
X40944Y-39045D01*
X40944Y-39045D01*
X40944Y-39045D01*
X40944Y-39045D01*
X40944Y-39045D01*
X40944Y-39045D01*
X40944Y-39045D01*
X40944Y-39045D01*
X40944Y-39045D01*
X40944Y-39045D01*
X40944Y-39045D01*
X40944Y-39045D01*
X40944Y-39045D01*
X40944Y-39045D01*
X40944Y-39045D01*
X40944Y-39045D01*
X40944Y-39045D01*
X40944Y-39045D01*
X40944Y-39045D01*
X40944Y-39045D01*
X40944Y-39045D01*
X40944Y-39045D01*
X40944Y-39045D01*
X40944Y-39045D01*
X40944Y-39045D01*
X40944Y-39045D01*
X40944Y-39045D01*
X40944Y-39045D01*
X40944Y-39045D01*
X40944Y-39045D01*
X40944Y-39045D01*
X40944Y-39045D01*
X40944Y-39045D01*
X40944Y-39045D01*
X40944Y-39045D01*
X40944Y-39045D01*
X40944Y-39045D01*
X40944Y-39045D01*
X40944Y-39045D01*
X40944Y-39045D01*
X40944Y-39045D01*
X40944Y-39045D01*
X40944Y-39045D01*
X40944Y-39045D01*
X40944Y-39045D01*
X40944Y-39045D01*
X40944Y-39045D01*
X40944Y-39045D01*
X40944Y-39045D01*
X40944Y-39045D01*
X40944Y-39045D01*
X40944Y-39045D01*
X40944Y-39045D01*
X40944Y-39045D01*
X40944Y-39045D01*
X40944Y-39045D01*
X40944Y-39045D01*
X40944Y-39045D01*
X40944Y-39045D01*
X40944Y-39045D01*
X40944Y-39045D01*
X40944Y-39045D01*
X40944Y-39045D01*
X40944Y-39045D01*
X40944Y-39045D01*
X40944Y-39045D01*
X40944Y-39045D01*
X40944Y-39045D01*
X40944Y-39045D01*
X40944Y-39045D01*
X40944Y-39045D01*
X40944Y-39045D01*
X40944Y-39045D01*
X40944Y-39045D01*
X40944Y-39045D01*
X40944Y-39045D01*
X40944Y-39045D01*
X40944Y-39045D01*
X40944Y-39045D01*
X40944Y-39045D01*
X40944Y-39045D01*
X40944Y-39045D01*
X40944Y-39045D01*
X40944Y-39045D01*
X40944Y-39045D01*
X40944Y-39045D01*
X40944Y-39045D01*
X40944Y-39045D01*
X40944Y-39045D01*
X40944Y-39045D01*
X40944Y-39045D01*
X40944Y-39045D01*
X40944Y-39045D01*
X40944Y-39045D01*
X40944Y-39045D01*
X40944Y-39045D01*
X40944Y-39045D01*
X40944Y-39045D01*
X40944Y-39045D01*
X40944Y-39045D01*
X40944Y-39045D01*
X40944Y-39045D01*
X40944Y-39045D01*
X40944Y-39045D01*
X40944Y-39045D01*
X40944Y-39045D01*
X40944Y-39045D01*
X40944Y-39045D01*
X40944Y-39045D01*
X40944Y-39045D01*
X40944Y-39045D01*
X40944Y-39045D01*
X40944Y-39045D01*
X40944Y-39045D01*
X40944Y-39045D01*
X40944Y-39045D01*
X40944Y-39045D01*
X40944Y-39045D01*
X40944Y-39045D01*
X40944Y-39045D01*
X40944Y-39045D01*
X40944Y-39045D01*
X40944Y-39045D01*
X40944Y-39045D01*
X40944Y-39045D01*
X40944Y-39045D01*
X40944Y-39045D01*
X40944Y-39045D01*
X40944Y-39045D01*
X40944Y-39045D01*
X40944Y-39045D01*
X40944Y-39045D01*
X40944Y-39045D01*
X40944Y-39045D01*
X40944Y-39045D01*
X40944Y-39045D01*
X40944Y-39045D01*
X40944Y-39045D01*
X40944Y-39045D01*
X40944Y-39045D01*
X40944Y-39045D01*
X40944Y-39045D01*
X40944Y-39045D01*
X40944Y-39045D01*
X40944Y-39045D01*
X40944Y-39045D01*
X40944Y-39045D01*
X40944Y-39045D01*
X40944Y-39045D01*
X40944Y-39045D01*
X40944Y-39045D01*
X40944Y-39045D01*
X40944Y-39045D01*
X40944Y-39045D01*
X40944Y-39045D01*
X40944Y-39045D01*
X40944Y-39045D01*
X40944Y-39045D01*
X40944Y-39045D01*
X40944Y-39045D01*
X40944Y-39045D01*
X40944Y-39045D01*
X40944Y-39045D01*
X40944Y-39045D01*
X40944Y-39045D01*
X40944Y-39045D01*
X40944Y-39045D01*
X40944Y-39045D01*
X40944Y-39045D01*
X40944Y-39045D01*
X40944Y-39045D01*
X40944Y-39045D01*
X40944Y-39045D01*
X40944Y-39045D01*
X40944Y-39045D01*
X40944Y-39045D01*
X40944Y-39045D01*
X40944Y-39045D01*
X40944Y-39045D01*
X40944Y-39045D01*
X40944Y-39045D01*
X40944Y-39045D01*
X40944Y-39045D01*
X40944Y-39045D01*
X40944Y-39045D01*
X40944Y-39045D01*
X40944Y-39045D01*
G37*
G54D16*
X39686Y-38780D02*
X39679Y-38841D01*
X39662Y-38900D01*
X39633Y-38954D01*
X39594Y-39002D01*
X39546Y-39041D01*
X39492Y-39071D01*
X39433Y-39089D01*
X39372Y-39095D01*
X39311Y-39090D01*
X39252Y-39072D01*
X39197Y-39044D01*
X39149Y-39005D01*
X39110Y-38958D01*
X39080Y-38904D01*
X39061Y-38845D01*
X39055Y-38784D01*
X39060Y-38723D01*
X39077Y-38664D01*
X39105Y-38609D01*
X39143Y-38561D01*
X39190Y-38521D01*
X39244Y-38491D01*
X39303Y-38472D01*
X39364Y-38465D01*
X39424Y-38469D01*
X39484Y-38486D01*
X39539Y-38514D01*
X39587Y-38552D01*
X39628Y-38598D01*
X39658Y-38652D01*
X39678Y-38710D01*
X39685Y-38772D01*
X39686Y-38780D01*
X39622Y-39360D02*
X39622Y-39160D01*
X39546Y-39160D01*
X39527Y-39169D01*
X39518Y-39179D01*
X39508Y-39198D01*
X39508Y-39227D01*
X39518Y-39246D01*
X39527Y-39255D01*
X39546Y-39265D01*
X39622Y-39265D01*
X39270Y-39284D02*
X39118Y-39284D01*
X39194Y-39360D02*
X39194Y-39208D01*
%LPC*%
G54D17*
X39370Y-38780D03*
G54D18*
X40453Y-40846D03*
G54D19*
X39370Y-41535D03*
X39370Y-37205D03*
M02*
