G04 (created by PCBNEW-RS274X (2011-05-25)-stable) date Mon 20 Aug 2012 19:38:16 BST*
G01*
G70*
G90*
%MOIN*%
G04 Gerber Fmt 3.4, Leading zero omitted, Abs format*
%FSLAX34Y34*%
G04 APERTURE LIST*
%ADD10C,0.006000*%
%ADD11C,0.015000*%
%ADD12R,0.045000X0.065000*%
%ADD13R,0.065000X0.045000*%
%ADD14C,0.065000*%
%ADD15R,0.055400X0.043600*%
%ADD16R,0.033700X0.067200*%
%ADD17R,0.142000X0.102700*%
G04 APERTURE END LIST*
G54D10*
G54D11*
X42224Y-39370D02*
X42169Y-39924D01*
X42008Y-40457D01*
X41747Y-40949D01*
X41395Y-41381D01*
X40965Y-41736D01*
X40475Y-42000D01*
X39943Y-42165D01*
X39389Y-42223D01*
X38836Y-42173D01*
X38301Y-42016D01*
X37808Y-41758D01*
X37374Y-41409D01*
X37016Y-40982D01*
X36747Y-40494D01*
X36579Y-39963D01*
X36517Y-39409D01*
X36563Y-38855D01*
X36717Y-38320D01*
X36972Y-37824D01*
X37318Y-37388D01*
X37742Y-37027D01*
X38228Y-36755D01*
X38758Y-36583D01*
X39311Y-36517D01*
X39865Y-36560D01*
X40402Y-36710D01*
X40899Y-36961D01*
X41338Y-37304D01*
X41702Y-37725D01*
X41977Y-38210D01*
X42153Y-38738D01*
X42222Y-39291D01*
X42224Y-39370D01*
G54D12*
X39070Y-38189D03*
X39670Y-38189D03*
X39070Y-39370D03*
X39670Y-39370D03*
X39070Y-40551D03*
X39670Y-40551D03*
G54D13*
X37106Y-39070D03*
X37106Y-39670D03*
G54D12*
X40448Y-37697D03*
X41048Y-37697D03*
G54D14*
X40453Y-40846D03*
G54D15*
X40335Y-38583D03*
X40335Y-38977D03*
X40335Y-39370D03*
X40335Y-39763D03*
X40335Y-40157D03*
X41555Y-40157D03*
X41555Y-39763D03*
X41555Y-39370D03*
X41555Y-38977D03*
X41555Y-38583D03*
G54D16*
X38474Y-38219D03*
X38218Y-38219D03*
X37964Y-38219D03*
X37708Y-38219D03*
X37708Y-40521D03*
X37964Y-40521D03*
X38218Y-40521D03*
X38474Y-40521D03*
G54D17*
X39370Y-41535D03*
X39370Y-37205D03*
M02*
