G04 (created by PCBNEW-RS274X (2011-05-25)-stable) date Sat 27 Oct 2012 20:40:34 BST*
G01*
G70*
G90*
%MOIN*%
G04 Gerber Fmt 3.4, Leading zero omitted, Abs format*
%FSLAX34Y34*%
G04 APERTURE LIST*
%ADD10C,0.006000*%
%ADD11C,0.015000*%
%ADD12C,0.007400*%
%ADD13C,0.005000*%
%ADD14C,0.007800*%
%ADD15C,0.002600*%
%ADD16C,0.000100*%
%ADD17C,0.004500*%
%ADD18C,0.003900*%
%ADD19C,0.012000*%
%ADD20C,0.003500*%
%ADD21R,0.142000X0.102700*%
%ADD22R,0.045000X0.065000*%
%ADD23R,0.065000X0.045000*%
%ADD24C,0.065000*%
%ADD25R,0.055400X0.043600*%
%ADD26R,0.033700X0.067200*%
G04 APERTURE END LIST*
G54D10*
G54D11*
X42224Y-39370D02*
X42169Y-39924D01*
X42008Y-40457D01*
X41747Y-40949D01*
X41395Y-41381D01*
X40965Y-41736D01*
X40475Y-42000D01*
X39943Y-42165D01*
X39389Y-42223D01*
X38836Y-42173D01*
X38301Y-42016D01*
X37808Y-41758D01*
X37374Y-41409D01*
X37016Y-40982D01*
X36747Y-40494D01*
X36579Y-39963D01*
X36517Y-39409D01*
X36563Y-38855D01*
X36717Y-38320D01*
X36972Y-37824D01*
X37318Y-37388D01*
X37742Y-37027D01*
X38228Y-36755D01*
X38758Y-36583D01*
X39311Y-36517D01*
X39865Y-36560D01*
X40402Y-36710D01*
X40899Y-36961D01*
X41338Y-37304D01*
X41702Y-37725D01*
X41977Y-38210D01*
X42153Y-38738D01*
X42222Y-39291D01*
X42224Y-39370D01*
X41043Y-40354D02*
X41142Y-40354D01*
X41043Y-40059D02*
X41043Y-40354D01*
X41142Y-40059D02*
X41043Y-40059D01*
X41142Y-40354D02*
X41142Y-40059D01*
X37894Y-40059D02*
X37697Y-40059D01*
X37894Y-40157D02*
X37894Y-40059D01*
X37697Y-40157D02*
X37894Y-40157D01*
X37697Y-39961D02*
X37697Y-40157D01*
X37894Y-39961D02*
X37697Y-39961D01*
G54D12*
X38963Y-39970D02*
X39188Y-39970D01*
X39076Y-40120D02*
X39076Y-39820D01*
X40137Y-40532D02*
X40109Y-40513D01*
X40067Y-40513D01*
X40024Y-40532D01*
X39996Y-40570D01*
X39982Y-40607D01*
X39968Y-40682D01*
X39968Y-40739D01*
X39982Y-40814D01*
X39996Y-40851D01*
X40024Y-40889D01*
X40067Y-40907D01*
X40095Y-40907D01*
X40137Y-40889D01*
X40151Y-40870D01*
X40151Y-40739D01*
X40095Y-40739D01*
G54D13*
X38920Y-37939D02*
X39820Y-37939D01*
X39820Y-37939D02*
X39820Y-38439D01*
X39820Y-38439D02*
X38920Y-38439D01*
X38920Y-38439D02*
X38920Y-37939D01*
X38920Y-39120D02*
X39820Y-39120D01*
X39820Y-39120D02*
X39820Y-39620D01*
X39820Y-39620D02*
X38920Y-39620D01*
X38920Y-39620D02*
X38920Y-39120D01*
X38920Y-40301D02*
X39820Y-40301D01*
X39820Y-40301D02*
X39820Y-40801D01*
X39820Y-40801D02*
X38920Y-40801D01*
X38920Y-40801D02*
X38920Y-40301D01*
X40396Y-37545D02*
X41296Y-37545D01*
X41296Y-37545D02*
X41296Y-38045D01*
X41296Y-38045D02*
X40396Y-38045D01*
X40396Y-38045D02*
X40396Y-37545D01*
X37258Y-38822D02*
X37258Y-39722D01*
X37258Y-39722D02*
X36758Y-39722D01*
X36758Y-39722D02*
X36758Y-38822D01*
X36758Y-38822D02*
X37258Y-38822D01*
X40867Y-41043D02*
X40860Y-41104D01*
X40843Y-41163D01*
X40814Y-41217D01*
X40775Y-41265D01*
X40727Y-41304D01*
X40673Y-41334D01*
X40614Y-41352D01*
X40553Y-41358D01*
X40492Y-41353D01*
X40433Y-41335D01*
X40378Y-41307D01*
X40330Y-41268D01*
X40291Y-41221D01*
X40261Y-41167D01*
X40242Y-41108D01*
X40236Y-41047D01*
X40241Y-40986D01*
X40258Y-40927D01*
X40286Y-40872D01*
X40324Y-40824D01*
X40371Y-40784D01*
X40425Y-40754D01*
X40484Y-40735D01*
X40545Y-40728D01*
X40605Y-40732D01*
X40665Y-40749D01*
X40720Y-40777D01*
X40768Y-40815D01*
X40809Y-40861D01*
X40839Y-40915D01*
X40859Y-40973D01*
X40866Y-41035D01*
X40867Y-41043D01*
G54D14*
X40040Y-38347D02*
X41850Y-38347D01*
X41850Y-38347D02*
X41850Y-40393D01*
X40040Y-40393D02*
X41850Y-40393D01*
X40040Y-38347D02*
X40040Y-40393D01*
X40040Y-40157D02*
X40119Y-40236D01*
X40197Y-40314D02*
X40276Y-40393D01*
G54D15*
X37757Y-40629D02*
X37757Y-40236D01*
X37757Y-40236D02*
X37658Y-40236D01*
X37658Y-40629D02*
X37658Y-40236D01*
X37757Y-40629D02*
X37658Y-40629D01*
X38013Y-40629D02*
X38013Y-40236D01*
X38013Y-40236D02*
X37914Y-40236D01*
X37914Y-40629D02*
X37914Y-40236D01*
X38013Y-40629D02*
X37914Y-40629D01*
X38268Y-40629D02*
X38268Y-40236D01*
X38268Y-40236D02*
X38169Y-40236D01*
X38169Y-40629D02*
X38169Y-40236D01*
X38268Y-40629D02*
X38169Y-40629D01*
X38524Y-40629D02*
X38524Y-40236D01*
X38524Y-40236D02*
X38425Y-40236D01*
X38425Y-40629D02*
X38425Y-40236D01*
X38524Y-40629D02*
X38425Y-40629D01*
X38524Y-38504D02*
X38524Y-38111D01*
X38524Y-38111D02*
X38425Y-38111D01*
X38425Y-38504D02*
X38425Y-38111D01*
X38524Y-38504D02*
X38425Y-38504D01*
X38268Y-38504D02*
X38268Y-38111D01*
X38268Y-38111D02*
X38169Y-38111D01*
X38169Y-38504D02*
X38169Y-38111D01*
X38268Y-38504D02*
X38169Y-38504D01*
X38013Y-38504D02*
X38013Y-38111D01*
X38013Y-38111D02*
X37914Y-38111D01*
X37914Y-38504D02*
X37914Y-38111D01*
X38013Y-38504D02*
X37914Y-38504D01*
X37757Y-38504D02*
X37757Y-38111D01*
X37757Y-38111D02*
X37658Y-38111D01*
X37658Y-38504D02*
X37658Y-38111D01*
X37757Y-38504D02*
X37658Y-38504D01*
G54D14*
X38642Y-40216D02*
X38642Y-38524D01*
X38642Y-38524D02*
X37540Y-38524D01*
X37540Y-38524D02*
X37540Y-40216D01*
X37540Y-40216D02*
X38642Y-40216D01*
G54D16*
X37925Y-40009D02*
X37923Y-40026D01*
X37918Y-40042D01*
X37910Y-40058D01*
X37899Y-40071D01*
X37885Y-40082D01*
X37870Y-40091D01*
X37853Y-40096D01*
X37836Y-40097D01*
X37820Y-40096D01*
X37803Y-40091D01*
X37788Y-40083D01*
X37774Y-40072D01*
X37763Y-40059D01*
X37755Y-40044D01*
X37749Y-40027D01*
X37748Y-40010D01*
X37749Y-39993D01*
X37754Y-39977D01*
X37762Y-39961D01*
X37772Y-39948D01*
X37786Y-39936D01*
X37801Y-39928D01*
X37817Y-39923D01*
X37835Y-39921D01*
X37851Y-39922D01*
X37868Y-39927D01*
X37883Y-39934D01*
X37897Y-39945D01*
X37908Y-39958D01*
X37917Y-39973D01*
X37922Y-39990D01*
X37924Y-40007D01*
X37925Y-40009D01*
G54D17*
X40817Y-37908D02*
X40757Y-37775D01*
X40714Y-37908D02*
X40714Y-37628D01*
X40782Y-37628D01*
X40800Y-37642D01*
X40808Y-37655D01*
X40817Y-37682D01*
X40817Y-37722D01*
X40808Y-37748D01*
X40800Y-37762D01*
X40782Y-37775D01*
X40714Y-37775D01*
X40988Y-37908D02*
X40885Y-37908D01*
X40937Y-37908D02*
X40937Y-37628D01*
X40920Y-37668D01*
X40902Y-37695D01*
X40885Y-37708D01*
X37121Y-39301D02*
X36988Y-39361D01*
X37121Y-39404D02*
X36841Y-39404D01*
X36841Y-39336D01*
X36855Y-39318D01*
X36868Y-39310D01*
X36895Y-39301D01*
X36935Y-39301D01*
X36961Y-39310D01*
X36975Y-39318D01*
X36988Y-39336D01*
X36988Y-39404D01*
X36868Y-39233D02*
X36855Y-39224D01*
X36841Y-39207D01*
X36841Y-39164D01*
X36855Y-39147D01*
X36868Y-39138D01*
X36895Y-39130D01*
X36921Y-39130D01*
X36961Y-39138D01*
X37121Y-39241D01*
X37121Y-39130D01*
G54D18*
X40753Y-39449D02*
X40753Y-39252D01*
X40959Y-39430D02*
X40950Y-39440D01*
X40922Y-39449D01*
X40903Y-39449D01*
X40875Y-39440D01*
X40856Y-39421D01*
X40847Y-39402D01*
X40838Y-39365D01*
X40838Y-39337D01*
X40847Y-39299D01*
X40856Y-39280D01*
X40875Y-39262D01*
X40903Y-39252D01*
X40922Y-39252D01*
X40950Y-39262D01*
X40959Y-39271D01*
X41035Y-39271D02*
X41044Y-39262D01*
X41063Y-39252D01*
X41110Y-39252D01*
X41128Y-39262D01*
X41138Y-39271D01*
X41147Y-39290D01*
X41147Y-39309D01*
X41138Y-39337D01*
X41025Y-39449D01*
X41147Y-39449D01*
G54D19*
G54D18*
X38170Y-39464D02*
X37973Y-39464D01*
X38151Y-39258D02*
X38161Y-39267D01*
X38170Y-39295D01*
X38170Y-39314D01*
X38161Y-39342D01*
X38142Y-39361D01*
X38123Y-39370D01*
X38086Y-39379D01*
X38058Y-39379D01*
X38020Y-39370D01*
X38001Y-39361D01*
X37983Y-39342D01*
X37973Y-39314D01*
X37973Y-39295D01*
X37983Y-39267D01*
X37992Y-39258D01*
X38170Y-39070D02*
X38170Y-39182D01*
X38170Y-39126D02*
X37973Y-39126D01*
X38001Y-39145D01*
X38020Y-39164D01*
X38030Y-39182D01*
G54D20*
%LPC*%
G54D21*
X39370Y-37205D03*
X39370Y-41535D03*
G54D22*
X39070Y-38189D03*
X39670Y-38189D03*
X39070Y-39370D03*
X39670Y-39370D03*
X39070Y-40551D03*
X39670Y-40551D03*
X40546Y-37795D03*
X41146Y-37795D03*
G54D23*
X37008Y-38972D03*
X37008Y-39572D03*
G54D24*
X40551Y-41043D03*
G54D25*
X41555Y-40157D03*
X41555Y-39763D03*
X41555Y-39370D03*
X41555Y-38977D03*
X41555Y-38583D03*
X40335Y-38583D03*
X40335Y-38977D03*
X40335Y-39370D03*
X40335Y-39763D03*
X40335Y-40157D03*
G54D26*
X37708Y-40521D03*
X37964Y-40521D03*
X38218Y-40521D03*
X38474Y-40521D03*
X38474Y-38219D03*
X38218Y-38219D03*
X37964Y-38219D03*
X37708Y-38219D03*
M02*
