G04 (created by PCBNEW-RS274X (2011-05-25)-stable) date Sat 27 Oct 2012 20:40:34 BST*
G01*
G70*
G90*
%MOIN*%
G04 Gerber Fmt 3.4, Leading zero omitted, Abs format*
%FSLAX34Y34*%
G04 APERTURE LIST*
%ADD10C,0.006000*%
%ADD11C,0.015000*%
%ADD12C,0.157500*%
%ADD13C,0.045000*%
%ADD14C,0.035000*%
%ADD15C,0.008000*%
G04 APERTURE END LIST*
G54D10*
G54D11*
X42224Y-39370D02*
X42169Y-39924D01*
X42008Y-40457D01*
X41747Y-40949D01*
X41395Y-41381D01*
X40965Y-41736D01*
X40475Y-42000D01*
X39943Y-42165D01*
X39389Y-42223D01*
X38836Y-42173D01*
X38301Y-42016D01*
X37808Y-41758D01*
X37374Y-41409D01*
X37016Y-40982D01*
X36747Y-40494D01*
X36579Y-39963D01*
X36517Y-39409D01*
X36563Y-38855D01*
X36717Y-38320D01*
X36972Y-37824D01*
X37318Y-37388D01*
X37742Y-37027D01*
X38228Y-36755D01*
X38758Y-36583D01*
X39311Y-36517D01*
X39865Y-36560D01*
X40402Y-36710D01*
X40899Y-36961D01*
X41338Y-37304D01*
X41702Y-37725D01*
X41977Y-38210D01*
X42153Y-38738D01*
X42222Y-39291D01*
X42224Y-39370D01*
G54D12*
X39370Y-38878D03*
G54D13*
X40551Y-41043D03*
G54D14*
X37645Y-38922D03*
X40086Y-38070D03*
X38480Y-37704D03*
X40267Y-37219D03*
X38070Y-39236D03*
X41073Y-38993D03*
G54D15*
X37689Y-38878D02*
X39370Y-38878D01*
X37645Y-38922D02*
X37689Y-38878D01*
X39370Y-38786D02*
X40086Y-38070D01*
X39370Y-38878D02*
X39370Y-38786D01*
X39782Y-37704D02*
X38480Y-37704D01*
X40267Y-37219D02*
X39782Y-37704D01*
X38644Y-39810D02*
X38070Y-39236D01*
X40256Y-39810D02*
X38644Y-39810D01*
X41073Y-38993D02*
X40256Y-39810D01*
M02*
