G04 (created by PCBNEW-RS274X (2011-05-25)-stable) date Sat 27 Oct 2012 20:40:34 BST*
G01*
G70*
G90*
%MOIN*%
G04 Gerber Fmt 3.4, Leading zero omitted, Abs format*
%FSLAX34Y34*%
G04 APERTURE LIST*
%ADD10C,0.006000*%
%ADD11C,0.015000*%
%ADD12C,0.012000*%
%ADD13C,0.003900*%
%ADD14C,0.005000*%
%ADD15C,0.000100*%
%ADD16R,0.142000X0.102700*%
%ADD17C,0.177500*%
%ADD18C,0.065000*%
G04 APERTURE END LIST*
G54D10*
G54D11*
X42224Y-39370D02*
X42169Y-39924D01*
X42008Y-40457D01*
X41747Y-40949D01*
X41395Y-41381D01*
X40965Y-41736D01*
X40475Y-42000D01*
X39943Y-42165D01*
X39389Y-42223D01*
X38836Y-42173D01*
X38301Y-42016D01*
X37808Y-41758D01*
X37374Y-41409D01*
X37016Y-40982D01*
X36747Y-40494D01*
X36579Y-39963D01*
X36517Y-39409D01*
X36563Y-38855D01*
X36717Y-38320D01*
X36972Y-37824D01*
X37318Y-37388D01*
X37742Y-37027D01*
X38228Y-36755D01*
X38758Y-36583D01*
X39311Y-36517D01*
X39865Y-36560D01*
X40402Y-36710D01*
X40899Y-36961D01*
X41338Y-37304D01*
X41702Y-37725D01*
X41977Y-38210D01*
X42153Y-38738D01*
X42222Y-39291D01*
X42224Y-39370D01*
G54D12*
X41152Y-39931D02*
X41129Y-39900D01*
X41082Y-39869D01*
X40965Y-39869D01*
X40918Y-39900D01*
X40895Y-39931D01*
X40871Y-39993D01*
X40871Y-40055D01*
X40895Y-40148D01*
X41176Y-40519D01*
X40871Y-40519D01*
X40566Y-39869D02*
X40519Y-39869D01*
X40472Y-39900D01*
X40449Y-39931D01*
X40426Y-39993D01*
X40402Y-40117D01*
X40402Y-40271D01*
X40426Y-40395D01*
X40449Y-40457D01*
X40472Y-40488D01*
X40519Y-40519D01*
X40566Y-40519D01*
X40613Y-40488D01*
X40636Y-40457D01*
X40660Y-40395D01*
X40683Y-40271D01*
X40683Y-40117D01*
X40660Y-39993D01*
X40636Y-39931D01*
X40613Y-39900D01*
X40566Y-39869D01*
X39933Y-40519D02*
X40214Y-40519D01*
X40074Y-40519D02*
X40074Y-39869D01*
X40121Y-39962D01*
X40167Y-40024D01*
X40214Y-40055D01*
X39745Y-39931D02*
X39722Y-39900D01*
X39675Y-39869D01*
X39558Y-39869D01*
X39511Y-39900D01*
X39488Y-39931D01*
X39464Y-39993D01*
X39464Y-40055D01*
X39488Y-40148D01*
X39769Y-40519D01*
X39464Y-40519D01*
X39159Y-39869D02*
X39112Y-39869D01*
X39065Y-39900D01*
X39042Y-39931D01*
X39019Y-39993D01*
X38995Y-40117D01*
X38995Y-40271D01*
X39019Y-40395D01*
X39042Y-40457D01*
X39065Y-40488D01*
X39112Y-40519D01*
X39159Y-40519D01*
X39206Y-40488D01*
X39229Y-40457D01*
X39253Y-40395D01*
X39276Y-40271D01*
X39276Y-40117D01*
X39253Y-39993D01*
X39229Y-39931D01*
X39206Y-39900D01*
X39159Y-39869D01*
X38760Y-40519D02*
X38667Y-40519D01*
X38620Y-40488D01*
X38596Y-40457D01*
X38550Y-40364D01*
X38526Y-40241D01*
X38526Y-39993D01*
X38550Y-39931D01*
X38573Y-39900D01*
X38620Y-39869D01*
X38714Y-39869D01*
X38760Y-39900D01*
X38784Y-39931D01*
X38807Y-39993D01*
X38807Y-40148D01*
X38784Y-40210D01*
X38760Y-40241D01*
X38714Y-40271D01*
X38620Y-40271D01*
X38573Y-40241D01*
X38550Y-40210D01*
X38526Y-40148D01*
X38057Y-40519D02*
X38338Y-40519D01*
X38198Y-40519D02*
X38198Y-39869D01*
X38245Y-39962D01*
X38291Y-40024D01*
X38338Y-40055D01*
X37893Y-39869D02*
X37588Y-39869D01*
X37752Y-40117D01*
X37682Y-40117D01*
X37635Y-40148D01*
X37612Y-40179D01*
X37588Y-40241D01*
X37588Y-40395D01*
X37612Y-40457D01*
X37635Y-40488D01*
X37682Y-40519D01*
X37822Y-40519D01*
X37869Y-40488D01*
X37893Y-40457D01*
G54D13*
X38190Y-37921D02*
X38203Y-37903D01*
X38203Y-37865D01*
X38190Y-37846D01*
X38176Y-37837D01*
X38150Y-37828D01*
X38071Y-37828D01*
X38045Y-37837D01*
X38032Y-37846D01*
X38019Y-37865D01*
X38019Y-37903D01*
X38032Y-37921D01*
X38019Y-38090D02*
X38203Y-38090D01*
X38019Y-38006D02*
X38163Y-38006D01*
X38190Y-38015D01*
X38203Y-38034D01*
X38203Y-38062D01*
X38190Y-38081D01*
X38176Y-38090D01*
X38019Y-38156D02*
X38019Y-38231D01*
X38203Y-38184D02*
X37966Y-38184D01*
X37940Y-38193D01*
X37927Y-38212D01*
X37927Y-38231D01*
X38019Y-38269D02*
X38019Y-38344D01*
X38203Y-38297D02*
X37966Y-38297D01*
X37940Y-38306D01*
X37927Y-38325D01*
X37927Y-38344D01*
X38190Y-38485D02*
X38203Y-38466D01*
X38203Y-38429D01*
X38190Y-38410D01*
X38163Y-38401D01*
X38058Y-38401D01*
X38032Y-38410D01*
X38019Y-38429D01*
X38019Y-38466D01*
X38032Y-38485D01*
X38058Y-38494D01*
X38084Y-38494D01*
X38111Y-38401D01*
X38203Y-38607D02*
X38190Y-38588D01*
X38163Y-38579D01*
X37927Y-38579D01*
X38203Y-38682D02*
X38019Y-38682D01*
X37927Y-38682D02*
X37940Y-38673D01*
X37953Y-38682D01*
X37940Y-38691D01*
X37927Y-38682D01*
X37953Y-38682D01*
X38019Y-38776D02*
X38203Y-38776D01*
X38045Y-38776D02*
X38032Y-38785D01*
X38019Y-38804D01*
X38019Y-38832D01*
X38032Y-38851D01*
X38058Y-38860D01*
X38203Y-38860D01*
X38203Y-38954D02*
X37927Y-38954D01*
X38098Y-38973D02*
X38203Y-39029D01*
X38019Y-39029D02*
X38124Y-38954D01*
X38176Y-39113D02*
X38190Y-39122D01*
X38203Y-39113D01*
X38190Y-39104D01*
X38176Y-39113D01*
X38203Y-39113D01*
X38190Y-39291D02*
X38203Y-39273D01*
X38203Y-39235D01*
X38190Y-39216D01*
X38176Y-39207D01*
X38150Y-39198D01*
X38071Y-39198D01*
X38045Y-39207D01*
X38032Y-39216D01*
X38019Y-39235D01*
X38019Y-39273D01*
X38032Y-39291D01*
X38203Y-39404D02*
X38190Y-39385D01*
X38176Y-39376D01*
X38150Y-39367D01*
X38071Y-39367D01*
X38045Y-39376D01*
X38032Y-39385D01*
X38019Y-39404D01*
X38019Y-39432D01*
X38032Y-39451D01*
X38045Y-39460D01*
X38071Y-39470D01*
X38150Y-39470D01*
X38176Y-39460D01*
X38190Y-39451D01*
X38203Y-39432D01*
X38203Y-39404D01*
X38203Y-39554D02*
X38019Y-39554D01*
X38045Y-39554D02*
X38032Y-39563D01*
X38019Y-39582D01*
X38019Y-39610D01*
X38032Y-39629D01*
X38058Y-39638D01*
X38203Y-39638D01*
X38058Y-39638D02*
X38032Y-39648D01*
X38019Y-39666D01*
X38019Y-39695D01*
X38032Y-39713D01*
X38058Y-39723D01*
X38203Y-39723D01*
G54D11*
X41240Y-38878D02*
X41204Y-39241D01*
X41098Y-39590D01*
X40927Y-39912D01*
X40696Y-40195D01*
X40415Y-40428D01*
X40094Y-40601D01*
X39746Y-40709D01*
X39383Y-40747D01*
X39020Y-40714D01*
X38670Y-40611D01*
X38347Y-40442D01*
X38062Y-40214D01*
X37828Y-39934D01*
X37652Y-39614D01*
X37541Y-39266D01*
X37501Y-38904D01*
X37531Y-38541D01*
X37632Y-38190D01*
X37799Y-37866D01*
X38025Y-37579D01*
X38303Y-37343D01*
X38622Y-37165D01*
X38969Y-37052D01*
X39331Y-37009D01*
X39694Y-37037D01*
X40046Y-37135D01*
X40371Y-37300D01*
X40659Y-37524D01*
X40898Y-37801D01*
X41078Y-38118D01*
X41193Y-38464D01*
X41239Y-38826D01*
X41240Y-38878D01*
G54D14*
X39686Y-38878D02*
X39679Y-38939D01*
X39662Y-38998D01*
X39633Y-39052D01*
X39594Y-39100D01*
X39546Y-39139D01*
X39492Y-39169D01*
X39433Y-39187D01*
X39372Y-39193D01*
X39311Y-39188D01*
X39252Y-39170D01*
X39197Y-39142D01*
X39149Y-39103D01*
X39110Y-39056D01*
X39080Y-39002D01*
X39061Y-38943D01*
X39055Y-38882D01*
X39060Y-38821D01*
X39077Y-38762D01*
X39105Y-38707D01*
X39143Y-38659D01*
X39190Y-38619D01*
X39244Y-38589D01*
X39303Y-38570D01*
X39364Y-38563D01*
X39424Y-38567D01*
X39484Y-38584D01*
X39539Y-38612D01*
X39587Y-38650D01*
X39628Y-38696D01*
X39658Y-38750D01*
X39678Y-38808D01*
X39685Y-38870D01*
X39686Y-38878D01*
G54D15*
G36*
X41043Y-39045D02*
X41043Y-39045D01*
X41043Y-39045D01*
X41043Y-39045D01*
X41043Y-39045D01*
X41043Y-39045D01*
X41043Y-39045D01*
X41043Y-39045D01*
X41043Y-39045D01*
X41043Y-39045D01*
X41043Y-39045D01*
X41043Y-39045D01*
X41043Y-39045D01*
X41043Y-39045D01*
X41043Y-39045D01*
X41043Y-39045D01*
X41043Y-39045D01*
X41043Y-39045D01*
X41043Y-39045D01*
X41043Y-39045D01*
X41043Y-39045D01*
X41043Y-39045D01*
X41043Y-39045D01*
X41043Y-39045D01*
X41043Y-39045D01*
X41043Y-39045D01*
X41043Y-39045D01*
X41043Y-39045D01*
X41043Y-39045D01*
X41043Y-39045D01*
X41043Y-39045D01*
X41043Y-39045D01*
X41043Y-39045D01*
X41043Y-39045D01*
X41043Y-39045D01*
X41043Y-39045D01*
X41043Y-39045D01*
X41043Y-39045D01*
X41043Y-39045D01*
X41043Y-39045D01*
X41043Y-39045D01*
X41043Y-39045D01*
X41043Y-39045D01*
X41043Y-39045D01*
X41043Y-39045D01*
X41043Y-39045D01*
X41043Y-39045D01*
X41043Y-39045D01*
X41043Y-39045D01*
X41043Y-39045D01*
X41043Y-39045D01*
X41043Y-39045D01*
X41043Y-39045D01*
X41043Y-39045D01*
X41043Y-39045D01*
X41043Y-39045D01*
X41043Y-39045D01*
X41043Y-39045D01*
X41043Y-39045D01*
X41043Y-39045D01*
X41043Y-39045D01*
X41043Y-39045D01*
X41043Y-39045D01*
X41043Y-39045D01*
X41043Y-39045D01*
X41043Y-39045D01*
X41043Y-39045D01*
X41043Y-39045D01*
X41043Y-39045D01*
X41043Y-39045D01*
X41043Y-39045D01*
X41043Y-39045D01*
X41043Y-39045D01*
X41043Y-39045D01*
X41043Y-39045D01*
X41043Y-39045D01*
X41043Y-39045D01*
X41043Y-39045D01*
X41043Y-39045D01*
X41043Y-39045D01*
X41043Y-39045D01*
X41043Y-39045D01*
X41043Y-39045D01*
X41043Y-39045D01*
X41043Y-39045D01*
X41043Y-39045D01*
X41043Y-39045D01*
X41043Y-39045D01*
X41043Y-39045D01*
X41043Y-39045D01*
X41043Y-39045D01*
X41043Y-39045D01*
X41043Y-39045D01*
X41043Y-39045D01*
X41043Y-39045D01*
X41043Y-39045D01*
X41043Y-39045D01*
X41043Y-39045D01*
X41043Y-39045D01*
X41043Y-39045D01*
X41043Y-39045D01*
X41043Y-39045D01*
X41043Y-39045D01*
X41043Y-39045D01*
X41043Y-39045D01*
X41043Y-39045D01*
X41043Y-39045D01*
X41043Y-39045D01*
X41043Y-39045D01*
X41043Y-39045D01*
X41043Y-39045D01*
X41043Y-39045D01*
X41043Y-39045D01*
X41043Y-39045D01*
X41043Y-39045D01*
X41043Y-39045D01*
X41043Y-39045D01*
X41043Y-39045D01*
X41043Y-39045D01*
X41043Y-39045D01*
X41043Y-39045D01*
X41043Y-39045D01*
X41043Y-39045D01*
X41043Y-39045D01*
X41043Y-39045D01*
X41043Y-39045D01*
X41043Y-39045D01*
X41043Y-39045D01*
X41043Y-39045D01*
X41043Y-39045D01*
X41043Y-39045D01*
X41043Y-39045D01*
X41043Y-39045D01*
X41043Y-39045D01*
X41043Y-39045D01*
X41043Y-39045D01*
X41043Y-39045D01*
X41043Y-39045D01*
X41043Y-39045D01*
X41043Y-39045D01*
X41043Y-39045D01*
X41043Y-39045D01*
X41043Y-39045D01*
X41043Y-39045D01*
X41043Y-39045D01*
X41043Y-39045D01*
X41043Y-39045D01*
X41043Y-39045D01*
X41043Y-39045D01*
X41043Y-39045D01*
X41043Y-39045D01*
X41043Y-39045D01*
X41043Y-39045D01*
X41043Y-39045D01*
X41043Y-39045D01*
X41043Y-39045D01*
X41043Y-39045D01*
X41043Y-39045D01*
X41043Y-39045D01*
X41043Y-39045D01*
X41043Y-39045D01*
X41043Y-39045D01*
X41043Y-39045D01*
X41043Y-39045D01*
X41043Y-39045D01*
X41043Y-39045D01*
X41043Y-39045D01*
X41043Y-39045D01*
X41043Y-39045D01*
X41043Y-39045D01*
X41043Y-39045D01*
X41043Y-39045D01*
X41043Y-39045D01*
X41043Y-39045D01*
X41043Y-39045D01*
X41043Y-39045D01*
X41043Y-39045D01*
X41043Y-39045D01*
X41043Y-39045D01*
X41043Y-39045D01*
X41043Y-39045D01*
X41043Y-39045D01*
X41043Y-39045D01*
X41043Y-39045D01*
X41043Y-39045D01*
X41043Y-39045D01*
X41043Y-39045D01*
X41043Y-39045D01*
X41043Y-39045D01*
X41043Y-39045D01*
X41043Y-39045D01*
X41043Y-39045D01*
X41043Y-39045D01*
X41043Y-39045D01*
X41043Y-39045D01*
X41043Y-39045D01*
X41043Y-39045D01*
X41043Y-39045D01*
X41043Y-39045D01*
X41043Y-39045D01*
X41043Y-39045D01*
X41043Y-39045D01*
X41043Y-39045D01*
X41043Y-39045D01*
X41043Y-39045D01*
X41043Y-39045D01*
X41043Y-39045D01*
X41043Y-39045D01*
X41043Y-39045D01*
X41043Y-39045D01*
X41043Y-39045D01*
X41043Y-39045D01*
X41043Y-39045D01*
X41043Y-39045D01*
X41043Y-39045D01*
X41043Y-39045D01*
X41043Y-39045D01*
X41043Y-39045D01*
X41043Y-39045D01*
X41043Y-39045D01*
X41043Y-39045D01*
X41043Y-39045D01*
X41043Y-39045D01*
X41043Y-39045D01*
X41043Y-39045D01*
X41043Y-39045D01*
X41043Y-39045D01*
X41043Y-39045D01*
X41043Y-39045D01*
X41043Y-39045D01*
X41043Y-39045D01*
X41043Y-39045D01*
X41043Y-39045D01*
X41043Y-39045D01*
X41043Y-39045D01*
X41043Y-39045D01*
X41043Y-39045D01*
X41043Y-39045D01*
X41043Y-39045D01*
X41043Y-39045D01*
X41043Y-39045D01*
X41043Y-39045D01*
X41043Y-39045D01*
X41043Y-39045D01*
X41043Y-39045D01*
X41043Y-39045D01*
X41043Y-39045D01*
X41043Y-39045D01*
X41043Y-39045D01*
X41043Y-39045D01*
X41043Y-39045D01*
X41043Y-39045D01*
X41043Y-39045D01*
X41043Y-39045D01*
X41043Y-39045D01*
X41043Y-39045D01*
X41043Y-39045D01*
X41043Y-39045D01*
X41043Y-39045D01*
X41043Y-39045D01*
X41043Y-39045D01*
X41043Y-39045D01*
X41043Y-39045D01*
X41043Y-39045D01*
X41043Y-39045D01*
X41043Y-39045D01*
X41043Y-39045D01*
X41043Y-39045D01*
X41043Y-39045D01*
X41043Y-39045D01*
X41043Y-39045D01*
X41043Y-39045D01*
X41043Y-39045D01*
X41043Y-39045D01*
X41043Y-39045D01*
X41043Y-39045D01*
X41043Y-39045D01*
X41043Y-39045D01*
G37*
G54D14*
X39517Y-39458D02*
X39517Y-39258D01*
X39441Y-39258D01*
X39422Y-39267D01*
X39413Y-39277D01*
X39403Y-39296D01*
X39403Y-39325D01*
X39413Y-39344D01*
X39422Y-39353D01*
X39441Y-39363D01*
X39517Y-39363D01*
X39213Y-39458D02*
X39327Y-39458D01*
X39270Y-39458D02*
X39270Y-39258D01*
X39289Y-39287D01*
X39308Y-39306D01*
X39327Y-39315D01*
%LPC*%
G54D16*
X39370Y-37205D03*
X39370Y-41535D03*
G54D17*
X39370Y-38878D03*
G54D18*
X40551Y-41043D03*
M02*
