G04 (created by PCBNEW-RS274X (2011-05-25)-stable) date Thu 01 Nov 2012 21:39:30 GMT*
G01*
G70*
G90*
%MOIN*%
G04 Gerber Fmt 3.4, Leading zero omitted, Abs format*
%FSLAX34Y34*%
G04 APERTURE LIST*
%ADD10C,0.006000*%
%ADD11C,0.060000*%
%ADD12C,0.055000*%
%ADD13C,0.066000*%
%ADD14R,0.055000X0.055000*%
%ADD15C,0.035000*%
%ADD16C,0.008000*%
G04 APERTURE END LIST*
G54D10*
G54D11*
X26575Y-30315D03*
X30505Y-30315D03*
G54D12*
X43232Y-23606D03*
X43232Y-25606D03*
X40232Y-23606D03*
X40232Y-25606D03*
G54D13*
X31783Y-17126D03*
X32783Y-17126D03*
X31783Y-20079D03*
X32783Y-20079D03*
X31783Y-23228D03*
X32783Y-23228D03*
X36508Y-20079D03*
X37508Y-20079D03*
X36508Y-23228D03*
X37508Y-23228D03*
G54D14*
X27878Y-25713D03*
G54D12*
X27878Y-24713D03*
X27878Y-23713D03*
X27878Y-22713D03*
X24878Y-22713D03*
X24878Y-23713D03*
X24878Y-24713D03*
X24878Y-25713D03*
G54D15*
X36070Y-27521D03*
X29366Y-28727D03*
X26806Y-27182D03*
X26806Y-25182D03*
G54D16*
X40232Y-25606D02*
X43232Y-25606D01*
X27128Y-23463D02*
X27878Y-22713D01*
X27128Y-26938D02*
X27128Y-23463D01*
X30505Y-30315D02*
X27128Y-26938D01*
X27320Y-24271D02*
X27878Y-23713D01*
X27320Y-26597D02*
X27320Y-24271D01*
X28244Y-27521D02*
X27320Y-26597D01*
X36070Y-27521D02*
X28244Y-27521D01*
X40232Y-23606D02*
X41002Y-23606D01*
X41002Y-23606D02*
X43232Y-23606D01*
X26806Y-27182D02*
X26806Y-25182D01*
X38389Y-28727D02*
X29366Y-28727D01*
X40224Y-26892D02*
X38389Y-28727D01*
X40224Y-26295D02*
X40224Y-26892D01*
X39811Y-25882D02*
X40224Y-26295D01*
X39811Y-24797D02*
X39811Y-25882D01*
X41002Y-23606D02*
X39811Y-24797D01*
X28300Y-25135D02*
X27878Y-24713D01*
X28300Y-26959D02*
X28300Y-25135D01*
X28361Y-27020D02*
X28300Y-26959D01*
X36049Y-27020D02*
X28361Y-27020D01*
X36508Y-26561D02*
X36049Y-27020D01*
X36508Y-23228D02*
X36508Y-26561D01*
M02*
