G04 (created by PCBNEW-RS274X (2011-05-25)-stable) date Thu 01 Nov 2012 20:09:25 GMT*
G01*
G70*
G90*
%MOIN*%
G04 Gerber Fmt 3.4, Leading zero omitted, Abs format*
%FSLAX34Y34*%
G04 APERTURE LIST*
%ADD10C,0.006000*%
%ADD11C,0.015000*%
G04 APERTURE END LIST*
G54D10*
G54D11*
X30709Y-15551D02*
X30709Y-25197D01*
X33858Y-15551D02*
X33858Y-25197D01*
X33858Y-15551D02*
X30709Y-15551D01*
X28543Y-21850D02*
X28543Y-26772D01*
X24213Y-21850D02*
X24213Y-26772D01*
X28543Y-21850D02*
X24213Y-21850D01*
X23425Y-26772D02*
X23425Y-33465D01*
X31496Y-29134D02*
X31496Y-33465D01*
X23425Y-33465D02*
X31496Y-33465D01*
X31890Y-29134D02*
X31496Y-29134D01*
X43898Y-29134D02*
X31890Y-29134D01*
X43898Y-21457D02*
X39567Y-21457D01*
X43898Y-21457D02*
X43898Y-29134D01*
X38189Y-26772D02*
X39567Y-26772D01*
X38189Y-25197D02*
X38189Y-26772D01*
X38583Y-25197D02*
X38189Y-25197D01*
X35827Y-26772D02*
X33465Y-26772D01*
X35827Y-25197D02*
X35827Y-26772D01*
X35433Y-25197D02*
X35827Y-25197D01*
X24213Y-26772D02*
X23425Y-26772D01*
X29134Y-26772D02*
X28543Y-26772D01*
X31102Y-26772D02*
X29134Y-26772D01*
X33465Y-25197D02*
X33465Y-26772D01*
X33858Y-25197D02*
X33465Y-25197D01*
X31102Y-25197D02*
X31102Y-26772D01*
X30709Y-25197D02*
X31102Y-25197D01*
X39567Y-26772D02*
X39567Y-21457D01*
X38583Y-25000D02*
X38583Y-25197D01*
X38583Y-18504D02*
X38583Y-25000D01*
X35433Y-18504D02*
X38583Y-18504D01*
X35433Y-25197D02*
X35433Y-18504D01*
M02*
