G04 (created by PCBNEW-RS274X (2011-05-25)-stable) date Sun 25 Nov 2012 22:20:31 GMT*
G01*
G70*
G90*
%MOIN*%
G04 Gerber Fmt 3.4, Leading zero omitted, Abs format*
%FSLAX34Y34*%
G04 APERTURE LIST*
%ADD10C,0.006000*%
%ADD11C,0.015000*%
%ADD12C,0.012000*%
%ADD13C,0.008000*%
%ADD14C,0.003000*%
%ADD15C,0.010000*%
%ADD16C,0.005000*%
G04 APERTURE END LIST*
G54D10*
G54D11*
X42126Y-27165D02*
X43799Y-27165D01*
X31890Y-27165D02*
X24213Y-27165D01*
G54D12*
X26469Y-27674D02*
X26812Y-27674D01*
X26641Y-28474D02*
X26641Y-27674D01*
X27012Y-28474D02*
X27012Y-27940D01*
X27012Y-28093D02*
X27040Y-28017D01*
X27069Y-27979D01*
X27126Y-27940D01*
X27183Y-27940D01*
X27640Y-28474D02*
X27640Y-28055D01*
X27611Y-27979D01*
X27554Y-27940D01*
X27440Y-27940D01*
X27383Y-27979D01*
X27640Y-28436D02*
X27583Y-28474D01*
X27440Y-28474D01*
X27383Y-28436D01*
X27354Y-28360D01*
X27354Y-28283D01*
X27383Y-28207D01*
X27440Y-28169D01*
X27583Y-28169D01*
X27640Y-28131D01*
X27840Y-27940D02*
X28069Y-27940D01*
X27926Y-28474D02*
X27926Y-27788D01*
X27954Y-27712D01*
X28012Y-27674D01*
X28069Y-27674D01*
X28183Y-27940D02*
X28412Y-27940D01*
X28269Y-28474D02*
X28269Y-27788D01*
X28297Y-27712D01*
X28355Y-27674D01*
X28412Y-27674D01*
X28612Y-28474D02*
X28612Y-27940D01*
X28612Y-27674D02*
X28583Y-27712D01*
X28612Y-27750D01*
X28640Y-27712D01*
X28612Y-27674D01*
X28612Y-27750D01*
X29155Y-28436D02*
X29098Y-28474D01*
X28984Y-28474D01*
X28926Y-28436D01*
X28898Y-28398D01*
X28869Y-28321D01*
X28869Y-28093D01*
X28898Y-28017D01*
X28926Y-27979D01*
X28984Y-27940D01*
X29098Y-27940D01*
X29155Y-27979D01*
X30155Y-28474D02*
X29869Y-28474D01*
X29869Y-27674D01*
X30355Y-28474D02*
X30355Y-27940D01*
X30355Y-27674D02*
X30326Y-27712D01*
X30355Y-27750D01*
X30383Y-27712D01*
X30355Y-27674D01*
X30355Y-27750D01*
X30898Y-27940D02*
X30898Y-28588D01*
X30869Y-28664D01*
X30841Y-28702D01*
X30784Y-28740D01*
X30698Y-28740D01*
X30641Y-28702D01*
X30898Y-28436D02*
X30841Y-28474D01*
X30727Y-28474D01*
X30669Y-28436D01*
X30641Y-28398D01*
X30612Y-28321D01*
X30612Y-28093D01*
X30641Y-28017D01*
X30669Y-27979D01*
X30727Y-27940D01*
X30841Y-27940D01*
X30898Y-27979D01*
X31184Y-28474D02*
X31184Y-27674D01*
X31441Y-28474D02*
X31441Y-28055D01*
X31412Y-27979D01*
X31355Y-27940D01*
X31270Y-27940D01*
X31212Y-27979D01*
X31184Y-28017D01*
X31641Y-27940D02*
X31870Y-27940D01*
X31727Y-27674D02*
X31727Y-28360D01*
X31755Y-28436D01*
X31813Y-28474D01*
X31870Y-28474D01*
X32041Y-28436D02*
X32098Y-28474D01*
X32213Y-28474D01*
X32270Y-28436D01*
X32298Y-28360D01*
X32298Y-28321D01*
X32270Y-28245D01*
X32213Y-28207D01*
X32127Y-28207D01*
X32070Y-28169D01*
X32041Y-28093D01*
X32041Y-28055D01*
X32070Y-27979D01*
X32127Y-27940D01*
X32213Y-27940D01*
X32270Y-27979D01*
X33013Y-28169D02*
X33470Y-28169D01*
X34213Y-28474D02*
X34213Y-27674D01*
X34441Y-27674D01*
X34499Y-27712D01*
X34527Y-27750D01*
X34556Y-27826D01*
X34556Y-27940D01*
X34527Y-28017D01*
X34499Y-28055D01*
X34441Y-28093D01*
X34213Y-28093D01*
X35041Y-28436D02*
X34984Y-28474D01*
X34870Y-28474D01*
X34813Y-28436D01*
X34784Y-28360D01*
X34784Y-28055D01*
X34813Y-27979D01*
X34870Y-27940D01*
X34984Y-27940D01*
X35041Y-27979D01*
X35070Y-28055D01*
X35070Y-28131D01*
X34784Y-28207D01*
X35413Y-28474D02*
X35355Y-28436D01*
X35327Y-28360D01*
X35327Y-27674D01*
X35641Y-28474D02*
X35641Y-27940D01*
X35641Y-27674D02*
X35612Y-27712D01*
X35641Y-27750D01*
X35669Y-27712D01*
X35641Y-27674D01*
X35641Y-27750D01*
X36184Y-28436D02*
X36127Y-28474D01*
X36013Y-28474D01*
X35955Y-28436D01*
X35927Y-28398D01*
X35898Y-28321D01*
X35898Y-28093D01*
X35927Y-28017D01*
X35955Y-27979D01*
X36013Y-27940D01*
X36127Y-27940D01*
X36184Y-27979D01*
X36698Y-28474D02*
X36698Y-28055D01*
X36669Y-27979D01*
X36612Y-27940D01*
X36498Y-27940D01*
X36441Y-27979D01*
X36698Y-28436D02*
X36641Y-28474D01*
X36498Y-28474D01*
X36441Y-28436D01*
X36412Y-28360D01*
X36412Y-28283D01*
X36441Y-28207D01*
X36498Y-28169D01*
X36641Y-28169D01*
X36698Y-28131D01*
X36984Y-27940D02*
X36984Y-28474D01*
X36984Y-28017D02*
X37012Y-27979D01*
X37070Y-27940D01*
X37155Y-27940D01*
X37212Y-27979D01*
X37241Y-28055D01*
X37241Y-28474D01*
X38327Y-28398D02*
X38298Y-28436D01*
X38212Y-28474D01*
X38155Y-28474D01*
X38070Y-28436D01*
X38012Y-28360D01*
X37984Y-28283D01*
X37955Y-28131D01*
X37955Y-28017D01*
X37984Y-27864D01*
X38012Y-27788D01*
X38070Y-27712D01*
X38155Y-27674D01*
X38212Y-27674D01*
X38298Y-27712D01*
X38327Y-27750D01*
X38584Y-28474D02*
X38584Y-27940D01*
X38584Y-28093D02*
X38612Y-28017D01*
X38641Y-27979D01*
X38698Y-27940D01*
X38755Y-27940D01*
X39041Y-28474D02*
X38983Y-28436D01*
X38955Y-28398D01*
X38926Y-28321D01*
X38926Y-28093D01*
X38955Y-28017D01*
X38983Y-27979D01*
X39041Y-27940D01*
X39126Y-27940D01*
X39183Y-27979D01*
X39212Y-28017D01*
X39241Y-28093D01*
X39241Y-28321D01*
X39212Y-28398D01*
X39183Y-28436D01*
X39126Y-28474D01*
X39041Y-28474D01*
X39469Y-28436D02*
X39526Y-28474D01*
X39641Y-28474D01*
X39698Y-28436D01*
X39726Y-28360D01*
X39726Y-28321D01*
X39698Y-28245D01*
X39641Y-28207D01*
X39555Y-28207D01*
X39498Y-28169D01*
X39469Y-28093D01*
X39469Y-28055D01*
X39498Y-27979D01*
X39555Y-27940D01*
X39641Y-27940D01*
X39698Y-27979D01*
X39955Y-28436D02*
X40012Y-28474D01*
X40127Y-28474D01*
X40184Y-28436D01*
X40212Y-28360D01*
X40212Y-28321D01*
X40184Y-28245D01*
X40127Y-28207D01*
X40041Y-28207D01*
X39984Y-28169D01*
X39955Y-28093D01*
X39955Y-28055D01*
X39984Y-27979D01*
X40041Y-27940D01*
X40127Y-27940D01*
X40184Y-27979D01*
X40470Y-28474D02*
X40470Y-27940D01*
X40470Y-27674D02*
X40441Y-27712D01*
X40470Y-27750D01*
X40498Y-27712D01*
X40470Y-27674D01*
X40470Y-27750D01*
X40756Y-27940D02*
X40756Y-28474D01*
X40756Y-28017D02*
X40784Y-27979D01*
X40842Y-27940D01*
X40927Y-27940D01*
X40984Y-27979D01*
X41013Y-28055D01*
X41013Y-28474D01*
X41556Y-27940D02*
X41556Y-28588D01*
X41527Y-28664D01*
X41499Y-28702D01*
X41442Y-28740D01*
X41356Y-28740D01*
X41299Y-28702D01*
X41556Y-28436D02*
X41499Y-28474D01*
X41385Y-28474D01*
X41327Y-28436D01*
X41299Y-28398D01*
X41270Y-28321D01*
X41270Y-28093D01*
X41299Y-28017D01*
X41327Y-27979D01*
X41385Y-27940D01*
X41499Y-27940D01*
X41556Y-27979D01*
G54D11*
X43307Y-26378D02*
X43504Y-26378D01*
X40157Y-26378D02*
X39961Y-26378D01*
X37992Y-25197D02*
X38189Y-25197D01*
X36024Y-25197D02*
X35827Y-25197D01*
X33268Y-25197D02*
X33465Y-25197D01*
X31299Y-25197D02*
X31102Y-25197D01*
X41339Y-26378D02*
X40157Y-26378D01*
X42126Y-26378D02*
X43307Y-26378D01*
X28543Y-26772D02*
X28543Y-27165D01*
X24213Y-26772D02*
X24213Y-27165D01*
X37402Y-27165D02*
X41339Y-27165D01*
X32677Y-27165D02*
X36614Y-27165D01*
X42126Y-26378D02*
X42126Y-27165D01*
X41339Y-26378D02*
X41339Y-27165D01*
X31890Y-25197D02*
X31890Y-27165D01*
X31299Y-25197D02*
X31890Y-25197D01*
X32677Y-25197D02*
X32677Y-27165D01*
X33268Y-25197D02*
X32677Y-25197D01*
X37402Y-26772D02*
X37402Y-27165D01*
X36614Y-26772D02*
X36614Y-27165D01*
X36614Y-25197D02*
X36614Y-26772D01*
X36024Y-25197D02*
X36614Y-25197D01*
X37402Y-25197D02*
X37402Y-26772D01*
X37992Y-25197D02*
X37402Y-25197D01*
G54D12*
X40847Y-21965D02*
X40990Y-22765D01*
X41104Y-22193D01*
X41218Y-22765D01*
X41361Y-21965D01*
X41561Y-22536D02*
X41847Y-22536D01*
X41504Y-22765D02*
X41704Y-21965D01*
X41904Y-22765D01*
X42104Y-22765D02*
X42104Y-21965D01*
X42304Y-21965D02*
X42647Y-21965D01*
X42476Y-22765D02*
X42476Y-21965D01*
G54D13*
X38128Y-23978D02*
X38128Y-22478D01*
G54D14*
X37815Y-23228D02*
X37801Y-23365D01*
X37761Y-23497D01*
X37696Y-23619D01*
X37609Y-23726D01*
X37503Y-23814D01*
X37381Y-23879D01*
X37250Y-23920D01*
X37112Y-23934D01*
X36976Y-23922D01*
X36844Y-23883D01*
X36721Y-23819D01*
X36614Y-23733D01*
X36525Y-23627D01*
X36459Y-23506D01*
X36417Y-23374D01*
X36402Y-23237D01*
X36413Y-23101D01*
X36451Y-22968D01*
X36514Y-22846D01*
X36600Y-22737D01*
X36705Y-22648D01*
X36825Y-22581D01*
X36957Y-22538D01*
X37094Y-22522D01*
X37230Y-22532D01*
X37363Y-22569D01*
X37486Y-22632D01*
X37595Y-22717D01*
X37685Y-22821D01*
X37753Y-22941D01*
X37797Y-23072D01*
X37814Y-23209D01*
X37815Y-23228D01*
G54D15*
X38107Y-22478D02*
X38038Y-22394D01*
X37962Y-22316D01*
X37879Y-22245D01*
X37790Y-22181D01*
X37696Y-22126D01*
X37598Y-22079D01*
X37496Y-22040D01*
X37391Y-22011D01*
X37284Y-21991D01*
X37175Y-21980D01*
X37067Y-21979D01*
X36958Y-21988D01*
X36851Y-22005D01*
X36745Y-22032D01*
X36642Y-22069D01*
X36543Y-22114D01*
X36448Y-22167D01*
X36358Y-22229D01*
X36274Y-22298D01*
X36196Y-22374D01*
X36125Y-22457D01*
X36061Y-22546D01*
X36006Y-22640D01*
X35959Y-22738D01*
X35920Y-22840D01*
X35891Y-22945D01*
X35871Y-23052D01*
X35860Y-23161D01*
X35859Y-23269D01*
X35868Y-23378D01*
X35885Y-23485D01*
X35912Y-23591D01*
X35949Y-23694D01*
X35994Y-23793D01*
X36047Y-23888D01*
X36109Y-23978D01*
X36178Y-24062D01*
X36254Y-24140D01*
X36337Y-24211D01*
X36426Y-24275D01*
X36520Y-24330D01*
X36618Y-24377D01*
X36720Y-24416D01*
X36825Y-24445D01*
X36932Y-24465D01*
X37041Y-24476D01*
X37149Y-24477D01*
X37258Y-24468D01*
X37365Y-24451D01*
X37471Y-24424D01*
X37574Y-24387D01*
X37673Y-24342D01*
X37768Y-24289D01*
X37858Y-24227D01*
X37942Y-24158D01*
X38020Y-24082D01*
X38091Y-23999D01*
X38107Y-23978D01*
G54D10*
X37108Y-22778D02*
X37069Y-22780D01*
X37030Y-22785D01*
X36992Y-22794D01*
X36955Y-22806D01*
X36918Y-22821D01*
X36884Y-22839D01*
X36850Y-22860D01*
X36819Y-22884D01*
X36790Y-22910D01*
X36764Y-22939D01*
X36740Y-22970D01*
X36719Y-23004D01*
X36701Y-23038D01*
X36686Y-23075D01*
X36674Y-23112D01*
X36665Y-23150D01*
X36660Y-23189D01*
X36658Y-23228D01*
X37108Y-23678D02*
X37147Y-23676D01*
X37186Y-23671D01*
X37224Y-23662D01*
X37261Y-23650D01*
X37298Y-23635D01*
X37333Y-23617D01*
X37366Y-23596D01*
X37397Y-23572D01*
X37426Y-23546D01*
X37452Y-23517D01*
X37476Y-23486D01*
X37497Y-23452D01*
X37515Y-23418D01*
X37530Y-23381D01*
X37542Y-23344D01*
X37551Y-23306D01*
X37556Y-23267D01*
X37558Y-23228D01*
X37108Y-22578D02*
X37052Y-22581D01*
X36996Y-22588D01*
X36940Y-22601D01*
X36886Y-22618D01*
X36834Y-22639D01*
X36784Y-22666D01*
X36736Y-22696D01*
X36691Y-22731D01*
X36649Y-22769D01*
X36611Y-22811D01*
X36576Y-22856D01*
X36546Y-22904D01*
X36519Y-22954D01*
X36498Y-23006D01*
X36481Y-23060D01*
X36468Y-23116D01*
X36461Y-23172D01*
X36458Y-23228D01*
X37108Y-23878D02*
X37164Y-23875D01*
X37220Y-23868D01*
X37276Y-23855D01*
X37330Y-23838D01*
X37382Y-23817D01*
X37433Y-23790D01*
X37480Y-23760D01*
X37525Y-23725D01*
X37567Y-23687D01*
X37605Y-23645D01*
X37640Y-23600D01*
X37670Y-23552D01*
X37697Y-23502D01*
X37718Y-23450D01*
X37735Y-23396D01*
X37748Y-23340D01*
X37755Y-23284D01*
X37758Y-23228D01*
X37108Y-22378D02*
X37034Y-22382D01*
X36961Y-22391D01*
X36889Y-22407D01*
X36818Y-22430D01*
X36749Y-22458D01*
X36684Y-22492D01*
X36621Y-22532D01*
X36562Y-22577D01*
X36507Y-22627D01*
X36457Y-22682D01*
X36412Y-22741D01*
X36372Y-22804D01*
X36338Y-22869D01*
X36310Y-22938D01*
X36287Y-23009D01*
X36271Y-23081D01*
X36262Y-23154D01*
X36258Y-23228D01*
X37108Y-24078D02*
X37182Y-24074D01*
X37255Y-24065D01*
X37327Y-24049D01*
X37398Y-24026D01*
X37467Y-23998D01*
X37533Y-23964D01*
X37595Y-23924D01*
X37654Y-23879D01*
X37709Y-23829D01*
X37759Y-23774D01*
X37804Y-23715D01*
X37844Y-23652D01*
X37878Y-23587D01*
X37906Y-23518D01*
X37929Y-23447D01*
X37945Y-23375D01*
X37954Y-23302D01*
X37958Y-23228D01*
G54D13*
X38128Y-20829D02*
X38128Y-19329D01*
G54D14*
X37815Y-20079D02*
X37801Y-20216D01*
X37761Y-20348D01*
X37696Y-20470D01*
X37609Y-20577D01*
X37503Y-20665D01*
X37381Y-20730D01*
X37250Y-20771D01*
X37112Y-20785D01*
X36976Y-20773D01*
X36844Y-20734D01*
X36721Y-20670D01*
X36614Y-20584D01*
X36525Y-20478D01*
X36459Y-20357D01*
X36417Y-20225D01*
X36402Y-20088D01*
X36413Y-19952D01*
X36451Y-19819D01*
X36514Y-19697D01*
X36600Y-19588D01*
X36705Y-19499D01*
X36825Y-19432D01*
X36957Y-19389D01*
X37094Y-19373D01*
X37230Y-19383D01*
X37363Y-19420D01*
X37486Y-19483D01*
X37595Y-19568D01*
X37685Y-19672D01*
X37753Y-19792D01*
X37797Y-19923D01*
X37814Y-20060D01*
X37815Y-20079D01*
G54D15*
X38107Y-19329D02*
X38038Y-19245D01*
X37962Y-19167D01*
X37879Y-19096D01*
X37790Y-19032D01*
X37696Y-18977D01*
X37598Y-18930D01*
X37496Y-18891D01*
X37391Y-18862D01*
X37284Y-18842D01*
X37175Y-18831D01*
X37067Y-18830D01*
X36958Y-18839D01*
X36851Y-18856D01*
X36745Y-18883D01*
X36642Y-18920D01*
X36543Y-18965D01*
X36448Y-19018D01*
X36358Y-19080D01*
X36274Y-19149D01*
X36196Y-19225D01*
X36125Y-19308D01*
X36061Y-19397D01*
X36006Y-19491D01*
X35959Y-19589D01*
X35920Y-19691D01*
X35891Y-19796D01*
X35871Y-19903D01*
X35860Y-20012D01*
X35859Y-20120D01*
X35868Y-20229D01*
X35885Y-20336D01*
X35912Y-20442D01*
X35949Y-20545D01*
X35994Y-20644D01*
X36047Y-20739D01*
X36109Y-20829D01*
X36178Y-20913D01*
X36254Y-20991D01*
X36337Y-21062D01*
X36426Y-21126D01*
X36520Y-21181D01*
X36618Y-21228D01*
X36720Y-21267D01*
X36825Y-21296D01*
X36932Y-21316D01*
X37041Y-21327D01*
X37149Y-21328D01*
X37258Y-21319D01*
X37365Y-21302D01*
X37471Y-21275D01*
X37574Y-21238D01*
X37673Y-21193D01*
X37768Y-21140D01*
X37858Y-21078D01*
X37942Y-21009D01*
X38020Y-20933D01*
X38091Y-20850D01*
X38107Y-20829D01*
G54D10*
X37108Y-19629D02*
X37069Y-19631D01*
X37030Y-19636D01*
X36992Y-19645D01*
X36955Y-19657D01*
X36918Y-19672D01*
X36884Y-19690D01*
X36850Y-19711D01*
X36819Y-19735D01*
X36790Y-19761D01*
X36764Y-19790D01*
X36740Y-19821D01*
X36719Y-19855D01*
X36701Y-19889D01*
X36686Y-19926D01*
X36674Y-19963D01*
X36665Y-20001D01*
X36660Y-20040D01*
X36658Y-20079D01*
X37108Y-20529D02*
X37147Y-20527D01*
X37186Y-20522D01*
X37224Y-20513D01*
X37261Y-20501D01*
X37298Y-20486D01*
X37333Y-20468D01*
X37366Y-20447D01*
X37397Y-20423D01*
X37426Y-20397D01*
X37452Y-20368D01*
X37476Y-20337D01*
X37497Y-20303D01*
X37515Y-20269D01*
X37530Y-20232D01*
X37542Y-20195D01*
X37551Y-20157D01*
X37556Y-20118D01*
X37558Y-20079D01*
X37108Y-19429D02*
X37052Y-19432D01*
X36996Y-19439D01*
X36940Y-19452D01*
X36886Y-19469D01*
X36834Y-19490D01*
X36784Y-19517D01*
X36736Y-19547D01*
X36691Y-19582D01*
X36649Y-19620D01*
X36611Y-19662D01*
X36576Y-19707D01*
X36546Y-19755D01*
X36519Y-19805D01*
X36498Y-19857D01*
X36481Y-19911D01*
X36468Y-19967D01*
X36461Y-20023D01*
X36458Y-20079D01*
X37108Y-20729D02*
X37164Y-20726D01*
X37220Y-20719D01*
X37276Y-20706D01*
X37330Y-20689D01*
X37382Y-20668D01*
X37433Y-20641D01*
X37480Y-20611D01*
X37525Y-20576D01*
X37567Y-20538D01*
X37605Y-20496D01*
X37640Y-20451D01*
X37670Y-20403D01*
X37697Y-20353D01*
X37718Y-20301D01*
X37735Y-20247D01*
X37748Y-20191D01*
X37755Y-20135D01*
X37758Y-20079D01*
X37108Y-19229D02*
X37034Y-19233D01*
X36961Y-19242D01*
X36889Y-19258D01*
X36818Y-19281D01*
X36749Y-19309D01*
X36684Y-19343D01*
X36621Y-19383D01*
X36562Y-19428D01*
X36507Y-19478D01*
X36457Y-19533D01*
X36412Y-19592D01*
X36372Y-19655D01*
X36338Y-19720D01*
X36310Y-19789D01*
X36287Y-19860D01*
X36271Y-19932D01*
X36262Y-20005D01*
X36258Y-20079D01*
X37108Y-20929D02*
X37182Y-20925D01*
X37255Y-20916D01*
X37327Y-20900D01*
X37398Y-20877D01*
X37467Y-20849D01*
X37533Y-20815D01*
X37595Y-20775D01*
X37654Y-20730D01*
X37709Y-20680D01*
X37759Y-20625D01*
X37804Y-20566D01*
X37844Y-20503D01*
X37878Y-20438D01*
X37906Y-20369D01*
X37929Y-20298D01*
X37945Y-20226D01*
X37954Y-20153D01*
X37958Y-20079D01*
G54D13*
X33403Y-23978D02*
X33403Y-22478D01*
G54D14*
X33090Y-23228D02*
X33076Y-23365D01*
X33036Y-23497D01*
X32971Y-23619D01*
X32884Y-23726D01*
X32778Y-23814D01*
X32656Y-23879D01*
X32525Y-23920D01*
X32387Y-23934D01*
X32251Y-23922D01*
X32119Y-23883D01*
X31996Y-23819D01*
X31889Y-23733D01*
X31800Y-23627D01*
X31734Y-23506D01*
X31692Y-23374D01*
X31677Y-23237D01*
X31688Y-23101D01*
X31726Y-22968D01*
X31789Y-22846D01*
X31875Y-22737D01*
X31980Y-22648D01*
X32100Y-22581D01*
X32232Y-22538D01*
X32369Y-22522D01*
X32505Y-22532D01*
X32638Y-22569D01*
X32761Y-22632D01*
X32870Y-22717D01*
X32960Y-22821D01*
X33028Y-22941D01*
X33072Y-23072D01*
X33089Y-23209D01*
X33090Y-23228D01*
G54D15*
X33382Y-22478D02*
X33313Y-22394D01*
X33237Y-22316D01*
X33154Y-22245D01*
X33065Y-22181D01*
X32971Y-22126D01*
X32873Y-22079D01*
X32771Y-22040D01*
X32666Y-22011D01*
X32559Y-21991D01*
X32450Y-21980D01*
X32342Y-21979D01*
X32233Y-21988D01*
X32126Y-22005D01*
X32020Y-22032D01*
X31917Y-22069D01*
X31818Y-22114D01*
X31723Y-22167D01*
X31633Y-22229D01*
X31549Y-22298D01*
X31471Y-22374D01*
X31400Y-22457D01*
X31336Y-22546D01*
X31281Y-22640D01*
X31234Y-22738D01*
X31195Y-22840D01*
X31166Y-22945D01*
X31146Y-23052D01*
X31135Y-23161D01*
X31134Y-23269D01*
X31143Y-23378D01*
X31160Y-23485D01*
X31187Y-23591D01*
X31224Y-23694D01*
X31269Y-23793D01*
X31322Y-23888D01*
X31384Y-23978D01*
X31453Y-24062D01*
X31529Y-24140D01*
X31612Y-24211D01*
X31701Y-24275D01*
X31795Y-24330D01*
X31893Y-24377D01*
X31995Y-24416D01*
X32100Y-24445D01*
X32207Y-24465D01*
X32316Y-24476D01*
X32424Y-24477D01*
X32533Y-24468D01*
X32640Y-24451D01*
X32746Y-24424D01*
X32849Y-24387D01*
X32948Y-24342D01*
X33043Y-24289D01*
X33133Y-24227D01*
X33217Y-24158D01*
X33295Y-24082D01*
X33366Y-23999D01*
X33382Y-23978D01*
G54D10*
X32383Y-22778D02*
X32344Y-22780D01*
X32305Y-22785D01*
X32267Y-22794D01*
X32230Y-22806D01*
X32193Y-22821D01*
X32159Y-22839D01*
X32125Y-22860D01*
X32094Y-22884D01*
X32065Y-22910D01*
X32039Y-22939D01*
X32015Y-22970D01*
X31994Y-23004D01*
X31976Y-23038D01*
X31961Y-23075D01*
X31949Y-23112D01*
X31940Y-23150D01*
X31935Y-23189D01*
X31933Y-23228D01*
X32383Y-23678D02*
X32422Y-23676D01*
X32461Y-23671D01*
X32499Y-23662D01*
X32536Y-23650D01*
X32573Y-23635D01*
X32608Y-23617D01*
X32641Y-23596D01*
X32672Y-23572D01*
X32701Y-23546D01*
X32727Y-23517D01*
X32751Y-23486D01*
X32772Y-23452D01*
X32790Y-23418D01*
X32805Y-23381D01*
X32817Y-23344D01*
X32826Y-23306D01*
X32831Y-23267D01*
X32833Y-23228D01*
X32383Y-22578D02*
X32327Y-22581D01*
X32271Y-22588D01*
X32215Y-22601D01*
X32161Y-22618D01*
X32109Y-22639D01*
X32059Y-22666D01*
X32011Y-22696D01*
X31966Y-22731D01*
X31924Y-22769D01*
X31886Y-22811D01*
X31851Y-22856D01*
X31821Y-22904D01*
X31794Y-22954D01*
X31773Y-23006D01*
X31756Y-23060D01*
X31743Y-23116D01*
X31736Y-23172D01*
X31733Y-23228D01*
X32383Y-23878D02*
X32439Y-23875D01*
X32495Y-23868D01*
X32551Y-23855D01*
X32605Y-23838D01*
X32657Y-23817D01*
X32708Y-23790D01*
X32755Y-23760D01*
X32800Y-23725D01*
X32842Y-23687D01*
X32880Y-23645D01*
X32915Y-23600D01*
X32945Y-23552D01*
X32972Y-23502D01*
X32993Y-23450D01*
X33010Y-23396D01*
X33023Y-23340D01*
X33030Y-23284D01*
X33033Y-23228D01*
X32383Y-22378D02*
X32309Y-22382D01*
X32236Y-22391D01*
X32164Y-22407D01*
X32093Y-22430D01*
X32024Y-22458D01*
X31959Y-22492D01*
X31896Y-22532D01*
X31837Y-22577D01*
X31782Y-22627D01*
X31732Y-22682D01*
X31687Y-22741D01*
X31647Y-22804D01*
X31613Y-22869D01*
X31585Y-22938D01*
X31562Y-23009D01*
X31546Y-23081D01*
X31537Y-23154D01*
X31533Y-23228D01*
X32383Y-24078D02*
X32457Y-24074D01*
X32530Y-24065D01*
X32602Y-24049D01*
X32673Y-24026D01*
X32742Y-23998D01*
X32808Y-23964D01*
X32870Y-23924D01*
X32929Y-23879D01*
X32984Y-23829D01*
X33034Y-23774D01*
X33079Y-23715D01*
X33119Y-23652D01*
X33153Y-23587D01*
X33181Y-23518D01*
X33204Y-23447D01*
X33220Y-23375D01*
X33229Y-23302D01*
X33233Y-23228D01*
G54D13*
X33403Y-20829D02*
X33403Y-19329D01*
G54D14*
X33090Y-20079D02*
X33076Y-20216D01*
X33036Y-20348D01*
X32971Y-20470D01*
X32884Y-20577D01*
X32778Y-20665D01*
X32656Y-20730D01*
X32525Y-20771D01*
X32387Y-20785D01*
X32251Y-20773D01*
X32119Y-20734D01*
X31996Y-20670D01*
X31889Y-20584D01*
X31800Y-20478D01*
X31734Y-20357D01*
X31692Y-20225D01*
X31677Y-20088D01*
X31688Y-19952D01*
X31726Y-19819D01*
X31789Y-19697D01*
X31875Y-19588D01*
X31980Y-19499D01*
X32100Y-19432D01*
X32232Y-19389D01*
X32369Y-19373D01*
X32505Y-19383D01*
X32638Y-19420D01*
X32761Y-19483D01*
X32870Y-19568D01*
X32960Y-19672D01*
X33028Y-19792D01*
X33072Y-19923D01*
X33089Y-20060D01*
X33090Y-20079D01*
G54D15*
X33382Y-19329D02*
X33313Y-19245D01*
X33237Y-19167D01*
X33154Y-19096D01*
X33065Y-19032D01*
X32971Y-18977D01*
X32873Y-18930D01*
X32771Y-18891D01*
X32666Y-18862D01*
X32559Y-18842D01*
X32450Y-18831D01*
X32342Y-18830D01*
X32233Y-18839D01*
X32126Y-18856D01*
X32020Y-18883D01*
X31917Y-18920D01*
X31818Y-18965D01*
X31723Y-19018D01*
X31633Y-19080D01*
X31549Y-19149D01*
X31471Y-19225D01*
X31400Y-19308D01*
X31336Y-19397D01*
X31281Y-19491D01*
X31234Y-19589D01*
X31195Y-19691D01*
X31166Y-19796D01*
X31146Y-19903D01*
X31135Y-20012D01*
X31134Y-20120D01*
X31143Y-20229D01*
X31160Y-20336D01*
X31187Y-20442D01*
X31224Y-20545D01*
X31269Y-20644D01*
X31322Y-20739D01*
X31384Y-20829D01*
X31453Y-20913D01*
X31529Y-20991D01*
X31612Y-21062D01*
X31701Y-21126D01*
X31795Y-21181D01*
X31893Y-21228D01*
X31995Y-21267D01*
X32100Y-21296D01*
X32207Y-21316D01*
X32316Y-21327D01*
X32424Y-21328D01*
X32533Y-21319D01*
X32640Y-21302D01*
X32746Y-21275D01*
X32849Y-21238D01*
X32948Y-21193D01*
X33043Y-21140D01*
X33133Y-21078D01*
X33217Y-21009D01*
X33295Y-20933D01*
X33366Y-20850D01*
X33382Y-20829D01*
G54D10*
X32383Y-19629D02*
X32344Y-19631D01*
X32305Y-19636D01*
X32267Y-19645D01*
X32230Y-19657D01*
X32193Y-19672D01*
X32159Y-19690D01*
X32125Y-19711D01*
X32094Y-19735D01*
X32065Y-19761D01*
X32039Y-19790D01*
X32015Y-19821D01*
X31994Y-19855D01*
X31976Y-19889D01*
X31961Y-19926D01*
X31949Y-19963D01*
X31940Y-20001D01*
X31935Y-20040D01*
X31933Y-20079D01*
X32383Y-20529D02*
X32422Y-20527D01*
X32461Y-20522D01*
X32499Y-20513D01*
X32536Y-20501D01*
X32573Y-20486D01*
X32608Y-20468D01*
X32641Y-20447D01*
X32672Y-20423D01*
X32701Y-20397D01*
X32727Y-20368D01*
X32751Y-20337D01*
X32772Y-20303D01*
X32790Y-20269D01*
X32805Y-20232D01*
X32817Y-20195D01*
X32826Y-20157D01*
X32831Y-20118D01*
X32833Y-20079D01*
X32383Y-19429D02*
X32327Y-19432D01*
X32271Y-19439D01*
X32215Y-19452D01*
X32161Y-19469D01*
X32109Y-19490D01*
X32059Y-19517D01*
X32011Y-19547D01*
X31966Y-19582D01*
X31924Y-19620D01*
X31886Y-19662D01*
X31851Y-19707D01*
X31821Y-19755D01*
X31794Y-19805D01*
X31773Y-19857D01*
X31756Y-19911D01*
X31743Y-19967D01*
X31736Y-20023D01*
X31733Y-20079D01*
X32383Y-20729D02*
X32439Y-20726D01*
X32495Y-20719D01*
X32551Y-20706D01*
X32605Y-20689D01*
X32657Y-20668D01*
X32708Y-20641D01*
X32755Y-20611D01*
X32800Y-20576D01*
X32842Y-20538D01*
X32880Y-20496D01*
X32915Y-20451D01*
X32945Y-20403D01*
X32972Y-20353D01*
X32993Y-20301D01*
X33010Y-20247D01*
X33023Y-20191D01*
X33030Y-20135D01*
X33033Y-20079D01*
X32383Y-19229D02*
X32309Y-19233D01*
X32236Y-19242D01*
X32164Y-19258D01*
X32093Y-19281D01*
X32024Y-19309D01*
X31959Y-19343D01*
X31896Y-19383D01*
X31837Y-19428D01*
X31782Y-19478D01*
X31732Y-19533D01*
X31687Y-19592D01*
X31647Y-19655D01*
X31613Y-19720D01*
X31585Y-19789D01*
X31562Y-19860D01*
X31546Y-19932D01*
X31537Y-20005D01*
X31533Y-20079D01*
X32383Y-20929D02*
X32457Y-20925D01*
X32530Y-20916D01*
X32602Y-20900D01*
X32673Y-20877D01*
X32742Y-20849D01*
X32808Y-20815D01*
X32870Y-20775D01*
X32929Y-20730D01*
X32984Y-20680D01*
X33034Y-20625D01*
X33079Y-20566D01*
X33119Y-20503D01*
X33153Y-20438D01*
X33181Y-20369D01*
X33204Y-20298D01*
X33220Y-20226D01*
X33229Y-20153D01*
X33233Y-20079D01*
G54D13*
X33403Y-17876D02*
X33403Y-16376D01*
G54D14*
X33090Y-17126D02*
X33076Y-17263D01*
X33036Y-17395D01*
X32971Y-17517D01*
X32884Y-17624D01*
X32778Y-17712D01*
X32656Y-17777D01*
X32525Y-17818D01*
X32387Y-17832D01*
X32251Y-17820D01*
X32119Y-17781D01*
X31996Y-17717D01*
X31889Y-17631D01*
X31800Y-17525D01*
X31734Y-17404D01*
X31692Y-17272D01*
X31677Y-17135D01*
X31688Y-16999D01*
X31726Y-16866D01*
X31789Y-16744D01*
X31875Y-16635D01*
X31980Y-16546D01*
X32100Y-16479D01*
X32232Y-16436D01*
X32369Y-16420D01*
X32505Y-16430D01*
X32638Y-16467D01*
X32761Y-16530D01*
X32870Y-16615D01*
X32960Y-16719D01*
X33028Y-16839D01*
X33072Y-16970D01*
X33089Y-17107D01*
X33090Y-17126D01*
G54D15*
X33382Y-16376D02*
X33313Y-16292D01*
X33237Y-16214D01*
X33154Y-16143D01*
X33065Y-16079D01*
X32971Y-16024D01*
X32873Y-15977D01*
X32771Y-15938D01*
X32666Y-15909D01*
X32559Y-15889D01*
X32450Y-15878D01*
X32342Y-15877D01*
X32233Y-15886D01*
X32126Y-15903D01*
X32020Y-15930D01*
X31917Y-15967D01*
X31818Y-16012D01*
X31723Y-16065D01*
X31633Y-16127D01*
X31549Y-16196D01*
X31471Y-16272D01*
X31400Y-16355D01*
X31336Y-16444D01*
X31281Y-16538D01*
X31234Y-16636D01*
X31195Y-16738D01*
X31166Y-16843D01*
X31146Y-16950D01*
X31135Y-17059D01*
X31134Y-17167D01*
X31143Y-17276D01*
X31160Y-17383D01*
X31187Y-17489D01*
X31224Y-17592D01*
X31269Y-17691D01*
X31322Y-17786D01*
X31384Y-17876D01*
X31453Y-17960D01*
X31529Y-18038D01*
X31612Y-18109D01*
X31701Y-18173D01*
X31795Y-18228D01*
X31893Y-18275D01*
X31995Y-18314D01*
X32100Y-18343D01*
X32207Y-18363D01*
X32316Y-18374D01*
X32424Y-18375D01*
X32533Y-18366D01*
X32640Y-18349D01*
X32746Y-18322D01*
X32849Y-18285D01*
X32948Y-18240D01*
X33043Y-18187D01*
X33133Y-18125D01*
X33217Y-18056D01*
X33295Y-17980D01*
X33366Y-17897D01*
X33382Y-17876D01*
G54D10*
X32383Y-16676D02*
X32344Y-16678D01*
X32305Y-16683D01*
X32267Y-16692D01*
X32230Y-16704D01*
X32193Y-16719D01*
X32159Y-16737D01*
X32125Y-16758D01*
X32094Y-16782D01*
X32065Y-16808D01*
X32039Y-16837D01*
X32015Y-16868D01*
X31994Y-16902D01*
X31976Y-16936D01*
X31961Y-16973D01*
X31949Y-17010D01*
X31940Y-17048D01*
X31935Y-17087D01*
X31933Y-17126D01*
X32383Y-17576D02*
X32422Y-17574D01*
X32461Y-17569D01*
X32499Y-17560D01*
X32536Y-17548D01*
X32573Y-17533D01*
X32608Y-17515D01*
X32641Y-17494D01*
X32672Y-17470D01*
X32701Y-17444D01*
X32727Y-17415D01*
X32751Y-17384D01*
X32772Y-17350D01*
X32790Y-17316D01*
X32805Y-17279D01*
X32817Y-17242D01*
X32826Y-17204D01*
X32831Y-17165D01*
X32833Y-17126D01*
X32383Y-16476D02*
X32327Y-16479D01*
X32271Y-16486D01*
X32215Y-16499D01*
X32161Y-16516D01*
X32109Y-16537D01*
X32059Y-16564D01*
X32011Y-16594D01*
X31966Y-16629D01*
X31924Y-16667D01*
X31886Y-16709D01*
X31851Y-16754D01*
X31821Y-16802D01*
X31794Y-16852D01*
X31773Y-16904D01*
X31756Y-16958D01*
X31743Y-17014D01*
X31736Y-17070D01*
X31733Y-17126D01*
X32383Y-17776D02*
X32439Y-17773D01*
X32495Y-17766D01*
X32551Y-17753D01*
X32605Y-17736D01*
X32657Y-17715D01*
X32708Y-17688D01*
X32755Y-17658D01*
X32800Y-17623D01*
X32842Y-17585D01*
X32880Y-17543D01*
X32915Y-17498D01*
X32945Y-17450D01*
X32972Y-17400D01*
X32993Y-17348D01*
X33010Y-17294D01*
X33023Y-17238D01*
X33030Y-17182D01*
X33033Y-17126D01*
X32383Y-16276D02*
X32309Y-16280D01*
X32236Y-16289D01*
X32164Y-16305D01*
X32093Y-16328D01*
X32024Y-16356D01*
X31959Y-16390D01*
X31896Y-16430D01*
X31837Y-16475D01*
X31782Y-16525D01*
X31732Y-16580D01*
X31687Y-16639D01*
X31647Y-16702D01*
X31613Y-16767D01*
X31585Y-16836D01*
X31562Y-16907D01*
X31546Y-16979D01*
X31537Y-17052D01*
X31533Y-17126D01*
X32383Y-17976D02*
X32457Y-17972D01*
X32530Y-17963D01*
X32602Y-17947D01*
X32673Y-17924D01*
X32742Y-17896D01*
X32808Y-17862D01*
X32870Y-17822D01*
X32929Y-17777D01*
X32984Y-17727D01*
X33034Y-17672D01*
X33079Y-17613D01*
X33119Y-17550D01*
X33153Y-17485D01*
X33181Y-17416D01*
X33204Y-17345D01*
X33220Y-17273D01*
X33229Y-17200D01*
X33233Y-17126D01*
G54D16*
X42732Y-24606D02*
X42712Y-24800D01*
X42656Y-24987D01*
X42564Y-25159D01*
X42441Y-25310D01*
X42291Y-25435D01*
X42119Y-25527D01*
X41933Y-25585D01*
X41738Y-25605D01*
X41545Y-25588D01*
X41358Y-25533D01*
X41185Y-25442D01*
X41033Y-25320D01*
X40907Y-25170D01*
X40813Y-24999D01*
X40754Y-24813D01*
X40733Y-24619D01*
X40749Y-24426D01*
X40803Y-24238D01*
X40892Y-24065D01*
X41013Y-23912D01*
X41162Y-23785D01*
X41332Y-23690D01*
X41518Y-23630D01*
X41712Y-23607D01*
X41905Y-23622D01*
X42093Y-23674D01*
X42267Y-23762D01*
X42421Y-23882D01*
X42549Y-24030D01*
X42645Y-24200D01*
X42707Y-24385D01*
X42731Y-24579D01*
X42732Y-24606D01*
X40232Y-23106D02*
X43232Y-23106D01*
X43232Y-23106D02*
X43232Y-26106D01*
X43232Y-26106D02*
X40232Y-26106D01*
X40232Y-23106D02*
X40232Y-26106D01*
G54D15*
X25878Y-26213D02*
X25878Y-25713D01*
X25878Y-25713D02*
X26878Y-25713D01*
X26878Y-25713D02*
X26878Y-26213D01*
X25378Y-26213D02*
X25378Y-22213D01*
X25378Y-22213D02*
X27378Y-22213D01*
X27378Y-22213D02*
X27378Y-26213D01*
X27378Y-26213D02*
X25378Y-26213D01*
M02*
