M48
;DRILL file {PCBnew (2011-05-25)-stable} date Thu 01 Nov 2012 21:39:28 GMT
;FORMAT={-:-/ absolute / metric / decimal}
FMAT,2
METRIC,TZ
T1C0.635
T2C0.813
T3C1.016
%
G90
G05
M71
T1
X68.087Y-63.962
X68.087Y-69.042
X74.590Y-72.967
X91.618Y-69.903
T2
X63.190Y-57.691
X63.190Y-60.231
X63.190Y-62.771
X63.190Y-65.311
X70.810Y-57.691
X70.810Y-60.231
X70.810Y-62.771
X70.810Y-65.311
X80.729Y-43.500
X80.729Y-51.001
X80.729Y-58.999
X83.269Y-43.500
X83.269Y-51.001
X83.269Y-58.999
X92.730Y-51.001
X92.730Y-58.999
X95.270Y-51.001
X95.270Y-58.999
X102.189Y-59.959
X102.189Y-65.039
X109.809Y-59.959
X109.809Y-65.039
T3
X67.501Y-77.000
X77.483Y-77.000
T0
M30
