G04 (created by PCBNEW-RS274X (2011-05-25)-stable) date Thu 01 Nov 2012 20:09:25 GMT*
G01*
G70*
G90*
%MOIN*%
G04 Gerber Fmt 3.4, Leading zero omitted, Abs format*
%FSLAX34Y34*%
G04 APERTURE LIST*
%ADD10C,0.006000*%
%ADD11C,0.055000*%
%ADD12C,0.066000*%
%ADD13R,0.055000X0.055000*%
%ADD14C,0.060000*%
%ADD15C,0.035000*%
%ADD16C,0.008000*%
G04 APERTURE END LIST*
G54D10*
G54D11*
X43232Y-23606D03*
X43232Y-25606D03*
X40232Y-23606D03*
X40232Y-25606D03*
G54D12*
X31783Y-17126D03*
X32783Y-17126D03*
X31783Y-20079D03*
X32783Y-20079D03*
X31783Y-23228D03*
X32783Y-23228D03*
X36508Y-20079D03*
X37508Y-20079D03*
X36508Y-23228D03*
X37508Y-23228D03*
G54D13*
X27878Y-25713D03*
G54D11*
X27878Y-24713D03*
X27878Y-23713D03*
X27878Y-22713D03*
X24878Y-22713D03*
X24878Y-23713D03*
X24878Y-24713D03*
X24878Y-25713D03*
G54D14*
X26575Y-30315D03*
X30505Y-30315D03*
G54D15*
X36070Y-27521D03*
G54D16*
X37508Y-20079D02*
X37508Y-23228D01*
X37508Y-23228D02*
X37508Y-26994D01*
X40232Y-27006D02*
X40232Y-25606D01*
X40210Y-27028D02*
X40232Y-27006D01*
X37542Y-27028D02*
X40210Y-27028D01*
X37508Y-26994D02*
X37542Y-27028D01*
X30505Y-29508D02*
X32783Y-27230D01*
X30505Y-30315D02*
X30505Y-29508D01*
X32783Y-23228D02*
X32783Y-27230D01*
X32783Y-23228D02*
X32783Y-20079D01*
X32783Y-20079D02*
X32783Y-17126D01*
X36499Y-28003D02*
X37508Y-26994D01*
X33556Y-28003D02*
X36499Y-28003D01*
X32783Y-27230D02*
X33556Y-28003D01*
X36070Y-24326D02*
X36070Y-27521D01*
X36022Y-24278D02*
X36070Y-24326D01*
X36022Y-20565D02*
X36022Y-24278D01*
X36508Y-20079D02*
X36022Y-20565D01*
X28190Y-27025D02*
X24878Y-23713D01*
X31324Y-27025D02*
X28190Y-27025D01*
X31417Y-26932D02*
X31324Y-27025D01*
X31417Y-25060D02*
X31417Y-26932D01*
X30975Y-24618D02*
X31417Y-25060D01*
X30975Y-20887D02*
X30975Y-24618D01*
X31783Y-20079D02*
X30975Y-20887D01*
X24878Y-28618D02*
X24878Y-25713D01*
X26575Y-30315D02*
X24878Y-28618D01*
X31874Y-23319D02*
X31783Y-23228D01*
X31874Y-26997D02*
X31874Y-23319D01*
X31320Y-27551D02*
X31874Y-26997D01*
X27635Y-27551D02*
X31320Y-27551D01*
X25216Y-25132D02*
X27635Y-27551D01*
X24479Y-25132D02*
X25216Y-25132D01*
X24457Y-25110D02*
X24479Y-25132D01*
X24457Y-23134D02*
X24457Y-25110D01*
X24878Y-22713D02*
X24457Y-23134D01*
X25374Y-24713D02*
X24878Y-24713D01*
X27895Y-27234D02*
X25374Y-24713D01*
X31376Y-27234D02*
X27895Y-27234D01*
X31637Y-26973D02*
X31376Y-27234D01*
X31637Y-24666D02*
X31637Y-26973D01*
X31305Y-24334D02*
X31637Y-24666D01*
X31305Y-22315D02*
X31305Y-24334D01*
X32283Y-21337D02*
X31305Y-22315D01*
X32283Y-17626D02*
X32283Y-21337D01*
X31783Y-17126D02*
X32283Y-17626D01*
M02*
