G04 (created by PCBNEW-RS274X (2011-05-25)-stable) date Thu 01 Nov 2012 20:09:25 GMT*
G01*
G70*
G90*
%MOIN*%
G04 Gerber Fmt 3.4, Leading zero omitted, Abs format*
%FSLAX34Y34*%
G04 APERTURE LIST*
%ADD10C,0.006000*%
%ADD11C,0.010000*%
%ADD12C,0.012000*%
G04 APERTURE END LIST*
G54D10*
G54D11*
X29543Y-32023D02*
X29486Y-32048D01*
X29467Y-32074D01*
X29448Y-32125D01*
X29448Y-32201D01*
X29467Y-32251D01*
X29486Y-32277D01*
X29524Y-32302D01*
X29677Y-32302D01*
X29677Y-31769D01*
X29543Y-31769D01*
X29505Y-31795D01*
X29486Y-31820D01*
X29467Y-31871D01*
X29467Y-31922D01*
X29486Y-31972D01*
X29505Y-31998D01*
X29543Y-32023D01*
X29677Y-32023D01*
X29277Y-32302D02*
X29277Y-31947D01*
X29277Y-32048D02*
X29258Y-31998D01*
X29239Y-31972D01*
X29201Y-31947D01*
X29162Y-31947D01*
X28876Y-32277D02*
X28914Y-32302D01*
X28991Y-32302D01*
X29029Y-32277D01*
X29048Y-32226D01*
X29048Y-32023D01*
X29029Y-31972D01*
X28991Y-31947D01*
X28914Y-31947D01*
X28876Y-31972D01*
X28857Y-32023D01*
X28857Y-32074D01*
X29048Y-32125D01*
X28686Y-31947D02*
X28686Y-32302D01*
X28686Y-31998D02*
X28667Y-31972D01*
X28629Y-31947D01*
X28571Y-31947D01*
X28533Y-31972D01*
X28514Y-32023D01*
X28514Y-32302D01*
X28152Y-32302D02*
X28152Y-31769D01*
X28152Y-32277D02*
X28190Y-32302D01*
X28267Y-32302D01*
X28305Y-32277D01*
X28324Y-32251D01*
X28343Y-32201D01*
X28343Y-32048D01*
X28324Y-31998D01*
X28305Y-31972D01*
X28267Y-31947D01*
X28190Y-31947D01*
X28152Y-31972D01*
X27790Y-32302D02*
X27790Y-32023D01*
X27809Y-31972D01*
X27847Y-31947D01*
X27924Y-31947D01*
X27962Y-31972D01*
X27790Y-32277D02*
X27828Y-32302D01*
X27924Y-32302D01*
X27962Y-32277D01*
X27981Y-32226D01*
X27981Y-32175D01*
X27962Y-32125D01*
X27924Y-32099D01*
X27828Y-32099D01*
X27790Y-32074D01*
X27600Y-31947D02*
X27600Y-32302D01*
X27600Y-31998D02*
X27581Y-31972D01*
X27543Y-31947D01*
X27485Y-31947D01*
X27447Y-31972D01*
X27428Y-32023D01*
X27428Y-32302D01*
X26952Y-32277D02*
X26895Y-32302D01*
X26799Y-32302D01*
X26761Y-32277D01*
X26742Y-32251D01*
X26723Y-32201D01*
X26723Y-32150D01*
X26742Y-32099D01*
X26761Y-32074D01*
X26799Y-32048D01*
X26876Y-32023D01*
X26914Y-31998D01*
X26933Y-31972D01*
X26952Y-31922D01*
X26952Y-31871D01*
X26933Y-31820D01*
X26914Y-31795D01*
X26876Y-31769D01*
X26780Y-31769D01*
X26723Y-31795D01*
X26495Y-32302D02*
X26533Y-32277D01*
X26552Y-32226D01*
X26552Y-31769D01*
X26189Y-32277D02*
X26227Y-32302D01*
X26304Y-32302D01*
X26342Y-32277D01*
X26361Y-32226D01*
X26361Y-32023D01*
X26342Y-31972D01*
X26304Y-31947D01*
X26227Y-31947D01*
X26189Y-31972D01*
X26170Y-32023D01*
X26170Y-32074D01*
X26361Y-32125D01*
X25999Y-32302D02*
X25999Y-31947D01*
X25999Y-31769D02*
X26018Y-31795D01*
X25999Y-31820D01*
X25980Y-31795D01*
X25999Y-31769D01*
X25999Y-31820D01*
X25637Y-31947D02*
X25637Y-32378D01*
X25656Y-32429D01*
X25675Y-32455D01*
X25714Y-32480D01*
X25771Y-32480D01*
X25809Y-32455D01*
X25637Y-32277D02*
X25675Y-32302D01*
X25752Y-32302D01*
X25790Y-32277D01*
X25809Y-32251D01*
X25828Y-32201D01*
X25828Y-32048D01*
X25809Y-31998D01*
X25790Y-31972D01*
X25752Y-31947D01*
X25675Y-31947D01*
X25637Y-31972D01*
X25447Y-32302D02*
X25447Y-31769D01*
X25275Y-32302D02*
X25275Y-32023D01*
X25294Y-31972D01*
X25332Y-31947D01*
X25390Y-31947D01*
X25428Y-31972D01*
X25447Y-31998D01*
X25142Y-31947D02*
X24990Y-31947D01*
X25085Y-31769D02*
X25085Y-32226D01*
X25066Y-32277D01*
X25028Y-32302D01*
X24990Y-32302D01*
X29372Y-32615D02*
X29333Y-32615D01*
X29295Y-32641D01*
X29276Y-32666D01*
X29257Y-32717D01*
X29238Y-32818D01*
X29238Y-32945D01*
X29257Y-33047D01*
X29276Y-33097D01*
X29295Y-33123D01*
X29333Y-33148D01*
X29372Y-33148D01*
X29410Y-33123D01*
X29429Y-33097D01*
X29448Y-33047D01*
X29467Y-32945D01*
X29467Y-32818D01*
X29448Y-32717D01*
X29429Y-32666D01*
X29410Y-32641D01*
X29372Y-32615D01*
X28857Y-33148D02*
X29086Y-33148D01*
X28972Y-33148D02*
X28972Y-32615D01*
X29010Y-32691D01*
X29048Y-32742D01*
X29086Y-32768D01*
X28686Y-32945D02*
X28381Y-32945D01*
X28191Y-33148D02*
X28191Y-32615D01*
X27962Y-33148D01*
X27962Y-32615D01*
X27715Y-33148D02*
X27753Y-33123D01*
X27772Y-33097D01*
X27791Y-33047D01*
X27791Y-32894D01*
X27772Y-32844D01*
X27753Y-32818D01*
X27715Y-32793D01*
X27657Y-32793D01*
X27619Y-32818D01*
X27600Y-32844D01*
X27581Y-32894D01*
X27581Y-33047D01*
X27600Y-33097D01*
X27619Y-33123D01*
X27657Y-33148D01*
X27715Y-33148D01*
X27448Y-32793D02*
X27353Y-33148D01*
X27257Y-32793D01*
X27105Y-32945D02*
X26800Y-32945D01*
X26629Y-32666D02*
X26610Y-32641D01*
X26572Y-32615D01*
X26476Y-32615D01*
X26438Y-32641D01*
X26419Y-32666D01*
X26400Y-32717D01*
X26400Y-32768D01*
X26419Y-32844D01*
X26648Y-33148D01*
X26400Y-33148D01*
X26153Y-32615D02*
X26114Y-32615D01*
X26076Y-32641D01*
X26057Y-32666D01*
X26038Y-32717D01*
X26019Y-32818D01*
X26019Y-32945D01*
X26038Y-33047D01*
X26057Y-33097D01*
X26076Y-33123D01*
X26114Y-33148D01*
X26153Y-33148D01*
X26191Y-33123D01*
X26210Y-33097D01*
X26229Y-33047D01*
X26248Y-32945D01*
X26248Y-32818D01*
X26229Y-32717D01*
X26210Y-32666D01*
X26191Y-32641D01*
X26153Y-32615D01*
X25638Y-33148D02*
X25867Y-33148D01*
X25753Y-33148D02*
X25753Y-32615D01*
X25791Y-32691D01*
X25829Y-32742D01*
X25867Y-32768D01*
X25486Y-32666D02*
X25467Y-32641D01*
X25429Y-32615D01*
X25333Y-32615D01*
X25295Y-32641D01*
X25276Y-32666D01*
X25257Y-32717D01*
X25257Y-32768D01*
X25276Y-32844D01*
X25505Y-33148D01*
X25257Y-33148D01*
G54D12*
X42232Y-27674D02*
X41889Y-27674D01*
X42060Y-28474D02*
X42060Y-27674D01*
X41689Y-28474D02*
X41689Y-27940D01*
X41689Y-28093D02*
X41661Y-28017D01*
X41632Y-27979D01*
X41575Y-27940D01*
X41518Y-27940D01*
X41061Y-28474D02*
X41061Y-28055D01*
X41090Y-27979D01*
X41147Y-27940D01*
X41261Y-27940D01*
X41318Y-27979D01*
X41061Y-28436D02*
X41118Y-28474D01*
X41261Y-28474D01*
X41318Y-28436D01*
X41347Y-28360D01*
X41347Y-28283D01*
X41318Y-28207D01*
X41261Y-28169D01*
X41118Y-28169D01*
X41061Y-28131D01*
X40861Y-27940D02*
X40632Y-27940D01*
X40775Y-28474D02*
X40775Y-27788D01*
X40747Y-27712D01*
X40689Y-27674D01*
X40632Y-27674D01*
X40518Y-27940D02*
X40289Y-27940D01*
X40432Y-28474D02*
X40432Y-27788D01*
X40404Y-27712D01*
X40346Y-27674D01*
X40289Y-27674D01*
X40089Y-28474D02*
X40089Y-27940D01*
X40089Y-27674D02*
X40118Y-27712D01*
X40089Y-27750D01*
X40061Y-27712D01*
X40089Y-27674D01*
X40089Y-27750D01*
X39546Y-28436D02*
X39603Y-28474D01*
X39717Y-28474D01*
X39775Y-28436D01*
X39803Y-28398D01*
X39832Y-28321D01*
X39832Y-28093D01*
X39803Y-28017D01*
X39775Y-27979D01*
X39717Y-27940D01*
X39603Y-27940D01*
X39546Y-27979D01*
X38546Y-28474D02*
X38832Y-28474D01*
X38832Y-27674D01*
X38346Y-28474D02*
X38346Y-27940D01*
X38346Y-27674D02*
X38375Y-27712D01*
X38346Y-27750D01*
X38318Y-27712D01*
X38346Y-27674D01*
X38346Y-27750D01*
X37803Y-27940D02*
X37803Y-28588D01*
X37832Y-28664D01*
X37860Y-28702D01*
X37917Y-28740D01*
X38003Y-28740D01*
X38060Y-28702D01*
X37803Y-28436D02*
X37860Y-28474D01*
X37974Y-28474D01*
X38032Y-28436D01*
X38060Y-28398D01*
X38089Y-28321D01*
X38089Y-28093D01*
X38060Y-28017D01*
X38032Y-27979D01*
X37974Y-27940D01*
X37860Y-27940D01*
X37803Y-27979D01*
X37517Y-28474D02*
X37517Y-27674D01*
X37260Y-28474D02*
X37260Y-28055D01*
X37289Y-27979D01*
X37346Y-27940D01*
X37431Y-27940D01*
X37489Y-27979D01*
X37517Y-28017D01*
X37060Y-27940D02*
X36831Y-27940D01*
X36974Y-27674D02*
X36974Y-28360D01*
X36946Y-28436D01*
X36888Y-28474D01*
X36831Y-28474D01*
X36660Y-28436D02*
X36603Y-28474D01*
X36488Y-28474D01*
X36431Y-28436D01*
X36403Y-28360D01*
X36403Y-28321D01*
X36431Y-28245D01*
X36488Y-28207D01*
X36574Y-28207D01*
X36631Y-28169D01*
X36660Y-28093D01*
X36660Y-28055D01*
X36631Y-27979D01*
X36574Y-27940D01*
X36488Y-27940D01*
X36431Y-27979D01*
X35688Y-28169D02*
X35231Y-28169D01*
X34488Y-28474D02*
X34488Y-27674D01*
X34260Y-27674D01*
X34202Y-27712D01*
X34174Y-27750D01*
X34145Y-27826D01*
X34145Y-27940D01*
X34174Y-28017D01*
X34202Y-28055D01*
X34260Y-28093D01*
X34488Y-28093D01*
X33660Y-28436D02*
X33717Y-28474D01*
X33831Y-28474D01*
X33888Y-28436D01*
X33917Y-28360D01*
X33917Y-28055D01*
X33888Y-27979D01*
X33831Y-27940D01*
X33717Y-27940D01*
X33660Y-27979D01*
X33631Y-28055D01*
X33631Y-28131D01*
X33917Y-28207D01*
X33288Y-28474D02*
X33346Y-28436D01*
X33374Y-28360D01*
X33374Y-27674D01*
X33060Y-28474D02*
X33060Y-27940D01*
X33060Y-27674D02*
X33089Y-27712D01*
X33060Y-27750D01*
X33032Y-27712D01*
X33060Y-27674D01*
X33060Y-27750D01*
X32517Y-28436D02*
X32574Y-28474D01*
X32688Y-28474D01*
X32746Y-28436D01*
X32774Y-28398D01*
X32803Y-28321D01*
X32803Y-28093D01*
X32774Y-28017D01*
X32746Y-27979D01*
X32688Y-27940D01*
X32574Y-27940D01*
X32517Y-27979D01*
X32003Y-28474D02*
X32003Y-28055D01*
X32032Y-27979D01*
X32089Y-27940D01*
X32203Y-27940D01*
X32260Y-27979D01*
X32003Y-28436D02*
X32060Y-28474D01*
X32203Y-28474D01*
X32260Y-28436D01*
X32289Y-28360D01*
X32289Y-28283D01*
X32260Y-28207D01*
X32203Y-28169D01*
X32060Y-28169D01*
X32003Y-28131D01*
X31717Y-27940D02*
X31717Y-28474D01*
X31717Y-28017D02*
X31689Y-27979D01*
X31631Y-27940D01*
X31546Y-27940D01*
X31489Y-27979D01*
X31460Y-28055D01*
X31460Y-28474D01*
X30374Y-28398D02*
X30403Y-28436D01*
X30489Y-28474D01*
X30546Y-28474D01*
X30631Y-28436D01*
X30689Y-28360D01*
X30717Y-28283D01*
X30746Y-28131D01*
X30746Y-28017D01*
X30717Y-27864D01*
X30689Y-27788D01*
X30631Y-27712D01*
X30546Y-27674D01*
X30489Y-27674D01*
X30403Y-27712D01*
X30374Y-27750D01*
X30117Y-28474D02*
X30117Y-27940D01*
X30117Y-28093D02*
X30089Y-28017D01*
X30060Y-27979D01*
X30003Y-27940D01*
X29946Y-27940D01*
X29660Y-28474D02*
X29718Y-28436D01*
X29746Y-28398D01*
X29775Y-28321D01*
X29775Y-28093D01*
X29746Y-28017D01*
X29718Y-27979D01*
X29660Y-27940D01*
X29575Y-27940D01*
X29518Y-27979D01*
X29489Y-28017D01*
X29460Y-28093D01*
X29460Y-28321D01*
X29489Y-28398D01*
X29518Y-28436D01*
X29575Y-28474D01*
X29660Y-28474D01*
X29232Y-28436D02*
X29175Y-28474D01*
X29060Y-28474D01*
X29003Y-28436D01*
X28975Y-28360D01*
X28975Y-28321D01*
X29003Y-28245D01*
X29060Y-28207D01*
X29146Y-28207D01*
X29203Y-28169D01*
X29232Y-28093D01*
X29232Y-28055D01*
X29203Y-27979D01*
X29146Y-27940D01*
X29060Y-27940D01*
X29003Y-27979D01*
X28746Y-28436D02*
X28689Y-28474D01*
X28574Y-28474D01*
X28517Y-28436D01*
X28489Y-28360D01*
X28489Y-28321D01*
X28517Y-28245D01*
X28574Y-28207D01*
X28660Y-28207D01*
X28717Y-28169D01*
X28746Y-28093D01*
X28746Y-28055D01*
X28717Y-27979D01*
X28660Y-27940D01*
X28574Y-27940D01*
X28517Y-27979D01*
X28231Y-28474D02*
X28231Y-27940D01*
X28231Y-27674D02*
X28260Y-27712D01*
X28231Y-27750D01*
X28203Y-27712D01*
X28231Y-27674D01*
X28231Y-27750D01*
X27945Y-27940D02*
X27945Y-28474D01*
X27945Y-28017D02*
X27917Y-27979D01*
X27859Y-27940D01*
X27774Y-27940D01*
X27717Y-27979D01*
X27688Y-28055D01*
X27688Y-28474D01*
X27145Y-27940D02*
X27145Y-28588D01*
X27174Y-28664D01*
X27202Y-28702D01*
X27259Y-28740D01*
X27345Y-28740D01*
X27402Y-28702D01*
X27145Y-28436D02*
X27202Y-28474D01*
X27316Y-28474D01*
X27374Y-28436D01*
X27402Y-28398D01*
X27431Y-28321D01*
X27431Y-28093D01*
X27402Y-28017D01*
X27374Y-27979D01*
X27316Y-27940D01*
X27202Y-27940D01*
X27145Y-27979D01*
M02*
